<svg width="95" height="22" viewBox="0 0 95 22" fill="none" xmlns="http://www.w3.org/2000/svg">
<g clip-path="url(#clip0_29_10)">
<g clip-path="url(#clip1_29_10)">
<g clip-path="url(#clip2_29_10)">
<g clip-path="url(#clip3_29_10)">
<g clip-path="url(#clip4_29_10)">
<path d="M9.68689 7.48493C10.4297 7.48493 11.0821 7.72542 11.644 8.2064C12.2059 8.68737 12.4869 9.54158 12.4869 10.769V17.8244C12.4869 17.9774 12.4307 18.0899 12.3183 18.1617C12.2032 18.2335 12.0223 18.2694 11.7756 18.2694H11.718C11.4631 18.2694 11.2781 18.2335 11.1629 18.1617C11.0506 18.0899 10.9944 17.9774 10.9944 17.8244V10.9377C10.9944 10.3224 10.8491 9.83828 10.5585 9.48536C10.2653 9.13556 9.83765 8.96066 9.27573 8.96066C8.80701 8.96066 8.38352 9.11526 8.00525 9.42446C7.62699 9.73366 7.32136 10.0553 7.08837 10.3895C7.10207 10.5738 7.10893 10.7112 7.10893 10.8018V17.8244C7.10893 18.1211 6.86771 18.2694 6.38529 18.2694H6.31539C5.84119 18.2694 5.60409 18.1211 5.60409 17.8244V10.9377C5.60409 10.3224 5.45744 9.83828 5.16415 9.48536C4.8736 9.13556 4.44736 8.96066 3.88545 8.96066C3.49896 8.96066 3.14399 9.06529 2.82055 9.27454C2.49984 9.4838 2.23396 9.71023 2.0229 9.95384C1.81184 10.2006 1.70631 10.338 1.70631 10.3661V17.8244C1.70631 17.9774 1.65149 18.0899 1.54184 18.1617C1.4322 18.2335 1.25403 18.2694 1.00734 18.2694H0.925106C0.678411 18.2694 0.498872 18.2335 0.386489 18.1617C0.276847 18.0899 0.222025 17.9774 0.222025 17.8244V10.6894C0.222025 9.80237 0.185021 9.16367 0.111013 8.77326C0.0370042 8.37973 0 8.16423 0 8.12675C0 7.9581 0.112383 7.83785 0.33715 7.76602C0.561916 7.69419 0.771607 7.65827 0.966222 7.65827C1.13343 7.65827 1.25677 7.76134 1.33626 7.96747C1.41576 8.1736 1.47469 8.38286 1.51306 8.59524C1.5487 8.80762 1.57337 8.94504 1.58707 9.0075C1.916 8.57338 2.31756 8.21108 2.79176 7.92062C3.26597 7.63016 3.76758 7.48493 4.2966 7.48493C4.83933 7.48493 5.34506 7.6083 5.81378 7.85503C6.2825 8.10489 6.6265 8.54214 6.84579 9.16679C7.21583 8.6702 7.64754 8.26574 8.14093 7.95341C8.63707 7.64109 9.15238 7.48493 9.68689 7.48493ZM19.1929 18.3491C17.7154 18.3491 16.6163 17.9087 15.8954 17.028C15.1772 16.1472 14.8181 14.7995 14.8181 12.9849C14.8181 11.186 15.169 9.81955 15.8707 8.8857C16.5724 7.95185 17.6058 7.48493 18.9708 7.48493C20.1906 7.48493 21.1102 7.93468 21.7297 8.83417C22.3465 9.73366 22.6548 11.0532 22.6548 12.7929C22.6548 12.8678 22.6206 12.9724 22.552 13.1067C22.4808 13.241 22.3972 13.3597 22.3012 13.4628C22.2025 13.5659 22.1203 13.6174 22.0545 13.6174H16.4217C16.4957 14.7511 16.752 15.5803 17.1905 16.105C17.6291 16.6266 18.2897 16.8874 19.1723 16.8874C19.6684 16.8874 20.0947 16.8187 20.451 16.6813C20.8101 16.5439 21.1568 16.3768 21.4912 16.18C21.5241 16.1644 21.5748 16.1363 21.6434 16.0957C21.7092 16.0582 21.7558 16.0395 21.7832 16.0395C21.8572 16.0395 21.9421 16.1066 22.0381 16.2409C22.1368 16.3752 22.2204 16.5236 22.2889 16.686C22.3602 16.8515 22.3958 16.9717 22.3958 17.0467C22.3958 17.2154 22.2478 17.4028 21.9517 17.6089C21.6584 17.815 21.2665 17.9899 20.7758 18.1336C20.2824 18.2773 19.7548 18.3491 19.1929 18.3491ZM16.4217 12.151H21.0595C21.0595 10.0179 20.3469 8.95129 18.9215 8.95129C17.3893 8.95129 16.556 10.0179 16.4217 12.151ZM27.8436 18.3491C27.1474 18.3491 26.5389 18.1195 26.0181 17.6604C25.4973 17.1982 25.0944 16.5548 24.8093 15.7303C24.5242 14.9089 24.3817 13.975 24.3817 12.9287C24.3817 11.7794 24.5338 10.794 24.8381 9.97258C25.1423 9.1543 25.5686 8.53434 26.1168 8.1127C26.6677 7.69419 27.3009 7.48493 28.0163 7.48493C28.5316 7.48493 28.988 7.57238 29.3855 7.74728C29.7829 7.92218 30.1763 8.17829 30.5655 8.5156V3.39037C30.5655 3.09367 30.7999 2.94531 31.2686 2.94531H31.3467C31.8237 2.94531 32.0621 3.09367 32.0621 3.39037V15.229C32.0621 16.1129 32.0991 16.7516 32.1731 17.1451C32.2444 17.5386 32.28 17.7541 32.28 17.7916C32.28 17.9571 32.169 18.0774 31.947 18.1523C31.7222 18.2242 31.5125 18.2601 31.3179 18.2601C31.1836 18.2601 31.0767 18.1867 30.9972 18.0399C30.9177 17.8962 30.8629 17.751 30.8328 17.6042C30.8026 17.4543 30.7533 17.1966 30.6847 16.8312C29.835 17.8431 28.888 18.3491 27.8436 18.3491ZM28.1561 16.8734C28.5508 16.8734 28.9606 16.7516 29.3855 16.5079C29.8103 16.2643 30.2037 15.9177 30.5655 15.4679V9.89763C29.9241 9.2886 29.1909 8.98408 28.3658 8.98408C27.5709 9.00594 26.9706 9.33701 26.5649 9.97727C26.1593 10.6175 25.9564 11.5483 25.9564 12.7694C25.9564 14.0812 26.1456 15.0931 26.5238 15.8052C26.9021 16.5173 27.4462 16.8734 28.1561 16.8734ZM35.816 5.03944C35.3391 5.03944 35.1006 4.88952 35.1006 4.58969V3.39037C35.1006 3.09367 35.3391 2.94531 35.816 2.94531H36.0257C36.5081 2.94531 36.7493 3.09367 36.7493 3.39037V4.58969C36.7493 4.88952 36.5081 5.03944 36.0257 5.03944H35.816ZM35.8859 18.2694C35.409 18.2694 35.1705 18.1211 35.1705 17.8244V8.00963C35.1705 7.71293 35.409 7.56457 35.8859 7.56457H35.9558C36.4382 7.56457 36.6794 7.71293 36.6794 8.00963V17.8244C36.6794 18.1211 36.4382 18.2694 35.9558 18.2694H35.8859ZM43.591 18.3491C42.1136 18.3491 41.0117 17.9165 40.2853 17.0514C39.5589 16.1863 39.1957 14.7933 39.1957 12.8725C39.1957 10.9267 39.6 9.54314 40.4086 8.72173C41.22 7.8972 42.2273 7.48493 43.4307 7.48493C43.8802 7.48493 44.3119 7.52865 44.7258 7.61611C45.1424 7.70356 45.4769 7.82068 45.729 7.96747C45.9839 8.11114 46.1114 8.26261 46.1114 8.4219C46.1114 8.52809 46.0799 8.6702 46.0168 8.84822C45.9538 9.02312 45.877 9.17616 45.7866 9.30734C45.6961 9.44163 45.6139 9.50878 45.5399 9.50878C45.5207 9.50878 45.4906 9.49941 45.4494 9.48067C45.4083 9.46194 45.3713 9.44476 45.3384 9.42914C44.7354 9.11057 44.0871 8.95129 43.3937 8.95129C42.5686 8.95129 41.9327 9.25736 41.4859 9.86952C41.0363 10.4848 40.8116 11.4702 40.8116 12.8257C40.8116 13.7876 40.902 14.5637 41.0829 15.154C41.2638 15.7443 41.5571 16.1816 41.9628 16.4658C42.3658 16.7469 42.9057 16.8874 43.5828 16.8874C44.3256 16.8874 44.9944 16.7125 45.5892 16.3627C45.6495 16.3471 45.6948 16.3299 45.7249 16.3112C45.7551 16.2924 45.777 16.2831 45.7907 16.2831C45.8647 16.2831 45.9483 16.3471 46.0415 16.4752C46.1347 16.6063 46.2169 16.7547 46.2882 16.9202C46.3595 17.0889 46.3951 17.2232 46.3951 17.3231C46.3951 17.4824 46.2676 17.6417 46.0127 17.801C45.7578 17.9602 45.4152 18.0914 44.9848 18.1945C44.5517 18.2976 44.0871 18.3491 43.591 18.3491ZM52.0444 18.3491C50.6986 18.3491 49.6734 17.89 48.969 16.9717C48.2618 16.0535 47.9082 14.7183 47.9082 12.9662C47.9082 11.2109 48.2659 9.85859 48.9813 8.90912C49.6967 7.95966 50.7178 7.48493 52.0444 7.48493C53.3546 7.48493 54.3579 7.95654 55.0541 8.89975C55.7503 9.83985 56.0984 11.1953 56.0984 12.9662C56.0984 14.7246 55.7558 16.0613 55.0705 16.9764C54.3853 17.8915 53.3766 18.3491 52.0444 18.3491ZM51.9951 16.8874C52.864 16.8874 53.5054 16.5657 53.9193 15.9223C54.3359 15.2758 54.5443 14.278 54.5443 12.9287C54.5443 11.5732 54.3359 10.5707 53.9193 9.92105C53.5054 9.27454 52.864 8.95129 51.9951 8.95129C51.1317 8.95129 50.4957 9.27298 50.0873 9.91637C49.6789 10.5598 49.4747 11.5639 49.4747 12.9287C49.4747 14.2873 49.6775 15.2868 50.0832 15.927C50.4861 16.5673 51.1234 16.8874 51.9951 16.8874ZM59.4124 18.2694C59.1575 18.2694 58.9724 18.2335 58.8573 18.1617C58.7449 18.0899 58.6887 17.9774 58.6887 17.8244V10.6894C58.6887 9.80237 58.6517 9.16367 58.5777 8.77326C58.5037 8.37973 58.4667 8.16423 58.4667 8.12675C58.4667 7.9581 58.5791 7.83785 58.8039 7.76602C59.0286 7.69419 59.2411 7.65827 59.4412 7.65827C59.6001 7.65827 59.7207 7.75509 59.803 7.94873C59.8825 8.14237 59.9524 8.41565 60.0127 8.76858L60.062 9.0075C60.6979 7.99245 61.3873 7.48493 62.1301 7.48493C62.4728 7.48493 62.7304 7.5552 62.9031 7.69575C63.0785 7.83629 63.1663 8.02525 63.1663 8.26261C63.1663 8.49061 63.1306 8.73266 63.0593 8.98877C62.9881 9.24487 62.9059 9.37292 62.8127 9.37292C62.7661 9.37292 62.6825 9.3495 62.5619 9.30265C62.455 9.24956 62.348 9.21052 62.2411 9.18553C62.1342 9.15742 61.9972 9.14337 61.83 9.14337C61.5559 9.14337 61.2969 9.2355 61.0529 9.41977C60.8089 9.60092 60.6034 9.80237 60.4362 10.0241C60.269 10.2459 60.1854 10.3677 60.1854 10.3895V17.8244C60.1854 17.9774 60.1278 18.0899 60.0127 18.1617C59.9003 18.2335 59.7235 18.2694 59.4823 18.2694H59.4124ZM68.9677 18.3491C67.4875 18.3491 66.3884 17.9087 65.6702 17.028C64.9493 16.1472 64.5889 14.7995 64.5889 12.9849C64.5889 11.186 64.9397 9.81955 65.6414 8.8857C66.3459 7.95185 67.3806 7.48493 68.7457 7.48493C69.9627 7.48493 70.881 7.93468 71.5004 8.83417C72.1199 9.73366 72.4296 11.0532 72.4296 12.7929C72.4296 12.8678 72.394 12.9724 72.3228 13.1067C72.2542 13.241 72.1706 13.3597 72.0719 13.4628C71.976 13.5659 71.8938 13.6174 71.8252 13.6174H66.1965C66.2705 14.7511 66.5254 15.5803 66.9612 16.105C67.3998 16.6266 68.0618 16.8874 68.9471 16.8874C69.4405 16.8874 69.8668 16.8187 70.2258 16.6813C70.5849 16.5439 70.9317 16.3768 71.2661 16.18C71.299 16.1644 71.3483 16.1363 71.4141 16.0957C71.4826 16.0582 71.5292 16.0395 71.5539 16.0395C71.6279 16.0395 71.7142 16.1066 71.8129 16.2409C71.9089 16.3752 71.9925 16.5236 72.0637 16.686C72.1322 16.8515 72.1665 16.9717 72.1665 17.0467C72.1665 17.2154 72.0199 17.4028 71.7266 17.6089C71.4333 17.815 71.0399 17.9899 70.5465 18.1336C70.0559 18.2773 69.5296 18.3491 68.9677 18.3491ZM66.1965 12.151H70.8344C70.8344 10.0179 70.1217 8.95129 68.6963 8.95129C67.1641 8.95129 66.3308 10.0179 66.1965 12.151Z" fill="#085F63"/>
</g>
</g>
</g>
</g>
</g>
<mask id="mask0_29_10" style="mask-type:luminance" maskUnits="userSpaceOnUse" x="74" y="0" width="21" height="22">
<path d="M95.0002 0.709717H74.1973V22H95.0002V0.709717Z" fill="white"/>
</mask>
<g mask="url(#mask0_29_10)">
<path d="M76.2334 10.0458C76.1489 9.72321 76.1489 9.38351 76.2333 9.06087C76.3178 8.73824 76.4838 8.44405 76.7146 8.20787L81.5237 3.28611C81.7544 3.04992 82.0419 2.88006 82.3571 2.79361C82.6724 2.70717 83.0043 2.70718 83.3195 2.79365L87.8196 4.0277C87.8665 3.39676 88.0811 2.79095 88.4403 2.27589L83.0203 0.78972C82.6312 0.683047 82.2216 0.683049 81.8326 0.789727C81.4436 0.896405 81.0888 1.106 80.804 1.39745L74.8693 7.47126C74.5845 7.76274 74.3797 8.12578 74.2754 8.52393C74.1712 8.92207 74.1712 9.34129 74.2754 9.73943L75.7834 15.4992C76.2764 15.1139 76.8633 14.8746 77.4801 14.8075L76.2334 10.0458Z" fill="#13A19F"/>
<path d="M91.6762 7.74292L92.9646 12.6638C93.0491 12.9864 93.049 13.3261 92.9646 13.6487C92.8801 13.9714 92.7141 14.2655 92.4833 14.5017L87.6742 19.4236C87.4434 19.6598 87.156 19.8296 86.8407 19.9161C86.5255 20.0024 86.1935 20.0024 85.8783 19.9161L81.2257 18.6401C81.1601 19.2714 80.9263 19.8721 80.5498 20.3765L86.1777 21.9199C86.5667 22.0266 86.9764 22.0266 87.3654 21.9199C87.7545 21.8132 88.1091 21.6037 88.394 21.3121L94.3287 15.2383C94.6136 14.9468 94.8183 14.5838 94.9226 14.1856C95.0268 13.7875 95.0268 13.3683 94.9226 12.9702L93.3577 6.99475C92.8751 7.39784 92.2933 7.65674 91.6762 7.74292Z" fill="#13A19F"/>
<path d="M75.9193 16.2935C75.5382 16.6835 75.2786 17.1806 75.1735 17.7216C75.0683 18.2627 75.1223 18.8235 75.3285 19.3332C75.5348 19.8428 75.8841 20.2784 76.3323 20.5849C76.7805 20.8913 77.3074 21.055 77.8464 21.055C78.3854 21.055 78.9123 20.8913 79.3605 20.5849C79.8087 20.2784 80.158 19.8428 80.3643 19.3332C80.5706 18.8235 80.6245 18.2627 80.5194 17.7216C80.4142 17.1806 80.1546 16.6835 79.7735 16.2935C79.262 15.7713 78.569 15.4779 77.8464 15.4779C77.1239 15.4779 76.4308 15.7713 75.9193 16.2935Z" fill="#3DD5F0"/>
<path d="M89.2836 2.32771C88.9025 2.71778 88.6428 3.21476 88.5377 3.75581C88.4326 4.29685 88.4865 4.85766 88.6928 5.36733C88.8991 5.87698 89.2484 6.31259 89.6965 6.61907C90.1447 6.92555 90.6716 7.08914 91.2106 7.08914C91.7497 7.08914 92.2766 6.92555 92.7248 6.61907C93.1729 6.31259 93.5222 5.87698 93.7285 5.36733C93.9348 4.85766 93.9887 4.29685 93.8835 3.75581C93.7785 3.21476 93.5188 2.71778 93.1377 2.32771C92.6263 1.80541 91.9332 1.51208 91.2106 1.51208C90.4881 1.51208 89.795 1.80541 89.2836 2.32771Z" fill="#3DD5F0"/>
<path d="M86.1986 18.7483C86.0891 18.7483 85.9802 18.7336 85.8745 18.7046L81.6155 17.5366C81.4735 16.7605 81.1056 16.0464 80.5601 15.4881C80.0145 14.9298 79.3168 14.5532 78.5584 14.4079L77.4173 10.0495C77.3607 9.83212 77.3609 9.60334 77.4178 9.38604C77.4747 9.16872 77.5863 8.97051 77.7415 8.81119L82.1129 4.33731C82.2684 4.17816 82.462 4.06372 82.6745 4.00547C82.8869 3.94722 83.1105 3.94723 83.323 4.0055L87.4625 5.14069C87.6267 5.912 88.0147 6.61457 88.5757 7.15639C89.1366 7.69819 89.8444 8.05398 90.6063 8.17713L91.7799 12.6608C91.8364 12.8783 91.8363 13.1071 91.7793 13.3243C91.7225 13.5417 91.6109 13.7399 91.4556 13.8993L87.0842 18.373C86.9682 18.4923 86.8301 18.587 86.6781 18.6514C86.5261 18.7158 86.3631 18.7487 86.1986 18.7483Z" fill="#3DD5F0"/>
</g>
<defs>
<clipPath id="clip0_29_10">
<rect width="94.3066" height="21.2903" fill="white"/>
</clipPath>
<clipPath id="clip1_29_10">
<rect width="72.4296" height="15.4054" fill="white" transform="translate(0 2.94238)"/>
</clipPath>
<clipPath id="clip2_29_10">
<rect width="72.4296" height="15.4054" fill="white" transform="translate(0 2.94238)"/>
</clipPath>
<clipPath id="clip3_29_10">
<rect width="72.4296" height="15.4054" fill="white" transform="translate(0 2.94238)"/>
</clipPath>
<clipPath id="clip4_29_10">
<rect width="72.4296" height="15.4054" fill="white" transform="translate(0 2.94238)"/>
</clipPath>
</defs>
</svg>
