<svg width="412" height="262" viewBox="0 0 412 262" fill="none" xmlns="http://www.w3.org/2000/svg">
<g clip-path="url(#clip0_13_2440)">
<path d="M228.683 5.19196C228.689 5.19321 228.675 5.28716 228.642 5.46941C228.613 5.65291 228.55 5.92158 228.496 6.27856C228.378 6.99065 228.234 8.04844 228.191 9.4175C228.147 10.7847 228.231 12.4688 228.614 14.3752C229.001 16.2784 229.728 18.3972 230.971 20.5134C232.195 22.6427 233.889 24.7527 235.642 27.0662C237.408 29.3647 239.121 32.0051 240.328 35.0488C241.539 38.0813 242.332 41.4639 242.483 45.0155C242.631 48.5622 242.116 52.2779 240.798 55.8183C239.487 59.36 237.482 62.5434 235.055 65.1656C232.635 67.7991 229.763 69.8415 226.787 71.2531C223.823 72.6911 220.876 73.7369 218.27 75.029C215.652 76.2928 213.422 77.8729 211.734 79.6629C210.028 81.4352 208.814 83.3247 207.963 85.0727C207.105 86.8225 206.607 88.4352 206.311 89.7711C206.141 90.4356 206.077 91.0424 205.984 91.561C205.934 92.0858 205.873 92.5292 205.852 92.8894C205.835 93.2382 205.821 93.5106 205.81 93.7098C205.799 93.8952 205.79 93.9897 205.785 93.9897C205.779 93.9897 205.776 93.8952 205.776 93.7098C205.779 93.5094 205.782 93.2363 205.785 92.8856C205.795 92.5242 205.846 92.0783 205.887 91.5497C205.97 91.0268 206.024 90.4149 206.185 89.7448C206.464 88.397 206.947 86.7662 207.796 84.9944C208.639 83.2233 209.85 81.3069 211.564 79.5044C213.258 77.6857 215.516 76.0692 218.147 74.7878C220.767 73.4764 223.714 72.4186 226.652 70.9838C229.599 69.5759 232.425 67.5574 234.816 64.9502C237.212 62.3555 239.192 59.2071 240.487 55.7062C241.79 52.2078 242.301 48.5378 242.16 45.0281C242.015 41.5146 241.236 38.1652 240.044 35.1597C238.856 32.141 237.175 29.5294 235.422 27.2265C233.683 24.913 231.99 22.7837 230.768 20.6274C229.526 18.483 228.806 16.3323 228.433 14.4109C228.063 12.4844 227.998 10.7878 228.063 9.41311C228.126 8.03716 228.291 6.97749 228.431 6.26728C228.496 5.91092 228.569 5.64349 228.609 5.46249C228.653 5.28213 228.678 5.1907 228.683 5.19196Z" fill="#E3E3E2"/>
<path d="M255.355 9.60864C255.355 9.60864 255.022 11.1255 254.051 13.759C253.562 15.0724 252.906 16.6656 251.934 18.4136C250.963 20.1515 249.677 22.0842 247.753 23.7527C247.275 24.1723 246.746 24.5537 246.187 24.9169C245.614 25.2639 245.017 25.5852 244.403 25.8946C243.172 26.5183 241.894 27.1678 240.569 27.8398C237.917 29.1757 235.069 30.5798 232.152 32.1906C229.252 33.8045 226.464 35.974 224.092 38.6814C221.723 41.3826 219.772 44.638 218.644 48.2648C217.519 51.8904 217.29 55.68 217.859 59.2091C218.428 62.7401 219.801 66.0106 221.775 68.6573C223.733 71.3221 226.04 73.5135 227.887 75.8345C228.819 76.9887 229.642 78.1699 230.289 79.3887C230.924 80.6112 231.433 81.8349 231.782 83.0449C232.493 85.463 232.67 87.7608 232.591 89.7499C232.506 91.7453 232.136 93.44 231.713 94.7771C231.295 96.118 230.832 97.1113 230.496 97.7689C230.322 98.082 230.187 98.3256 230.087 98.5041C229.994 98.6688 229.939 98.749 229.939 98.749C229.939 98.749 229.974 98.6576 230.057 98.4879C230.15 98.3062 230.275 98.0582 230.436 97.7394C230.752 97.0756 231.193 96.0785 231.589 94.7408C231.99 93.4068 232.34 91.7215 232.406 89.7424C232.468 87.7696 232.275 85.4962 231.559 83.1101C231.206 81.9164 230.695 80.7101 230.064 79.507C229.42 78.3083 228.602 77.1447 227.674 76.003C225.831 73.7058 223.516 71.5232 221.528 68.8333C219.522 66.1559 218.12 62.8366 217.539 59.2599C216.959 55.6838 217.187 51.844 218.329 48.169C219.472 44.4933 221.449 41.2003 223.847 38.4722C226.249 35.7372 229.07 33.5515 232.002 31.9288C234.935 30.3193 237.787 28.9239 240.445 27.5987C241.772 26.9329 243.054 26.2897 244.285 25.671C244.904 25.3641 245.497 25.0472 246.057 24.7134C246.606 24.3595 247.127 23.9881 247.6 23.5779C249.503 21.9483 250.793 20.0438 251.773 18.3246C252.754 16.5967 253.425 15.0166 253.932 13.7139C254.438 12.41 254.776 11.3766 255.003 10.6765C255.112 10.3364 255.196 10.0708 255.258 9.87732C255.317 9.6982 255.355 9.60864 255.355 9.60864Z" fill="#E3E3E2"/>
<path d="M245.323 25.2787C245.305 25.3671 242.244 24.8191 238.487 24.055C234.73 23.2915 231.699 22.6008 231.718 22.5125C231.736 22.4241 234.796 22.9715 238.554 23.7362C242.31 24.4997 245.341 25.1904 245.323 25.2787Z" fill="#E3E3E2"/>
<path d="M249.97 20.9476C249.945 21.034 245.232 19.7457 239.445 18.0704C233.656 16.3951 228.986 14.9665 229.012 14.8807C229.038 14.7943 233.75 16.0819 239.538 17.7579C245.325 19.4332 249.996 20.8611 249.97 20.9476Z" fill="#E3E3E2"/>
<path d="M253.377 15.2637C253.351 15.3502 247.703 13.75 240.762 11.6902C233.819 9.62906 228.214 7.88924 228.24 7.80281C228.266 7.71701 233.914 9.31717 240.857 11.3776C247.797 13.4375 253.404 15.1779 253.377 15.2637Z" fill="#E3E3E2"/>
<path d="M231.757 67.9715C231.724 68.0554 228.692 66.9826 224.984 65.5759C221.275 64.1687 218.296 62.9599 218.329 62.876C218.362 62.7915 221.394 63.8643 225.102 65.2716C228.81 66.6782 231.79 67.8875 231.757 67.9715Z" fill="#E3E3E2"/>
<path d="M237.711 61.2306C237.703 61.2519 237.415 61.1824 236.898 61.0383C236.38 60.8949 235.636 60.6726 234.722 60.3864C232.891 59.8139 230.378 58.9729 227.632 57.9633C224.885 56.9525 222.427 55.9648 220.664 55.2145C219.782 54.84 219.072 54.5281 218.585 54.302C218.1 54.0772 217.835 53.9432 217.844 53.9225C217.853 53.9018 218.134 53.9964 218.636 54.1855C219.197 54.4016 219.907 54.6753 220.753 55.0016C222.537 55.6955 225.005 56.6481 227.747 57.6576C230.489 58.6653 232.986 59.5396 234.795 60.1672C235.652 60.4672 236.37 60.7189 236.937 60.9175C237.442 61.0985 237.718 61.2093 237.711 61.2306Z" fill="#E3E3E2"/>
<path d="M241.131 53.9255C241.121 53.9455 240.81 53.8303 240.255 53.6048C239.644 53.3537 238.856 53.0299 237.909 52.6404C235.929 51.8262 233.183 50.729 230.118 49.6004C227.051 48.4743 224.246 47.5311 222.209 46.8685C221.236 46.551 220.425 46.2873 219.797 46.0825C219.227 45.8953 218.915 45.7813 218.922 45.76C218.928 45.7381 219.252 45.8107 219.833 45.961C220.414 46.1101 221.251 46.3437 222.28 46.6481C224.337 47.2562 227.16 48.1662 230.234 49.2948C233.305 50.4252 236.043 51.5594 238.002 52.4287C238.982 52.8633 239.769 53.2259 240.308 53.489C240.847 53.7508 241.14 53.9048 241.131 53.9255Z" fill="#E3E3E2"/>
<path d="M241.173 44.8107C241.165 44.832 240.918 44.7612 240.479 44.616C239.974 44.4443 239.355 44.2327 238.624 43.984C237.062 43.4454 234.901 42.7083 232.5 41.9361C230.098 41.1651 227.912 40.5063 226.327 40.0341C225.589 39.8111 224.962 39.622 224.452 39.4679C224.009 39.3301 223.767 39.2437 223.774 39.2218C223.779 39.2005 224.032 39.2449 224.485 39.3451C224.937 39.4447 225.589 39.6038 226.39 39.8123C227.993 40.2282 230.195 40.8532 232.602 41.6261C235.008 42.3995 237.161 43.173 238.706 43.768C239.478 44.0654 240.099 44.3147 240.525 44.497C240.95 44.6792 241.181 44.7901 241.173 44.8107Z" fill="#E3E3E2"/>
<path d="M241.262 37.7243C241.233 37.8095 238.59 36.9985 235.358 35.9137C232.126 34.8278 229.53 33.8789 229.56 33.7938C229.589 33.7086 232.233 34.519 235.465 35.605C238.696 36.6903 241.292 37.6392 241.262 37.7243Z" fill="#E3E3E2"/>
<path d="M231.396 81.7201C231.388 81.7408 231.164 81.6807 230.768 81.5535C230.302 81.3976 229.745 81.2116 229.095 80.9936C227.605 80.4864 225.698 79.8363 223.589 79.1179C221.473 78.4152 219.561 77.7808 218.067 77.2854C217.417 77.0649 216.861 76.8771 216.396 76.7199C216.003 76.5815 215.789 76.4944 215.795 76.4731C215.802 76.4512 216.028 76.4969 216.434 76.5984C216.839 76.6992 217.421 76.8589 218.137 77.065C219.57 77.4771 221.539 78.0839 223.695 78.8092C225.851 79.5344 227.785 80.2396 229.175 80.7776C229.87 81.0456 230.429 81.2705 230.813 81.4345C231.196 81.5986 231.404 81.6988 231.396 81.7201Z" fill="#E3E3E2"/>
<path d="M232.516 89.9871C232.487 90.0723 227.274 88.4026 220.875 86.2582C214.472 84.1126 209.308 82.3051 209.337 82.2193C209.366 82.1348 214.578 83.8038 220.981 85.9495C227.381 88.0939 232.545 89.9019 232.516 89.9871Z" fill="#E3E3E2"/>
<path d="M232.412 96.1384C232.385 96.2249 226.565 94.5364 219.413 92.3682C212.258 90.1994 206.482 88.3719 206.509 88.2854C206.536 88.1996 212.355 89.8875 219.51 92.0563C226.661 94.2245 232.439 96.0526 232.412 96.1384Z" fill="#E3E3E2"/>
<path d="M127.224 44.0394C127.224 44.0394 127.056 44.0556 126.727 44.07C126.389 44.0832 125.903 44.1014 125.269 44.1252C123.987 44.1665 122.096 44.2222 119.659 44.2567C118.441 44.2723 117.086 44.2842 115.602 44.2554C114.862 44.2185 114.082 44.2535 113.277 44.0475C112.485 43.8114 111.788 43.3266 111.002 42.9997C110.224 42.6534 109.328 42.53 108.428 42.664C108.204 42.6891 107.978 42.748 107.755 42.7949C107.548 42.8607 107.345 42.9596 107.165 43.0999C106.799 43.3742 106.487 43.7362 106.206 44.1245C105.102 45.7071 104.317 47.6217 103.539 49.6195C102.762 51.6268 102.076 53.7724 101.262 55.9851C101.156 56.2613 101.048 56.5381 100.924 56.8137L100.824 57.0197L100.756 57.135C100.742 57.1682 100.663 57.2458 100.565 57.2471C100.335 57.1888 100.364 57.0786 100.307 57.0103C100.275 56.9333 100.245 56.8575 100.225 56.7836C100.057 56.1874 99.9774 55.588 99.8892 54.9812C99.7249 53.7681 99.6006 52.5305 99.4807 51.2704C99.0127 46.2307 98.648 40.8384 98.1526 35.1743C97.8901 32.346 97.656 29.4338 97.1569 26.5121C97.0884 26.1495 97.0142 25.7857 96.9146 25.4349C96.8664 25.2596 96.8074 25.0842 96.7319 24.9427C96.6431 24.7918 96.5676 24.7235 96.4731 24.7692C96.229 24.8788 96.0025 25.2377 95.8249 25.5427C95.6416 25.8646 95.4793 26.204 95.3271 26.5485C94.7239 27.9332 94.2381 29.3899 93.7662 30.8617C92.8345 33.8109 92.0061 36.8509 91.207 39.9453L90.9108 41.109C90.8004 41.4954 90.7478 41.8881 90.5689 42.2945C90.2138 43.083 89.4197 43.6617 88.5425 43.755C87.6952 43.7907 86.8986 43.8339 86.0499 43.8139C85.2127 43.7801 84.3762 43.6617 83.5618 43.4519C82.5248 43.1882 81.5271 42.7949 80.5986 42.2876C80.128 42.0309 79.7075 41.744 79.2312 41.6119C78.7656 41.4666 78.2595 41.5048 77.9487 41.8499C77.6354 42.1799 77.5022 42.6897 77.336 43.1676C77.1775 43.6498 77.0373 44.1383 76.9009 44.6274C76.6307 45.6063 76.3815 46.5871 76.1303 47.5635C75.6261 49.52 75.1441 51.4477 74.5149 53.3484C74.4921 53.4123 74.4585 53.4818 74.4058 53.5539C74.3665 53.6309 74.1724 53.7311 74.0373 53.6416C73.8572 53.5088 73.8267 53.3873 73.7633 53.267C73.6561 53.0265 73.5838 52.7879 73.5141 52.5481C73.3796 52.0689 73.2711 51.5892 73.1697 51.1101C72.9686 50.1513 72.7986 49.1949 72.6369 48.2436C71.9982 44.4377 71.4838 40.7138 70.927 37.1114C70.6441 35.3121 70.3752 33.5347 70.0048 31.8174C69.9058 31.3978 69.8107 30.9481 69.6458 30.593C69.5316 30.2442 69.1238 30.6619 68.8841 30.9682C68.3672 31.6427 67.9593 32.4067 67.5591 33.1539C65.99 36.1757 64.7209 39.2063 63.3058 42.0139C62.9423 42.7135 62.596 43.4074 62.1205 44.0425C61.9925 44.1859 61.8706 44.3832 61.5978 44.4358C61.3962 44.4665 61.1831 44.4796 60.9747 44.4264C60.5471 44.3224 60.2584 44.008 59.9971 43.755C59.7322 43.4957 59.4572 43.2665 59.1367 43.1162C58.8166 42.9672 58.4635 42.8732 58.129 42.9033C57.4353 42.9628 56.887 43.4795 56.3195 43.9022C56.0316 44.1133 55.7194 44.3343 55.3309 44.3995C55.1379 44.4277 54.9437 44.4289 54.7479 44.3525C54.5629 44.2761 54.4219 44.1584 54.2856 44.0419C53.7591 43.5596 53.366 43.0029 52.9632 42.4699C52.5657 41.9338 52.1835 41.4014 51.7821 40.901C51.378 40.4119 50.9633 39.9115 50.4475 39.6178C49.9265 39.2783 49.3462 39.7048 48.8851 40.0286C48.4124 40.3862 47.9863 40.7927 47.5869 41.2054C46.7919 42.0359 46.082 42.8876 45.4431 43.7243L45.4154 43.7613L45.3703 43.7607C40.3904 43.7425 36.4685 43.7287 33.7799 43.7187C32.4475 43.7093 31.4228 43.7012 30.7201 43.6962C30.3805 43.6905 30.1201 43.6868 29.9348 43.6843C29.7584 43.6799 29.6689 43.6717 29.6689 43.6717C29.6689 43.6717 29.7584 43.6636 29.9348 43.6592C30.1201 43.6567 30.3805 43.6529 30.7201 43.6479C31.4228 43.6423 32.4475 43.6348 33.7799 43.6247C36.4685 43.6147 40.3904 43.601 45.3703 43.5828L45.2979 43.6191C45.9384 42.7711 46.6447 41.9144 47.4445 41.0714C47.8463 40.6524 48.2749 40.2391 48.7615 39.8677C49.0023 39.6804 49.2672 39.5113 49.5659 39.3848C49.7183 39.3322 49.8819 39.2771 50.0602 39.284C50.2362 39.2959 50.4051 39.3504 50.5483 39.433C51.1275 39.7631 51.5381 40.2697 51.9543 40.7658C52.3631 41.2706 52.7483 41.8035 53.1467 42.3371C53.5474 42.8651 53.9472 43.42 54.4415 43.869C54.5663 43.9755 54.6981 44.0807 54.8381 44.1364C54.9677 44.1884 55.1401 44.1928 55.2903 44.1671C55.6044 44.117 55.895 43.9191 56.1735 43.7118C56.7265 43.3054 57.2941 42.7392 58.107 42.6584C58.9126 42.6008 59.647 43.0342 60.1757 43.5759C60.4443 43.8377 60.7044 44.1032 61.0362 44.179C61.2002 44.221 61.3773 44.2097 61.5535 44.1828C61.6724 44.1746 61.8014 44.0237 61.9142 43.884C62.3589 43.2884 62.7102 42.5883 63.0667 41.8962C64.4691 39.0967 65.7306 36.0636 67.3023 33.0224C67.7056 32.2671 68.1103 31.5011 68.6526 30.7897C68.7934 30.6149 68.9386 30.4402 69.1454 30.2955C69.2462 30.2273 69.3781 30.1496 69.5589 30.1722C69.7466 30.2016 69.8507 30.3469 69.9071 30.4546C70.1113 30.8962 70.1887 31.3176 70.2965 31.7535C70.6733 33.4883 70.9441 35.2632 71.2301 37.065C71.7927 40.6699 72.3109 44.3932 72.9515 48.1916C73.1145 49.1404 73.2845 50.0936 73.4849 51.045C73.5857 51.5203 73.6936 51.9957 73.8248 52.4616C73.8927 52.6927 73.9644 52.9257 74.0583 53.1355C74.0976 53.2357 74.1749 53.351 74.1991 53.3641C74.1654 53.381 74.1807 53.4593 74.1686 53.3998L74.1559 53.386L74.1439 53.3641L74.1521 53.3547L74.213 53.2326C74.8231 51.3813 75.3121 49.4323 75.8132 47.4846C76.0631 46.5082 76.3124 45.5255 76.5838 44.5416C76.7208 44.05 76.8616 43.5577 77.0227 43.068C77.1001 42.8225 77.1895 42.5782 77.2802 42.3346C77.3823 42.0866 77.5098 41.8342 77.7102 41.625C77.9075 41.414 78.1897 41.2649 78.4808 41.2236C78.7726 41.1797 79.0599 41.223 79.3244 41.2994C79.8603 41.4497 80.3125 41.7616 80.7572 42.0021C81.6629 42.4968 82.6352 42.8789 83.6436 43.1363C84.4364 43.3398 85.2495 43.455 86.0626 43.4882C86.8643 43.5089 87.7148 43.4632 88.5051 43.4312C89.2675 43.3498 89.9594 42.8463 90.2689 42.1605C90.4193 41.8279 90.4833 41.4152 90.5911 41.0307L90.8886 39.8658C91.6897 36.7676 92.5205 33.7238 93.4573 30.7659C93.9324 29.2891 94.4201 27.8286 95.034 26.422C95.1894 26.0706 95.3556 25.7243 95.5478 25.3873C95.6448 25.2195 95.7469 25.0529 95.8706 24.8945C96 24.741 96.1199 24.5713 96.3672 24.4736C96.4858 24.4235 96.6698 24.4354 96.7814 24.5212C96.8879 24.6007 96.9621 24.6972 97.0091 24.7905C97.1099 24.9803 97.167 25.165 97.219 25.3498C97.3237 25.7187 97.3979 26.0875 97.467 26.4564C97.9681 29.4087 98.1964 32.3153 98.4558 35.1486C98.9429 40.8165 99.2974 46.2107 99.7535 51.2454C99.8708 52.5036 99.9913 53.7405 100.152 54.9467C100.236 55.5467 100.317 56.1511 100.473 56.7097C100.492 56.7799 100.519 56.8431 100.543 56.9051L100.584 56.9803L100.598 56.9984L100.567 57.0485L100.539 56.9978L100.549 56.9815L100.594 56.9039L100.689 56.7085C100.81 56.4429 100.919 56.1699 101.023 55.8968C101.839 53.6992 102.535 51.5466 103.32 49.5375C104.11 47.534 104.901 45.617 106.036 44.0037C106.325 43.6066 106.649 43.2327 107.043 42.9383C107.238 42.7887 107.464 42.6766 107.704 42.6033C107.938 42.5544 108.167 42.4962 108.401 42.4705C109.331 42.3352 110.276 42.4705 111.075 42.8319C111.881 43.1745 112.572 43.658 113.326 43.8859C114.082 44.0851 114.873 44.06 115.606 44.1001C117.086 44.1377 118.44 44.1358 119.658 44.1295C122.087 44.0995 123.975 44.0757 125.268 44.0594C125.902 44.05 126.388 44.0425 126.727 44.0368C127.055 44.0331 127.224 44.0394 127.224 44.0394Z" fill="#E3E3E2"/>
<path d="M332.465 168.342L326.714 167.182C325.383 166.913 324.526 165.63 324.797 164.317L338.292 99.1415L348.86 101.275L335.366 166.451C335.094 167.764 333.795 168.611 332.465 168.342Z" fill="#E3E3E2"/>
<path d="M333.892 161.447L328.142 160.287C326.811 160.018 325.954 158.736 326.225 157.422L335.921 110.596L346.489 112.729L336.793 159.556C336.522 160.869 335.223 161.716 333.892 161.447Z" fill="#F8F8F9"/>
<path d="M341.074 138.882L334.028 137.46L340.441 106.49L347.486 107.913L341.074 138.882Z" fill="white"/>
<path d="M332.465 168.342C332.458 168.299 332.97 168.514 333.846 168.194C334.264 168.023 334.764 167.686 335.079 167.096C335.243 166.804 335.318 166.457 335.39 166.074C335.467 165.693 335.548 165.288 335.633 164.859C336.335 161.415 337.348 156.436 338.607 150.249C341.159 137.856 344.707 120.63 348.7 101.242L348.827 101.434C346.225 100.909 343.465 100.352 340.671 99.7882C339.845 99.6216 339.022 99.455 338.259 99.301L338.454 99.1745C334.145 119.888 330.268 138.527 327.465 152C326.76 155.363 326.122 158.405 325.562 161.076C325.421 161.743 325.286 162.387 325.155 163.007C325.089 163.317 325.026 163.621 324.962 163.919C324.903 164.22 324.823 164.503 324.826 164.785C324.82 165.353 325.028 165.886 325.352 166.29C325.685 166.689 326.125 166.966 326.583 167.083C328.47 167.481 329.939 167.79 330.948 168.003C331.438 168.109 331.815 168.19 332.082 168.248C332.336 168.305 332.465 168.342 332.465 168.342C332.465 168.342 332.332 168.327 332.075 168.28C331.806 168.23 331.428 168.158 330.934 168.066C329.921 167.867 328.447 167.577 326.55 167.204C326.067 167.085 325.598 166.797 325.244 166.377C324.895 165.953 324.669 165.388 324.671 164.784C324.666 164.479 324.749 164.182 324.804 163.887C324.865 163.588 324.927 163.284 324.99 162.973C325.116 162.353 325.247 161.708 325.383 161.04C325.93 158.366 326.552 155.322 327.24 151.955C330.017 138.477 333.859 119.83 338.13 99.1087L338.163 98.949L338.325 98.9822C339.088 99.1357 339.911 99.3016 340.737 99.4688C343.531 100.033 346.29 100.59 348.893 101.116L349.055 101.149L349.021 101.308C344.987 120.686 341.403 137.906 338.824 150.293C337.524 156.471 336.476 161.443 335.752 164.883C335.661 165.311 335.575 165.715 335.495 166.095C335.42 166.471 335.335 166.841 335.16 167.14C334.824 167.748 334.302 168.085 333.868 168.251C333.425 168.413 333.058 168.421 332.821 168.401C332.582 168.381 332.465 168.342 332.465 168.342Z" fill="#E3E3E2"/>
<path d="M349.493 104.589L336.589 101.984L339.782 86.5587C339.924 85.8767 340.599 85.4364 341.289 85.5761L351.692 87.676C352.383 87.8151 352.828 88.4814 352.687 89.1641L349.493 104.589Z" fill="#EEEEEE"/>
<path d="M349.724 102.94C349.707 103.028 346.794 102.515 343.221 101.793C339.647 101.072 336.765 100.415 336.783 100.328C336.801 100.239 339.713 100.752 343.287 101.474C346.861 102.195 349.743 102.852 349.724 102.94Z" fill="#E3E3E2"/>
<path d="M338.021 100.447C337.932 100.43 338.537 97.1429 339.373 93.1071C340.208 89.0701 340.959 85.8134 341.047 85.8316C341.137 85.8498 340.532 89.1359 339.697 93.1723C338.861 97.2081 338.112 100.465 338.021 100.447Z" fill="#E3E3E2"/>
<path d="M339.757 100.797C339.668 100.78 340.273 97.493 341.108 93.4572C341.944 89.4202 342.694 86.1635 342.783 86.1817C342.872 86.1998 342.267 89.4859 341.432 93.523C340.596 97.5581 339.846 100.815 339.757 100.797Z" fill="#E3E3E2"/>
<path d="M341.545 101.159C341.455 101.14 342.06 97.8537 342.896 93.8179C343.732 89.7815 344.481 86.5242 344.571 86.5424C344.66 86.5605 344.055 89.8467 343.219 93.8837C342.384 97.9188 341.634 101.177 341.545 101.159Z" fill="#E3E3E2"/>
<path d="M343.279 101.509C343.189 101.491 343.795 98.2038 344.63 94.1687C345.466 90.1316 346.216 86.875 346.305 86.8931C346.395 86.9113 345.79 90.1968 344.954 94.2338C344.118 98.2696 343.369 101.527 343.279 101.509Z" fill="#E3E3E2"/>
<path d="M345.066 101.87C344.977 101.852 345.583 98.5653 346.418 94.5295C347.254 90.4925 348.003 87.2358 348.093 87.254C348.182 87.2721 347.577 90.5582 346.741 94.5953C345.906 98.6304 345.156 101.888 345.066 101.87Z" fill="#E3E3E2"/>
<path d="M346.802 102.22C346.712 102.202 347.317 98.9152 348.153 94.8795C348.989 90.8424 349.739 87.5857 349.828 87.6039C349.917 87.6221 349.313 90.9082 348.476 94.9452C347.641 98.9804 346.891 102.238 346.802 102.22Z" fill="#E3E3E2"/>
<path d="M348.59 102.581C348.5 102.563 349.106 99.2761 349.941 95.2409C350.777 91.2039 351.526 87.9472 351.616 87.9654C351.705 87.9835 351.1 91.269 350.265 95.3061C349.429 99.3418 348.679 102.599 348.59 102.581Z" fill="#E3E3E2"/>
<path d="M372.348 183.442L368.785 183.766C367.433 183.888 366.236 182.906 366.112 181.571L361.297 129.92L369.756 129.152L374.571 180.803C374.695 182.137 373.7 183.319 372.348 183.442Z" fill="#E3E3E2"/>
<path d="M371.834 177.924L368.271 178.247C366.919 178.37 365.722 177.388 365.598 176.053L362.151 139.088L370.61 138.319L374.056 175.284C374.18 176.618 373.185 177.801 371.834 177.924Z" fill="#F8F8F9"/>
<path d="M372.561 159.251L366.922 159.764L364.611 134.977L370.25 134.464L372.561 159.251Z" fill="white"/>
<path d="M372.348 183.442C372.338 183.412 372.757 183.441 373.388 183.067C373.694 182.879 374.039 182.566 374.275 182.095C374.393 181.861 374.481 181.589 374.512 181.289C374.549 180.99 374.496 180.669 374.465 180.322C374.194 177.545 373.803 173.541 373.318 168.569C372.375 158.592 371.065 144.737 369.591 129.166L369.771 129.313C367.855 129.487 365.821 129.673 363.763 129.86C362.924 129.936 362.088 130.012 361.313 130.082L361.462 129.906C362.97 146.307 364.326 161.045 365.307 171.697C365.545 174.357 365.761 176.76 365.951 178.872C366.05 179.923 366.121 180.917 366.223 181.802C366.393 182.673 367.04 183.321 367.727 183.564C368.421 183.841 369.106 183.659 369.681 183.637C370.254 183.591 370.743 183.551 371.142 183.519C371.526 183.491 371.825 183.469 372.041 183.454C372.244 183.44 372.348 183.442 372.348 183.442C372.348 183.442 372.246 183.462 372.044 183.486C371.829 183.509 371.531 183.542 371.148 183.583C370.749 183.623 370.262 183.673 369.69 183.73C369.4 183.759 369.089 183.789 368.757 183.822C368.417 183.851 368.047 183.811 367.684 183.68C366.957 183.434 366.263 182.758 366.073 181.832C365.956 180.917 365.88 179.945 365.771 178.889C365.568 176.778 365.335 174.376 365.079 171.718C364.073 161.068 362.681 146.334 361.132 129.936L361.117 129.773L361.282 129.758C362.057 129.688 362.893 129.611 363.733 129.535C365.79 129.348 367.825 129.164 369.74 128.99L369.905 128.975L369.919 129.137C371.35 144.712 372.624 158.569 373.54 168.549C373.982 173.524 374.339 177.532 374.585 180.31C374.611 180.653 374.662 180.986 374.619 181.3C374.582 181.614 374.484 181.895 374.358 182.135C374.103 182.62 373.74 182.936 373.42 183.12C373.097 183.308 372.818 183.379 372.633 183.414C372.445 183.442 372.348 183.442 372.348 183.442Z" fill="#E3E3E2"/>
<path d="M370.997 131.507L360.668 132.446L359.543 120.368C359.477 119.674 359.995 119.06 360.697 118.996L368.481 118.289C369.184 118.225 369.806 118.736 369.871 119.429L370.997 131.507Z" fill="#EEEEEE"/>
<path d="M370.791 130.212C370.799 130.302 368.486 130.586 365.626 130.845C362.766 131.105 360.441 131.244 360.433 131.154C360.424 131.065 362.736 130.781 365.597 130.52C368.456 130.26 370.782 130.123 370.791 130.212Z" fill="#E3E3E2"/>
<path d="M361.395 130.966C361.304 130.975 360.986 128.362 360.684 125.132C360.383 121.902 360.213 119.276 360.304 119.268C360.394 119.26 360.712 121.872 361.014 125.103C361.315 128.332 361.485 130.958 361.395 130.966Z" fill="#E3E3E2"/>
<path d="M362.783 130.84C362.692 130.848 362.374 128.236 362.073 125.006C361.772 121.775 361.602 119.15 361.692 119.142C361.783 119.133 362.101 121.745 362.401 124.976C362.703 128.206 362.874 130.832 362.783 130.84Z" fill="#E3E3E2"/>
<path d="M364.214 130.709C364.123 130.718 363.805 128.105 363.504 124.876C363.203 121.645 363.032 119.02 363.123 119.012C363.214 119.003 363.532 121.615 363.833 124.846C364.134 128.076 364.304 130.702 364.214 130.709Z" fill="#E3E3E2"/>
<path d="M365.602 130.583C365.512 130.592 365.194 127.979 364.892 124.75C364.591 121.519 364.421 118.894 364.512 118.885C364.602 118.877 364.92 121.489 365.222 124.72C365.522 127.949 365.693 130.575 365.602 130.583Z" fill="#E3E3E2"/>
<path d="M367.033 130.453C366.942 130.462 366.625 127.849 366.323 124.619C366.022 121.388 365.852 118.763 365.942 118.755C366.034 118.747 366.351 121.359 366.653 124.589C366.953 127.82 367.124 130.445 367.033 130.453Z" fill="#E3E3E2"/>
<path d="M368.422 130.327C368.331 130.335 368.013 127.723 367.712 124.493C367.411 121.262 367.24 118.637 367.331 118.629C367.422 118.621 367.739 121.232 368.041 124.463C368.342 127.693 368.512 130.318 368.422 130.327Z" fill="#E3E3E2"/>
<path d="M369.854 130.197C369.762 130.206 369.444 127.593 369.143 124.363C368.843 121.132 368.672 118.507 368.763 118.499C368.853 118.491 369.171 121.102 369.472 124.333C369.774 127.563 369.944 130.189 369.854 130.197Z" fill="#E3E3E2"/>
<path d="M116.089 84.1506C114.971 79.2556 110.261 75.0495 105.204 75.5398C102.217 75.8298 99.5312 77.6492 97.7052 80.0015C96.9066 81.0311 96.3637 81.7776 95.9445 82.5329C95.5259 81.777 94.9836 81.0299 94.1864 79.9996C92.3629 77.6454 89.6794 75.8236 86.6921 75.5305C81.6353 75.0344 76.9222 79.2362 75.7983 84.13C74.6738 89.0237 76.5372 94.2138 79.593 98.2232C82.6482 102.233 87.7329 107.368 96.3485 109.322C102.024 108.034 109.219 102.247 112.28 98.2402C115.339 94.2338 117.208 89.0463 116.089 84.1506Z" fill="#E3E3E2"/>
<path d="M115.157 93.2299C115.157 93.2361 115.101 93.2418 114.99 93.2474C114.86 93.2518 114.698 93.2574 114.5 93.2643C114.04 93.2712 113.41 93.2819 112.612 93.295C110.944 93.3069 108.58 93.3238 105.672 93.3445L105.788 93.2574C105.172 95.4732 104.451 98.0686 103.66 100.914L103.532 101.376L103.372 100.923C102.141 97.4285 100.761 93.513 99.3068 89.3864C98.8591 88.1088 98.4183 86.8512 97.9876 85.6243L98.2844 85.6525C96.669 88.3737 95.1411 90.9471 93.7483 93.2931L93.7045 93.3664H93.6196C88.6249 93.3395 84.409 93.3169 81.4091 93.3007C79.9458 93.2819 78.7807 93.2681 77.9505 93.2574C77.5706 93.2474 77.2674 93.2399 77.0353 93.2343C76.8279 93.2261 76.7207 93.218 76.7207 93.2098C76.7207 93.2023 76.8279 93.1942 77.0353 93.1867C77.2674 93.181 77.5706 93.1735 77.9511 93.1641C78.7807 93.1547 79.9458 93.1416 81.4097 93.1247C84.409 93.1115 88.6249 93.0934 93.6196 93.0721L93.4908 93.1447C94.8754 90.7943 96.395 88.2152 98.0009 85.4896L98.1811 85.184L98.2978 85.5178C98.729 86.7447 99.1711 88.0023 99.6202 89.2793C101.064 93.409 102.434 97.3283 103.657 100.825L103.37 100.835C104.182 97.9947 104.922 95.405 105.555 93.1936L105.58 93.1053L105.672 93.1059C108.581 93.1297 110.945 93.1491 112.613 93.1629C113.41 93.1766 114.04 93.1879 114.5 93.1954C114.698 93.203 114.86 93.208 114.99 93.213C115.101 93.2186 115.157 93.2242 115.157 93.2299Z" fill="#FCFDFD"/>
<path d="M196.834 63.0123L194.663 118.323L166.617 117.426C166.289 114.212 165.925 101.739 165.925 101.739C165.925 101.739 154.214 100.497 153.521 89.0269C153.184 83.4567 153.439 71.8986 153.791 61.4823C154.181 49.9254 163.844 40.7967 175.554 40.9245C187.68 41.0572 197.304 51.0465 196.834 63.0123Z" fill="#F9AD95"/>
<path d="M165.912 101.768C165.912 101.768 173.287 102.014 180.861 96.8074C180.861 96.8074 177.675 105.235 166.028 104.742L165.912 101.768Z" fill="#F6865E"/>
<path d="M157.604 69.7056C157.614 70.573 158.367 71.2789 159.284 71.2851C160.199 71.2908 160.934 70.5943 160.923 69.7275C160.913 68.8601 160.161 68.1531 159.246 68.1474C158.329 68.1412 157.593 68.8389 157.604 69.7056Z" fill="#1D2A30"/>
<path d="M156.567 67.3431C156.784 67.5473 157.997 66.5697 159.784 66.4908C161.567 66.3868 162.921 67.2329 163.104 67.0081C163.195 66.9079 162.967 66.5321 162.376 66.1482C161.795 65.7655 160.817 65.4129 159.706 65.4699C158.593 65.5281 157.676 65.9759 157.158 66.415C156.629 66.8571 156.461 67.2523 156.567 67.3431Z" fill="#1D2A30"/>
<path d="M174.526 69.6506C174.537 70.5174 175.289 71.2232 176.206 71.2295C177.121 71.2351 177.857 70.5387 177.846 69.6713C177.836 68.8045 177.083 68.0974 176.168 68.0912C175.251 68.0855 174.516 68.7832 174.526 69.6506Z" fill="#1D2A30"/>
<path d="M174.14 66.8519C174.357 67.0561 175.571 66.0784 177.357 65.9995C179.14 65.8956 180.494 66.7423 180.678 66.5168C180.768 66.4166 180.542 66.0409 179.949 65.6576C179.368 65.2743 178.391 64.9223 177.279 64.9787C176.166 65.0363 175.25 65.4847 174.731 65.9237C174.203 66.3659 174.035 66.7611 174.14 66.8519Z" fill="#1D2A30"/>
<path d="M168.284 80.2355C168.287 80.1346 167.169 79.9975 165.358 79.8541C164.9 79.829 164.464 79.7595 164.372 79.4558C164.249 79.1357 164.417 78.641 164.613 78.1067C164.99 76.997 165.384 75.8333 165.797 74.6139C167.437 69.6437 168.6 65.5654 168.397 65.5021C168.194 65.4382 166.7 69.4158 165.061 74.386C164.668 75.6116 164.292 76.779 163.934 77.8969C163.786 78.4167 163.517 79.0105 163.782 79.6749C163.921 80.0063 164.268 80.2348 164.564 80.2987C164.86 80.3733 165.117 80.3657 165.343 80.3689C167.158 80.3802 168.282 80.3363 168.284 80.2355Z" fill="#1D2A30"/>
<path d="M173.6 81.2095C173.309 81.2064 173.396 83.121 171.803 84.557C170.211 85.9981 168.134 85.8797 168.131 86.1478C168.111 86.2693 168.61 86.4985 169.483 86.481C170.341 86.4703 171.577 86.1403 172.552 85.2616C173.525 84.3811 173.907 83.2487 173.935 82.4602C173.971 81.6561 173.732 81.192 173.6 81.2095Z" fill="#1D2A30"/>
<path d="M173.347 59.962C173.546 60.4329 175.319 60.1223 177.426 60.2738C179.538 60.3834 181.256 60.9108 181.514 60.4674C181.627 60.2557 181.312 59.8185 180.606 59.3858C179.907 58.9543 178.805 58.5641 177.54 58.4845C176.276 58.4075 175.133 58.6586 174.385 59.0006C173.63 59.3432 173.261 59.7377 173.347 59.962Z" fill="#1D2A30"/>
<path d="M156.979 62.2081C157.312 62.5939 158.522 62.1205 160.001 62.0315C161.477 61.8919 162.746 62.1737 163.015 61.7409C163.131 61.5318 162.915 61.1397 162.349 60.7859C161.793 60.4333 160.875 60.1671 159.86 60.2441C158.845 60.3237 157.981 60.7276 157.486 61.1623C156.983 61.5981 156.831 62.019 156.979 62.2081Z" fill="#1D2A30"/>
<path d="M183.626 51.2095L183.692 51.2565C185.612 52.613 186.935 54.644 187.371 56.9356C187.386 57.0158 187.4 57.0928 187.414 57.1655C188.025 60.4178 188.102 63.7521 188.746 66.9981C189.389 70.2448 190.695 73.5171 193.251 75.6553C194.303 76.5352 196.114 77.0894 196.89 75.9653C197.19 75.53 197.216 74.972 197.232 74.4453C197.473 66.5121 199.323 59.3969 198.912 51.1324C198.8 48.8828 197.627 46.8211 195.712 45.598C193.9 44.4393 191.699 43.2532 189.795 44.2546C187.886 45.2585 185.54 48.9743 184.104 50.5707" fill="#1D2A30"/>
<path d="M193.179 68.5814C193.373 68.4875 201.054 65.8759 201.175 73.7345C201.298 81.5925 193.282 80.0932 193.265 79.8677C193.248 79.6429 193.179 68.5814 193.179 68.5814Z" fill="#F9AD95"/>
<path d="M195.65 76.8538C195.684 76.8281 195.79 76.9471 196.026 77.0498C196.256 77.1494 196.65 77.2151 197.062 77.0554C197.899 76.7373 198.586 75.4089 198.603 73.9917C198.612 73.2764 198.449 72.5975 198.184 72.0377C197.932 71.4665 197.549 71.0707 197.125 71.003C196.702 70.9128 196.406 71.1677 196.312 71.3901C196.21 71.6118 196.262 71.7677 196.22 71.7821C196.198 71.8022 196.047 71.6531 196.107 71.3274C196.137 71.1709 196.227 70.9836 196.412 70.8302C196.601 70.6736 196.88 70.5915 197.176 70.6185C197.79 70.651 198.351 71.2003 198.643 71.8153C198.968 72.4316 199.168 73.1944 199.158 73.9979C199.131 75.5824 198.333 77.0767 197.188 77.4224C196.63 77.5746 196.161 77.4156 195.917 77.2333C195.667 77.0429 195.622 76.8682 195.65 76.8538Z" fill="#F6865E"/>
<path d="M190.994 46.6631C193.287 43.749 188.448 38.688 184.679 37.0521C180.91 35.4163 175.561 36.7409 171.536 37.5945C168.996 38.1331 166.431 38.9893 163.862 38.606C162.14 38.3492 160.558 37.55 158.988 36.8041C157.419 36.0589 155.778 35.343 154.038 35.2729C152.298 35.2034 150.418 35.9186 149.588 37.4304C148.757 38.9423 149.457 41.2119 151.146 41.6322C149.088 40.2086 145.75 41.428 145.124 43.8304C144.499 46.2335 146.827 48.8908 149.325 48.6271C148.293 47.6645 146.416 48.8689 146.401 50.2705C146.387 51.6721 147.548 52.8182 148.779 53.5178C151.918 55.3033 155.814 55.2608 159.353 54.4948C162.892 53.7282 166.253 52.3022 169.772 51.4486C173.29 50.5949 179.2 49.0205 182.466 50.5693C184.871 51.7097 186.283 54.8718 187.767 54.3677C189.203 53.8798 190.224 52.5615 190.659 51.1254C191.093 49.6893 191.046 48.1612 190.994 46.6631Z" fill="#1D2A30"/>
<path d="M151.569 42.2017C151.578 42.2199 151.42 42.2743 151.17 42.4485C150.919 42.6169 150.583 42.9388 150.356 43.4656C150.126 43.9829 150.006 44.7087 150.184 45.4991C150.341 46.2939 150.902 47.0942 151.779 47.6372C152.651 48.1802 153.786 48.4708 155.005 48.5078C156.225 48.5253 157.541 48.3456 158.863 47.9529C161.531 47.1901 164.18 45.6306 166.967 44.0467C169.756 42.4691 172.609 41.1383 175.432 40.802C176.835 40.6466 178.201 40.7074 179.417 41.045C180.635 41.3644 181.694 41.898 182.561 42.5105C184.304 43.7405 185.307 45.1972 185.81 46.25C186.323 47.3109 186.425 47.9591 186.425 47.9591C186.387 47.9717 186.237 47.336 185.696 46.3076C185.165 45.2862 184.149 43.8783 182.427 42.6996C181.572 42.1128 180.533 41.6055 179.347 41.3061C178.166 40.9905 176.836 40.941 175.47 41.1001C172.718 41.4439 169.907 42.7585 167.131 44.3304C164.35 45.9087 161.672 47.4794 158.949 48.2416C157.597 48.6336 156.254 48.809 154.995 48.7783C153.739 48.7282 152.563 48.4157 151.652 47.8308C151.201 47.5358 150.822 47.1794 150.538 46.7849C150.254 46.3872 150.089 45.9513 150.003 45.5367C149.834 44.7012 149.98 43.9472 150.239 43.4136C150.496 42.8706 150.863 42.5487 151.133 42.394C151.403 42.2324 151.569 42.2017 151.569 42.2017Z" fill="#365462"/>
<path d="M179.688 38.2339C179.688 38.2139 179.871 38.1995 180.203 38.2189C180.534 38.2371 181.012 38.3041 181.586 38.4625C182.727 38.7681 184.27 39.5372 185.452 40.9357C186.632 42.3361 187.12 43.9732 187.219 45.1362C187.272 45.7224 187.253 46.199 187.212 46.5241C187.171 46.8491 187.124 47.0245 187.104 47.0219C187.044 47.0169 187.151 46.298 186.986 45.1638C186.832 44.0396 186.327 42.4839 185.198 41.1443C184.068 39.8072 182.609 39.0362 181.517 38.683C180.417 38.3191 179.681 38.2934 179.688 38.2339Z" fill="#365462"/>
<path d="M198.748 58.3649C198.755 58.378 198.539 58.4964 198.101 58.5459C197.668 58.5997 197.006 58.5246 196.307 58.1613C195.606 57.8113 194.891 57.1411 194.407 56.2362C193.905 55.3387 193.6 54.2571 193.314 53.1423C193.029 52.0288 192.73 50.9766 192.254 50.1192C191.792 49.2531 191.134 48.6324 190.475 48.2898C189.821 47.9391 189.203 47.8508 188.79 47.8771C188.372 47.899 188.146 47.9823 188.137 47.9529C188.13 47.9404 188.342 47.8139 188.777 47.7506C189.209 47.683 189.873 47.7394 190.583 48.0844C191.292 48.417 192.024 49.0733 192.52 49.9733C193.035 50.8651 193.348 51.9461 193.635 53.0615C193.92 54.1757 194.21 55.2297 194.675 56.094C195.125 56.9664 195.769 57.5996 196.419 57.9597C197.065 58.3267 197.679 58.4319 198.093 58.4194C198.512 58.4112 198.74 58.3355 198.748 58.3649Z" fill="#365462"/>
<path d="M198.332 63.5587C198.333 63.57 198.266 63.5875 198.137 63.6119C198.007 63.6357 197.815 63.6739 197.564 63.6858C197.064 63.7265 196.326 63.7184 195.444 63.5242C193.691 63.1698 191.33 61.9297 189.757 59.6569C188.165 57.4086 187.605 54.9291 187.415 53.1868C187.366 52.7459 187.339 52.3557 187.232 52.0357C187.134 51.7138 186.957 51.4802 186.772 51.3323C186.392 51.0317 186.08 51.1131 186.087 51.08C186.067 51.0718 186.398 50.9315 186.849 51.2309C187.065 51.3743 187.284 51.6323 187.407 51.9768C187.539 52.3181 187.584 52.7277 187.646 53.1574C187.893 54.8721 188.482 57.2877 190.028 59.4697C191.551 61.6711 193.806 62.8961 195.498 63.3C197.213 63.7284 198.332 63.481 198.332 63.5587Z" fill="#365462"/>
<path d="M142.693 261.942L232.741 261.366L223.653 207.619L222.071 115.213L204.114 109.783L195.193 104.836L165.972 108.49L162.22 113.187C162.22 113.187 149.434 117.447 143.899 119.942C143.771 119.999 143.646 120.056 143.523 120.112C139.599 121.88 136.278 124.725 133.948 128.308L109.597 165.766L73.952 145.241L61.3662 163.306C61.3662 163.306 105.106 199.284 113.062 198.548C121.019 197.812 123.754 197.812 126.489 194.128C128.59 191.299 136.844 181.71 140.776 175.302L144.787 219.571L142.693 261.942Z" fill="#EEEEEE"/>
<path d="M171.222 262C171.13 262.003 170.409 242.308 169.611 218.016C168.811 193.715 168.238 174.02 168.329 174.016C168.42 174.014 169.141 193.704 169.94 218.005C170.74 242.297 171.313 261.997 171.222 262Z" fill="#1D2A30"/>
<path d="M166.111 108.126L168.374 175.351L195.193 104.836L166.111 108.126Z" fill="#F9AD95"/>
<path d="M168.584 179.14C168.579 179.141 168.549 179.073 168.496 178.936C168.437 178.785 168.359 178.585 168.26 178.331C168.043 177.782 167.735 177.004 167.343 176.011C166.528 174.002 165.324 171.104 163.661 167.603C162.816 165.86 161.864 163.962 160.732 161.986C159.578 160.029 158.284 157.94 156.522 156.094C155.638 155.19 154.578 154.246 154.198 152.864C154.01 152.181 154.085 151.453 154.254 150.781C154.425 150.104 154.666 149.458 154.881 148.795C155.764 146.151 156.679 143.413 157.616 140.609L157.673 140.437L157.845 140.651C154.093 140.986 150.456 141.311 147.056 141.615L147.026 141.3C149.101 137.242 151.038 133.453 152.778 130.048C154.549 126.614 156.151 123.589 157.525 121.096C158.899 118.602 160.046 116.64 160.869 115.316C161.28 114.652 161.608 114.146 161.837 113.81C161.945 113.653 162.032 113.528 162.099 113.429C162.16 113.345 162.192 113.303 162.196 113.305C162.201 113.308 162.176 113.355 162.123 113.444C162.062 113.546 161.983 113.677 161.885 113.84C161.665 114.205 161.357 114.716 160.963 115.371C160.169 116.711 159.052 118.686 157.704 121.191C156.355 123.695 154.776 126.73 153.024 130.171C152.152 131.895 151.231 133.716 150.269 135.621C149.787 136.574 149.295 137.547 148.794 138.54C148.541 139.035 148.285 139.536 148.026 140.041C147.894 140.292 147.761 140.544 147.627 140.798L147.418 141.177C147.381 141.241 147.348 141.303 147.305 141.369L147.243 141.465C147.245 141.484 147.128 141.599 147.056 141.615L147.026 141.3C150.427 140.993 154.064 140.665 157.815 140.326L158.066 140.304L157.987 140.54L157.929 140.711C156.99 143.515 156.074 146.252 155.188 148.895C154.772 150.208 154.166 151.524 154.504 152.787C154.84 154.046 155.85 154.976 156.739 155.884C158.533 157.775 159.819 159.879 160.97 161.852C162.097 163.843 163.039 165.752 163.873 167.505C165.511 171.026 166.684 173.941 167.462 175.965C167.847 176.978 168.137 177.769 168.323 178.309C168.415 178.58 168.487 178.785 168.528 178.926C168.57 179.066 168.589 179.138 168.584 179.14Z" fill="#1D2A30"/>
<path d="M168.49 179.774C168.485 179.773 168.493 179.7 168.514 179.555C168.54 179.396 168.574 179.185 168.617 178.917C168.68 178.347 168.939 177.541 169.286 176.512C170.026 174.465 171.495 171.655 173.64 168.382C174.722 166.751 175.963 164.997 177.367 163.161C178.776 161.334 180.299 159.371 182.121 157.491C183.929 155.604 185.928 153.692 188.247 151.996C189.403 151.143 190.637 150.351 191.919 149.601C193.2 148.85 194.521 148.131 195.788 147.299L195.742 147.523C195.183 146.705 194.524 145.868 193.778 145.099C192.352 143.606 190.691 142.382 188.926 141.458L188.697 141.339L188.904 141.186C193.094 138.091 197.835 136.307 202.239 135.62L202.115 135.754C202.681 128.085 203.158 121.626 203.495 117.065C203.672 114.808 203.812 113.021 203.91 111.778C203.962 111.181 204.002 110.715 204.032 110.381C204.047 110.233 204.059 110.116 204.069 110.022C204.079 109.942 204.086 109.901 204.089 109.901C204.094 109.902 204.094 109.943 204.093 110.023C204.089 110.119 204.085 110.236 204.079 110.384C204.061 110.719 204.036 111.186 204.003 111.784C203.925 113.028 203.813 114.817 203.671 117.077C203.363 121.64 202.928 128.102 202.41 135.774L202.403 135.89L202.286 135.908C197.928 136.604 193.241 138.38 189.101 141.445L189.079 141.172C190.876 142.111 192.567 143.355 194.018 144.874C194.777 145.657 195.447 146.51 196.017 147.343L196.109 147.478L195.971 147.568C194.688 148.411 193.36 149.132 192.085 149.878C190.808 150.623 189.585 151.406 188.438 152.248C186.135 153.925 184.144 155.821 182.338 157.693C180.519 159.557 178.997 161.501 177.578 163.32C176.169 165.145 174.921 166.886 173.829 168.504C171.666 171.752 170.173 174.533 169.402 176.555C169.04 177.57 168.762 178.367 168.68 178.928C168.624 179.193 168.58 179.402 168.546 179.56C168.514 179.702 168.495 179.775 168.49 179.774Z" fill="#1D2A30"/>
<path d="M202.605 162.913H183.663V159.275H202.605V162.913Z" fill="#1D2A30"/>
<path d="M198.326 192.052C198.328 192.063 198.217 192.094 198.002 192.144C197.751 192.197 197.44 192.262 197.062 192.342C196.244 192.499 195.054 192.73 193.558 192.838C192.072 192.935 190.23 192.908 188.34 192.221C186.467 191.563 184.563 190.166 183.525 188.092C182.483 186.032 182.254 183.818 182.211 181.875C182.215 179.914 182.276 178.175 182.281 176.699C182.3 175.226 182.333 174.034 182.376 173.211C182.397 172.799 182.419 172.48 182.439 172.264C182.459 172.048 182.474 171.934 182.486 171.934C182.497 171.935 182.503 172.049 182.505 172.267C182.505 172.52 182.505 172.833 182.505 173.214C182.507 174.085 182.51 175.264 182.514 176.7C182.515 178.186 182.515 179.934 182.515 181.868C182.573 183.789 182.813 185.959 183.82 187.945C184.818 189.937 186.632 191.282 188.446 191.939C190.272 192.622 192.072 192.675 193.544 192.608C195.025 192.53 196.216 192.335 197.041 192.217C197.423 192.162 197.736 192.116 197.99 192.079C198.209 192.051 198.324 192.04 198.326 192.052Z" fill="#1D2A30"/>
<path d="M201.75 171.494C201.752 171.584 197.441 171.755 192.122 171.878C186.801 171.999 182.487 172.025 182.485 171.934C182.483 171.844 186.794 171.673 192.114 171.551C197.433 171.43 201.748 171.404 201.75 171.494Z" fill="#1D2A30"/>
<path d="M192.367 171.623V165.416C192.367 164.41 193.194 163.593 194.213 163.593C195.233 163.593 196.06 164.41 196.06 165.416V175.645C196.06 176.427 194.866 176.513 194.792 175.735C194.784 175.657 194.78 175.574 194.78 175.487C194.78 173.929 194.604 171.547 194.604 171.547L192.367 171.623Z" fill="#F03658"/>
<path d="M192.04 182.345C191.949 182.345 191.875 180.389 191.875 177.977C191.875 175.564 191.949 173.608 192.04 173.608C192.132 173.608 192.205 175.564 192.205 177.977C192.205 180.389 192.132 182.345 192.04 182.345Z" fill="#1D2A30"/>
<path d="M195.62 190.468C195.528 190.468 195.454 187.344 195.454 183.492C195.454 179.638 195.528 176.515 195.62 176.515C195.71 176.515 195.785 179.638 195.785 183.492C195.785 187.344 195.71 190.468 195.62 190.468Z" fill="#1D2A30"/>
<path d="M166.587 122.266L175.4 132.884C181.617 126.684 186.089 120.56 190.007 117.874C190.007 117.874 168.407 176.322 168.374 175.35C168.341 174.379 166.587 122.266 166.587 122.266Z" fill="#F03658"/>
<path d="M190.008 117.874C190.015 117.883 189.938 117.967 189.786 118.119C189.604 118.294 189.379 118.51 189.106 118.773C188.508 119.331 187.657 120.155 186.617 121.182C184.533 123.235 181.762 126.173 178.732 129.451C175.701 132.731 172.896 135.652 170.766 137.666C169.702 138.674 168.826 139.474 168.2 140.005C167.91 140.249 167.671 140.45 167.478 140.614C167.31 140.75 167.219 140.818 167.211 140.809C167.204 140.801 167.281 140.717 167.433 140.565C167.615 140.389 167.84 140.174 168.113 139.911C168.711 139.353 169.561 138.529 170.602 137.501C172.686 135.45 175.457 132.51 178.488 129.231C181.518 125.953 184.323 123.032 186.453 121.018C187.517 120.01 188.393 119.209 189.019 118.68C189.309 118.435 189.548 118.234 189.741 118.07C189.909 117.934 190 117.866 190.008 117.874Z" fill="#1D2A30"/>
<path d="M175.343 132.841C175.272 132.898 173.255 130.577 170.838 127.658C168.42 124.737 166.517 122.324 166.588 122.267C166.658 122.21 168.675 124.53 171.094 127.451C173.511 130.371 175.413 132.784 175.343 132.841Z" fill="#1D2A30"/>
<path d="M137.895 142.57C137.906 142.569 137.933 142.719 137.973 143.008C138.013 143.328 138.067 143.747 138.133 144.269C138.265 145.364 138.437 146.952 138.636 148.915C139.034 152.841 139.515 158.271 140.009 164.271C140.507 170.255 140.956 175.67 141.286 179.634C141.452 181.572 141.587 183.152 141.684 184.288C141.724 184.813 141.757 185.234 141.782 185.555C141.8 185.845 141.805 185.998 141.793 186C141.782 186.001 141.755 185.85 141.715 185.562C141.675 185.241 141.622 184.823 141.556 184.301C141.423 183.206 141.252 181.618 141.053 179.655C140.654 175.729 140.174 170.299 139.68 164.297C139.182 158.315 138.733 152.9 138.403 148.936C138.237 146.999 138.102 145.418 138.004 144.281C137.964 143.757 137.932 143.336 137.907 143.014C137.888 142.724 137.883 142.572 137.895 142.57Z" fill="#1D2A30"/>
<path d="M220.785 115.084C220.785 115.084 234.904 115.097 238.445 141.903C241.986 168.709 249.775 217.892 235.612 227.215C221.449 236.539 155.91 235.882 155.91 235.882V209.904L209.704 204.044C209.704 204.044 209.498 199.209 212.243 199.244L209.174 137.941C209.174 137.941 208.555 116.235 220.785 115.084Z" fill="#EEEEEE"/>
<path d="M209.309 158.315C209.309 158.315 209.335 158.567 209.365 159.059C209.395 159.559 209.438 160.287 209.494 161.236C209.599 163.157 209.751 165.965 209.946 169.559C210.321 176.77 210.859 187.125 211.515 199.746L211.522 199.876L211.384 199.883C210.938 199.908 210.494 200.048 210.145 200.355C209.79 200.654 209.563 201.097 209.389 201.55C209.049 202.472 208.953 203.519 208.983 204.544L208.987 204.676L208.858 204.688C193.63 206.236 175.451 208.083 155.927 210.067L156.075 209.904C156.075 210.655 156.075 211.466 156.075 212.279C156.073 220.44 156.072 228.376 156.07 235.882L155.913 235.723C178.814 235.968 198.79 235.068 212.904 233.315C216.431 232.87 219.589 232.365 222.332 231.832C225.071 231.28 227.391 230.688 229.25 230.106C230.174 229.802 230.986 229.508 231.681 229.239C232.359 228.932 232.946 228.697 233.397 228.467C233.835 228.223 234.171 228.037 234.405 227.906C234.632 227.781 234.752 227.724 234.752 227.724C234.752 227.724 234.642 227.797 234.42 227.931C234.188 228.067 233.857 228.262 233.424 228.517C232.975 228.756 232.392 229 231.714 229.317C231.02 229.594 230.208 229.897 229.285 230.21C227.427 230.81 225.105 231.42 222.364 231.989C219.618 232.537 216.459 233.058 212.93 233.518C198.806 235.328 178.824 236.269 155.906 236.041L155.749 236.039L155.749 235.882C155.747 228.376 155.746 220.44 155.744 212.279C155.744 211.466 155.744 210.655 155.744 209.904V209.757L155.893 209.743C175.419 207.778 193.6 205.948 208.83 204.415L208.704 204.56C208.676 203.493 208.775 202.435 209.134 201.457C209.32 200.977 209.562 200.5 209.966 200.158C210.362 199.808 210.88 199.644 211.381 199.621L211.25 199.759C210.643 187.136 210.143 176.779 209.796 169.567C209.632 165.971 209.503 163.162 209.415 161.24C209.376 160.29 209.346 159.562 209.326 159.061C209.307 158.569 209.309 158.315 209.309 158.315Z" fill="#1D2A30"/>
<path d="M219.127 206.07C219.073 206.09 218.864 205.534 218.38 204.72C217.899 203.905 217.097 202.854 215.979 201.933C214.856 201.015 213.663 200.429 212.764 200.112C211.865 199.791 211.273 199.689 211.282 199.633C211.286 199.6 211.896 199.62 212.838 199.893C213.776 200.161 215.031 200.734 216.19 201.682C217.344 202.633 218.146 203.745 218.584 204.608C219.028 205.473 219.16 206.062 219.127 206.07Z" fill="#1D2A30"/>
<path d="M212.808 210.883C212.707 210.911 212.348 209.181 211.201 207.374C210.074 205.553 208.666 204.465 208.736 204.388C208.76 204.357 209.144 204.586 209.682 205.062C210.221 205.535 210.897 206.274 211.481 207.202C212.062 208.132 212.43 209.059 212.619 209.746C212.81 210.434 212.848 210.876 212.808 210.883Z" fill="#1D2A30"/>
<path d="M26.9307 134.699L65.4959 235.946L147.298 237.579L113.583 135.394L26.9307 134.699Z" fill="#F03658"/>
<path d="M136.739 237.395L122.442 237.083L136.735 237.368C136.738 237.386 136.739 237.395 136.739 237.395ZM87.4812 135.185L46.2161 134.854C46.2138 134.835 46.2129 134.826 46.2129 134.826L87.4812 135.185Z" fill="white"/>
<path d="M136.736 237.368L122.443 237.083L110.542 236.824L101.92 212.007C101.92 212.007 100.928 212.537 99.3194 212.537C98.2799 212.537 96.9835 212.316 95.5317 211.587L104.426 236.691L78.4394 236.125C78.4394 236.125 58.8737 198.967 52.7731 174.216C49.3701 160.48 46.3327 135.801 46.2168 134.854L87.4819 135.185L97.2702 135.27C97.2702 135.27 114.205 161.882 123.952 188.47C133.503 214.533 136.617 236.509 136.736 237.368Z" fill="#F791AD"/>
<path d="M104.367 204.203C103.716 204.63 101.6 204.297 99.4749 199.724C97.3508 195.151 99.7374 194.128 100.239 193.906C100.92 193.606 101.962 193.367 102.6 194.121L102.506 194.052C102.506 194.052 102.6 194.121 102.743 194.267C103.175 194.706 104.062 195.837 104.245 197.883C104.489 200.611 105.018 203.777 104.367 204.203ZM88.4637 203.633C87.4971 203.148 85.8157 199.94 84.1489 197.161C82.9001 195.077 83.013 193.981 83.1474 193.563C83.1925 193.424 83.2401 193.359 83.2401 193.359L83.1925 193.424C83.3162 192.697 84.5523 193.017 85.4606 193.375C86.1309 193.639 89.2965 194.862 90.3322 199.396C91.366 203.93 89.4309 204.117 88.4637 203.633ZM106.445 196.242C105.968 194.882 103.906 190.06 104.235 187.653C104.561 185.246 106.974 182.646 107.108 180.232C107.241 177.819 107.31 172.448 106.691 169.828C106.07 167.209 104.283 163.024 104.283 163.024C104.283 163.024 100.589 157.248 96.8725 157.113C93.1565 156.978 92.3516 156.949 92.3516 156.949C92.3516 156.949 89.0777 157.725 90.6607 161.724C92.2438 165.722 95.9935 172.576 96.5313 173.759C97.0685 174.944 99.5928 179.514 99.0201 182.449C98.4448 185.384 94.1351 193.56 94.7028 195.551L92.3865 195.468C92.3865 195.468 90.2529 191.808 87.2498 190.266C84.2485 188.725 77.816 182.042 76.4428 178.051C75.0697 174.059 73.5913 164.778 72.6837 161.967C71.7767 159.157 70.3744 156.688 68.0207 156.065C65.6676 155.441 62.5127 156.223 62.5127 156.223C62.5127 156.223 58.3042 157.683 60.1905 163.933C62.0752 170.184 63.1311 170.58 65.3638 174.245C67.5983 177.91 68.157 179.005 69.9304 180.593C71.7044 182.18 75.8815 183.943 77.6891 187.772C79.4974 191.6 80.3974 196.023 83.6447 201.516C86.8958 207.008 88.0844 209.023 90.6297 209.024C93.1749 209.025 93.9937 206.188 94.0876 204.489C94.1808 202.789 94.0863 201.801 94.0863 201.801L97.1592 201.911C97.1592 201.911 100.623 208.312 104.27 209.515C107.918 210.718 107.656 207.483 107.84 206.236C108.023 204.988 106.922 197.603 106.445 196.242Z" fill="white"/>
<path d="M93.4545 193.964C94.2149 193.913 93.6777 191.057 93.6777 191.057C93.6777 191.057 93.8363 189.171 93.6942 187.826C93.5515 186.482 94.2606 185.246 94.749 184.003C95.2367 182.76 94.7249 179.432 94.1394 177.756C93.5547 176.081 93.9485 175.937 93.9485 175.937C95.9001 175.299 94.097 171.293 92.7841 167.543C91.4718 163.792 90.164 164.06 90.164 164.06C90.164 164.06 89.2906 164.028 88.794 167.083C88.2936 170.138 87.4329 171.223 85.5556 171.221L84.5515 171.184C82.6742 171.218 80.9826 169.873 78.3213 166.704C75.662 163.534 74.7892 163.502 74.7892 163.502C74.7892 163.502 73.2607 163.132 74.5533 166.883C75.8465 170.633 76.8144 174.608 79.2638 175.406C79.2638 175.406 79.7687 175.582 80.3471 177.258C80.9262 178.934 82.7414 182.309 84.1152 183.62C85.4896 184.93 87.0847 186.249 87.8839 187.617C88.6837 188.986 90.1722 190.931 90.1722 190.931C90.1722 190.931 91.9932 193.833 92.8082 193.941L93.4545 193.964Z" fill="white"/>
<path d="M69.715 135.747C69.715 135.747 68.7148 136.03 69.4315 137.676C70.1488 139.322 70.0911 140.292 70.4793 140.739C70.8674 141.185 71.8759 141.978 71.8759 141.978C71.8759 141.978 70.7317 142.368 71.5771 144.127C72.4232 145.886 72.6401 147.622 73.0251 148.392C73.4107 149.162 74.2315 149.408 74.6069 149.854C74.9818 150.3 73.3689 149.809 73.7729 151.336C74.1769 152.862 75.1809 153.979 75.1746 155.383C75.167 156.787 75.8684 158.649 77.2245 159.346C78.5811 160.043 78.3249 161.006 78.3655 161.764C78.4067 162.521 78.4441 162.847 78.9769 164.81C79.5097 166.774 82.5636 169.801 84.4314 169.652C86.2999 169.505 88.0974 167.301 87.6521 165.989C87.2062 164.677 85.3923 161.803 84.602 161.018C83.8124 160.233 83.1401 160.209 83.2834 159.35C83.4268 158.491 84.4073 159.823 84.3616 158.633C84.3153 157.444 84.1948 156.251 83.4401 155.143C82.6853 154.035 82.4532 152.948 81.734 151.517C81.0147 150.087 79.5972 149.819 79.7069 149.499C79.816 149.179 80.5987 149.316 79.9543 147.888C79.3099 146.461 79.2807 147.432 78.5932 145.247C77.905 143.062 77.5968 141.755 76.9295 141.946C76.2623 142.137 76.3657 141.169 76.1298 139.649C75.8932 138.128 76.4551 138.688 75.512 137.034C74.5695 135.38 69.715 135.747 69.715 135.747Z" fill="white"/>
<path d="M70.9926 189.537L71.8381 187.543L70.4719 183.543C70.4719 183.543 72.759 182.17 75.9366 186.727C79.1186 191.284 78.9036 193.441 78.9036 193.441L75.1355 193.305C75.1355 193.305 74.2349 195.339 75.0017 197.391C75.7692 199.442 76.8823 199.193 77.9135 202.796C78.9442 206.398 79.0387 207.847 79.0387 207.847L90.7799 235.946L85.5372 235.76L72.8681 205.988C72.8681 205.988 71.422 205.069 69.0893 200.551C66.7578 196.034 64.503 190.171 66.0233 188.586C67.5417 187.003 70.9926 189.537 70.9926 189.537Z" fill="white"/>
<path d="M112.889 191.044L110.619 188.94L109.209 184.939C109.209 184.939 105.896 183.366 105.84 187.805C105.781 192.244 107.518 194.47 107.518 194.47L111.288 194.606C111.288 194.606 113.642 196.755 114.297 198.802C114.952 200.848 113.635 200.512 115.109 204.129C116.583 207.746 117.504 209.224 117.504 209.224L125.192 237.169L130.44 237.354L122.529 207.766C122.529 207.766 123.367 206.93 122.586 202.47C121.804 198.011 119.995 192.167 117.321 190.434C114.649 188.7 112.889 191.044 112.889 191.044Z" fill="white"/>
<path d="M26.9307 134.7C28.0795 134.707 61.3875 134.922 113.584 135.259L113.683 135.26L113.713 135.352C123.18 164.02 134.568 198.504 146.812 235.582C147.028 236.235 147.243 236.888 147.454 237.529L147.527 237.747L147.294 237.743C117.855 237.149 90.0133 236.587 65.4933 236.093L65.3925 236.091L65.357 235.997C42.5794 175.952 27.3895 135.909 26.9307 134.7C27.3925 135.907 42.6926 175.91 65.6354 235.894L65.499 235.799C90.019 236.284 117.861 236.834 147.301 237.416L147.14 237.63C146.929 236.989 146.714 236.336 146.498 235.684C134.273 198.599 122.903 164.108 113.452 135.437L113.581 135.53C61.3865 135.03 28.0785 134.711 26.9307 134.7Z" fill="#1D2A30"/>
<path d="M156.024 212.023H147.82C147.82 212.023 143.623 208.019 142.483 207.455C141.344 206.893 135.733 205.22 135.733 205.22L137.895 211.144C137.895 211.144 138.141 211.199 138.893 211.489C140.324 212.04 139.926 213.289 138.786 213.289C137.646 213.289 130.523 213.289 130.523 213.289C130.523 213.289 122.066 209.284 120.81 210.016C119.754 210.632 119.387 211.742 120.467 213.289C121.547 214.836 128.955 218.494 129.81 218.775L132.233 219.479L129.952 220.183L119.176 216.465C118.477 216.342 117.51 216.227 117.195 216.628C116.761 217.178 116.498 217.911 117.252 218.685C118.585 220.054 122.128 222.47 122.128 222.47C122.128 222.47 120.408 224.966 121.832 226.232C123.257 227.498 127.388 231.297 127.388 231.297C127.388 231.297 127.816 233.407 129.098 234.391C130.38 235.376 144.485 235.376 145.482 235.376C146.48 235.376 152.178 232.141 152.178 232.141L155.91 231.757L156.024 212.023Z" fill="#F9AD95"/>
<path d="M131.574 226.495C131.578 226.527 131.003 226.681 130.031 226.7C129.548 226.703 128.953 226.634 128.345 226.408C127.735 226.187 127.121 225.834 126.509 225.443C125.287 224.659 124.195 223.933 123.411 223.394C122.629 222.856 122.157 222.504 122.182 222.467C122.206 222.428 122.723 222.713 123.539 223.201C124.354 223.69 125.469 224.386 126.688 225.168C127.295 225.558 127.882 225.904 128.454 226.128C129.023 226.356 129.569 226.443 130.038 226.469C130.975 226.51 131.57 226.439 131.574 226.495Z" fill="#F6865E"/>
<path d="M132.221 231.706C132.248 231.724 131.913 232.109 131.15 232.299C130.41 232.494 129.253 232.415 128.242 231.817C127.225 231.26 126.429 230.588 125.881 230.082C125.337 229.568 125.047 229.208 125.077 229.179C125.153 229.094 126.447 230.431 128.401 231.53C129.363 232.098 130.394 232.193 131.102 232.073C131.817 231.955 132.189 231.657 132.221 231.706Z" fill="#F6865E"/>
<path d="M136.216 220.178C136.209 220.264 135.198 220.256 133.983 220.006C132.766 219.76 131.835 219.373 131.864 219.291C131.894 219.202 132.855 219.446 134.05 219.687C135.243 219.932 136.224 220.085 136.216 220.178Z" fill="#F6865E"/>
<path d="M23.737 153.005C22.0513 152.052 21.5067 149.909 22.5249 148.276C22.9077 147.663 23.3326 147.14 23.7597 146.917C25.1384 146.197 37.3177 143.947 38.6239 143.762C39.9984 143.567 40.1716 146.059 38.4654 147.281C36.7593 148.504 23.737 153.005 23.737 153.005Z" fill="#F9AD95"/>
<path d="M26.5726 161.722C24.8872 160.768 24.3426 158.625 25.3609 156.992C25.7439 156.378 26.1686 155.857 26.5957 155.633C27.9744 154.913 40.4079 151.691 41.4601 152.478C42.7209 153.421 43.0073 154.775 41.3013 155.997C39.5955 157.22 26.5726 161.722 26.5726 161.722Z" fill="#F9AD95"/>
<path d="M29.0446 159.922C27.8891 160.206 26.8723 160.944 26.3624 162.001C26.1048 162.535 25.9626 163.156 26.1162 163.818C26.4865 165.416 27.5945 167.04 29.8193 167.726C32.0439 168.412 39.2931 166.806 39.2931 166.806L37.6201 162.189L42.7009 160.546C44.7687 159.735 43.7695 156.539 41.2774 157.156C40.4524 157.361 31.9529 159.206 29.0446 159.922Z" fill="#F9AD95"/>
<path d="M25.2526 157.121C23.5667 156.167 23.0224 154.025 24.0406 152.391C24.4234 151.777 24.8483 151.255 25.2755 151.032C26.6542 150.312 37.726 148.367 39.016 148.093C40.2885 147.823 41.6873 150.174 39.981 151.396C38.275 152.619 25.2526 157.121 25.2526 157.121Z" fill="#F9AD95"/>
<path d="M37.755 152.728C37.7624 152.773 37.0197 152.958 35.8146 153.22C34.6093 153.483 32.9387 153.822 31.0945 154.181C29.2596 154.556 27.6403 155.079 26.651 155.79C25.6555 156.478 25.3191 157.201 25.2633 157.158C25.246 157.148 25.3149 156.969 25.5014 156.676C25.687 156.384 26.0091 155.981 26.5135 155.603C27.014 155.229 27.6712 154.857 28.4499 154.575C29.2249 154.29 30.0992 154.055 31.0265 153.862C32.878 153.501 34.556 153.198 35.7737 152.993C36.9912 152.788 37.7476 152.684 37.755 152.728Z" fill="#F6865E"/>
<path d="M35.6144 148.736C35.6214 148.781 34.9101 148.947 33.7548 149.182C32.497 149.422 30.9488 149.718 29.2368 150.046C27.4902 150.425 25.9442 150.946 25.0334 151.662C24.119 152.365 23.7919 153.045 23.7372 153.005C23.7194 152.995 23.785 152.825 23.9584 152.542C24.1321 152.261 24.4242 151.868 24.8873 151.483C25.8049 150.684 27.4054 150.108 29.1647 149.727C30.9374 149.381 32.547 149.138 33.7144 148.955C34.8816 148.778 35.6067 148.691 35.6144 148.736Z" fill="#F6865E"/>
<path d="M37.9116 157.847C37.9215 157.891 37.2551 158.086 36.1699 158.376C35.0867 158.662 33.57 159.044 31.8778 159.317C30.2055 159.621 28.7095 160.056 27.8003 160.673C26.8745 161.275 26.5375 161.906 26.489 161.87C26.4721 161.86 26.5343 161.695 26.714 161.434C26.8943 161.174 27.2028 160.821 27.6663 160.485C28.5904 159.786 30.1282 159.303 31.8174 158.997C33.5103 158.724 35.0134 158.382 36.1149 158.152C37.2142 157.919 37.9012 157.803 37.9116 157.847Z" fill="#F6865E"/>
<path d="M38.6081 161.869C38.6359 161.955 37.4514 162.421 35.9622 162.911C34.4724 163.401 33.2364 163.73 33.201 163.647C33.1655 163.564 34.3498 163.098 35.8467 162.605C37.3436 162.113 38.5799 161.783 38.6081 161.869Z" fill="#F6865E"/>
<path d="M297.527 89.555C299.581 86.5971 303.612 85.1353 307.116 86.0792C310.62 87.0223 313.343 90.3034 313.591 93.8814C313.839 97.4594 311.596 101.076 308.255 102.482C310.975 103.856 312.227 107.508 310.909 110.231C309.592 112.954 305.927 114.286 303.136 113.059C302.443 115.463 299.719 116.917 297.193 116.751C294.667 116.585 292.393 115.106 290.668 113.276C287.083 109.474 285.474 103.858 286.818 98.8359C288.162 93.8138 292.542 89.6321 297.729 88.769" fill="#1D2A30"/>
<path d="M301.539 85.6447C301.548 85.6403 301.583 85.7004 301.644 85.82C301.699 85.9415 301.8 86.115 301.887 86.3574C302.077 86.8359 302.292 87.5649 302.375 88.5087C302.455 89.4487 302.394 90.6111 301.997 91.848C301.621 93.0843 300.881 94.3901 299.734 95.4679L299.754 95.2606C300.575 96.3554 301.192 97.7432 301.435 99.2538C301.775 101.316 301.383 103.365 300.518 104.957C299.655 106.559 298.394 107.689 297.228 108.397C296.055 109.111 294.974 109.441 294.225 109.582C293.847 109.646 293.554 109.688 293.351 109.693C293.151 109.706 293.046 109.707 293.045 109.696C293.041 109.662 293.462 109.632 294.197 109.458C294.927 109.281 295.974 108.924 297.103 108.202C298.225 107.487 299.431 106.37 300.248 104.817C301.068 103.275 301.436 101.298 301.11 99.3052C300.875 97.846 300.284 96.5063 299.5 95.4467L299.417 95.3346L299.52 95.2394C300.627 94.2123 301.356 92.9609 301.74 91.7672C302.144 90.5729 302.228 89.4431 302.177 88.5218C302.061 86.6624 301.468 85.6641 301.539 85.6447Z" fill="#365462"/>
<path d="M326.901 83.8951C326.911 83.9151 326.577 84.1092 325.963 84.4437C325.35 84.7787 324.454 85.2472 323.341 85.8127C321.112 86.9432 318 88.4419 314.509 89.9807C311.015 91.5176 307.806 92.8027 305.465 93.6839C304.295 94.1254 303.343 94.4705 302.681 94.6966C302.019 94.9239 301.649 95.0398 301.642 95.0185C301.634 94.9972 301.988 94.8413 302.635 94.5776C303.335 94.2958 304.26 93.9219 305.379 93.4697C307.696 92.5347 310.886 91.2176 314.374 89.6826C317.86 88.1463 320.984 86.6827 323.236 85.6061C324.324 85.0856 325.224 84.656 325.905 84.3309C326.536 84.031 326.89 83.875 326.901 83.8951Z" fill="#F03658"/>
<path d="M318.633 75.7792C318.695 75.8456 315.212 79.1324 310.855 83.1205C306.497 87.1094 302.914 90.289 302.852 90.2226C302.79 90.1569 306.272 86.8701 310.63 82.8813C314.988 78.8931 318.571 75.7135 318.633 75.7792Z" fill="#F03658"/>
<path d="M280.708 62.2139C280.708 55.477 272.553 55.1413 268.427 56.8247C266.208 53.8217 264.612 52.3067 259.518 51.9898C255.77 51.7568 250.054 53.6131 247.173 57.3408C244.293 61.0684 243.723 66.3749 245.643 70.6637C246.278 72.0823 247.183 73.5102 247.004 75.0509C246.746 77.2798 244.43 78.5869 242.93 80.2716C240.415 83.0936 240.238 87.6799 242.528 90.6823C243.979 92.5843 246.287 93.9196 247.058 96.1755C247.704 98.065 247.095 100.132 247.216 102.123C247.437 105.781 250.249 108.988 253.703 110.332C257.156 111.675 261.103 111.356 264.593 110.106" fill="#1D2A30"/>
<path d="M250.875 132.904L263.663 127.246L264.102 118.801C264.102 118.801 254.486 117.397 252.277 105.08C251.179 98.9551 251.31 88.8782 251.687 80.6363C252.027 73.2179 259.979 65.6768 267.471 66.3263L291.803 70.456L291.795 74.4442L292.019 125.322L304.605 131.375L276.063 164.666L250.875 132.904Z" fill="#B4594C"/>
<path d="M256.23 89.3789C256.215 90.2156 256.92 90.9183 257.805 90.9496C258.689 90.9809 259.418 90.3296 259.433 89.4929C259.448 88.6555 258.743 87.9522 257.859 87.9203C256.974 87.8889 256.244 88.5422 256.23 89.3789Z" fill="#1D2A30"/>
<path d="M253.995 85.8367C254.197 86.0396 255.397 85.1303 257.123 85.1046C258.847 85.0545 260.129 85.9087 260.314 85.697C260.404 85.6031 260.194 85.2336 259.636 84.8466C259.085 84.4614 258.152 84.0938 257.077 84.1169C256.002 84.1414 255.105 84.5484 254.592 84.9574C254.068 85.3689 253.895 85.7459 253.995 85.8367Z" fill="#1D2A30"/>
<path d="M272.36 89.4002C272.344 90.2376 273.05 90.9403 273.934 90.9716C274.819 91.0029 275.548 90.3515 275.562 89.5142C275.578 88.6775 274.872 87.9736 273.988 87.9422C273.104 87.9109 272.374 88.5635 272.36 89.4002Z" fill="#1D2A30"/>
<path d="M270.968 85.8574C271.171 86.0597 272.372 85.1509 274.097 85.1252C275.821 85.0745 277.104 85.9294 277.288 85.7171C277.377 85.6231 277.17 85.2543 276.61 84.8672C276.059 84.4814 275.126 84.1138 274.052 84.137C272.975 84.162 272.078 84.5685 271.565 84.9781C271.043 85.3895 270.869 85.7666 270.968 85.8574Z" fill="#1D2A30"/>
<path d="M264.931 98.6081C264.938 98.511 263.861 98.3469 262.118 98.1578C261.677 98.1208 261.258 98.0419 261.179 97.7457C261.069 97.4332 261.245 96.9609 261.449 96.4505C261.845 95.3896 262.259 94.2786 262.693 93.1131C264.419 88.3627 265.659 84.4591 265.465 84.3927C265.271 84.3257 263.714 88.1216 261.989 92.8726C261.574 94.0437 261.178 95.1604 260.801 96.2288C260.643 96.7267 260.366 97.2922 260.603 97.9411C260.727 98.2642 261.055 98.4947 261.339 98.5649C261.623 98.6444 261.871 98.645 262.089 98.6544C263.84 98.7164 264.926 98.7052 264.931 98.6081Z" fill="#1D2A30"/>
<path d="M264.102 118.801C264.102 118.801 272.526 119.188 280.774 114.094C280.774 114.094 276.482 122.801 263.942 121.865L264.102 118.801Z" fill="#8B2E21"/>
<path d="M265.735 102.703C266.341 101.882 267.421 101.418 268.503 101.514C269.253 101.58 270.017 101.924 270.483 102.518C270.948 103.112 271.059 103.966 270.656 104.548C270.202 105.202 269.231 105.369 268.403 105.152C267.575 104.935 266.856 104.412 266.174 103.891C265.985 103.746 265.791 103.595 265.671 103.395C265.551 103.195 265.522 102.931 265.662 102.761" fill="#8B2E21"/>
<path d="M270.033 99.6985C269.751 99.6872 269.781 101.537 268.201 102.879C266.624 104.225 264.623 104.052 264.613 104.31C264.589 104.427 265.064 104.662 265.908 104.67C266.735 104.684 267.938 104.4 268.904 103.58C269.869 102.757 270.27 101.675 270.321 100.915C270.378 100.14 270.161 99.6853 270.033 99.6985Z" fill="#1D2A30"/>
<path d="M270.403 79.1852C270.581 79.6455 272.301 79.3956 274.33 79.6011C276.364 79.7664 278.008 80.3231 278.269 79.9029C278.386 79.7012 278.093 79.271 277.424 78.8332C276.762 78.3967 275.71 77.9896 274.492 77.8769C273.274 77.7673 272.164 77.9771 271.432 78.2865C270.694 78.5952 270.326 78.9666 270.403 79.1852Z" fill="#1D2A30"/>
<path d="M254.541 80.8922C254.851 81.2743 256.033 80.8515 257.463 80.8077C258.89 80.7137 260.108 81.0212 260.38 80.6117C260.498 80.4125 260.301 80.028 259.765 79.671C259.237 79.3146 258.359 79.0315 257.378 79.0785C256.396 79.1261 255.55 79.4919 255.06 79.8971C254.562 80.3041 254.403 80.7056 254.541 80.8922Z" fill="#1D2A30"/>
<path d="M248.389 65.6107C250.298 69.974 254.662 76.5012 259.442 77.0736C264.22 77.646 269.236 75.5498 272.148 71.764C272.871 75.2824 276.826 77.1513 280.414 77.7318C282.951 78.1433 285.628 78.1683 288.014 77.2245C290.402 76.2807 292.447 74.2278 292.832 71.717C293.217 69.2068 289.599 63.0411 287.073 62.5739" fill="#1D2A30"/>
<path d="M281.274 74.36C280.446 76.1844 280.379 78.3332 281.094 80.2039C281.808 82.0746 283.295 83.6447 285.137 84.4745C283.37 86.6402 283.057 89.7028 283.729 92.4033C284.4 95.1032 285.942 97.5082 287.596 99.7578C287.596 99.7578 283.294 105.902 291.954 110.388C291.954 110.388 298.032 108.528 295.318 99.481C295.125 98.8403 295.111 98.1031 295.426 97.5119C295.728 96.9458 296.364 96.6533 296.931 96.3426C299.189 95.1038 300.921 92.9632 301.647 90.5157C302.372 88.0682 302.083 85.3426 300.857 83.0973C300.531 82.4974 300.133 81.913 300.016 81.241C299.841 80.2258 299.057 77.5735 299.412 76.6053C301.27 71.5393 298.878 65.2451 292.86 62.118C288.031 59.6098 281.988 59.1952 278.294 63.1602" fill="#1D2A30"/>
<path d="M314.879 172.881L323.104 141.041L299.978 128.468L277.655 162.448L257.432 129.406L236.596 138.722C235.226 139.335 234.125 140.414 233.496 141.764L214.658 192.092L240.13 200.213L243.048 188.546L246.403 208.695L236.712 261.566L319.881 261.265L305.141 206.986L307.188 194.88L314.879 172.881Z" fill="#F03658"/>
<path d="M312.709 234.853L308.639 219.864L311.177 221.687C311.419 224.968 311.659 228.248 311.9 231.529L312.747 234.806C312.734 234.822 312.722 234.837 312.709 234.853ZM245.392 214.211C245.28 214.198 245.168 214.181 245.055 214.162L245.558 213.308L245.392 214.211Z" fill="#B2B1B0"/>
<path d="M311.393 235.276C310.228 235.276 308.696 234.799 307.852 234.612C299.551 232.77 291.988 227.86 286.984 221.066C285.926 219.629 284.932 218.066 283.412 217.113C281.429 215.872 278.929 215.892 276.642 215.365C271.469 214.175 267.061 210.08 261.757 210.08C261.733 210.08 261.708 210.08 261.684 210.08C256.407 210.117 251.654 214.283 246.53 214.283C246.153 214.283 245.773 214.26 245.392 214.211L245.557 213.307L251.498 203.213L283.308 201.677L308.638 219.864L312.709 234.852C312.436 235.164 311.958 235.276 311.393 235.276Z" fill="#BC283B"/>
<path d="M306.146 170.889H288.938V168.075H306.146V170.889Z" fill="#1D2A30"/>
<path d="M307.317 202.432C314.261 204.875 321.889 204.506 329.181 203.444C330.912 203.193 332.723 202.867 334.087 201.785C334.545 201.421 335.644 200.502 335.628 200.288C335.579 199.633 334.37 198.755 333.667 198.211C328.409 194.151 321.311 192.512 314.776 193.849C313.035 194.205 311.314 194.77 309.837 195.745C308.358 196.72 307.434 197.26 306.927 198.941L307.317 202.432Z" fill="#F03658"/>
<path d="M319.163 204.264C315.121 204.263 311.117 203.769 307.317 202.432L306.927 198.941C307.434 197.26 308.358 196.72 309.837 195.745C311.314 194.77 313.035 194.205 314.776 193.849C316.276 193.542 317.805 193.392 319.335 193.392C324.472 193.392 329.616 195.083 333.667 198.211C334.37 198.755 335.579 199.633 335.628 200.288C335.628 200.29 335.628 200.291 335.628 200.293C335.627 200.517 334.541 201.424 334.087 201.785C332.723 202.867 330.912 203.193 329.181 203.444C325.879 203.925 322.508 204.264 319.163 204.264Z" fill="#BC283B"/>
<path d="M335.628 200.288C335.628 200.288 328.324 157.256 327.868 153.419C326.738 143.901 323.104 140.854 323.104 140.854L306.146 192.105L307.32 202.432C307.32 202.432 312.679 194.469 335.628 200.288Z" fill="#F03658"/>
<path d="M326.278 165.73C326.3 165.737 326.186 166.116 325.962 166.795C325.743 167.477 325.386 168.45 324.913 169.638C323.964 172.016 322.473 175.24 320.461 178.602C318.449 181.966 316.306 184.81 314.641 186.767C313.81 187.747 313.112 188.52 312.609 189.033C312.11 189.549 311.825 189.828 311.808 189.812C311.792 189.797 312.044 189.49 312.513 188.947C312.986 188.409 313.655 187.617 314.46 186.621C316.074 184.634 318.174 181.783 320.177 178.437C322.178 175.09 323.695 171.899 324.696 169.551C325.196 168.377 325.586 167.419 325.841 166.753C326.102 166.087 326.257 165.722 326.278 165.73Z" fill="#1D2A30"/>
<path d="M246.292 207.657C246.286 207.658 246.274 207.61 246.255 207.517C246.236 207.404 246.211 207.266 246.182 207.1C246.119 206.706 246.035 206.17 245.929 205.496C245.688 204.076 245.347 202.072 244.928 199.607C244.059 194.637 242.807 187.781 241.406 180.212C240.012 172.652 238.75 165.809 237.831 160.821C237.395 158.359 237.04 156.356 236.789 154.938C236.683 154.262 236.598 153.727 236.535 153.331C236.516 153.163 236.501 153.024 236.488 152.909C236.479 152.815 236.477 152.767 236.483 152.767C236.488 152.767 236.502 152.815 236.521 152.909C236.543 153.021 236.569 153.157 236.601 153.322C236.679 153.714 236.783 154.244 236.916 154.915C237.191 156.329 237.582 158.325 238.061 160.78C239.02 165.734 240.331 172.581 241.732 180.153C243.133 187.724 244.349 194.588 245.159 199.569C245.566 202.059 245.863 204.08 246.056 205.478C246.137 206.157 246.201 206.695 246.248 207.092C246.264 207.261 246.278 207.399 246.289 207.512C246.297 207.608 246.298 207.656 246.292 207.657Z" fill="#1D2A30"/>
<path d="M316.137 155.783C316.148 155.787 316.117 155.953 316.05 156.268C315.972 156.611 315.869 157.068 315.739 157.64C315.452 158.862 315.049 160.575 314.555 162.676C313.549 166.927 312.154 172.798 310.675 179.296C309.193 185.796 307.913 191.692 307.061 195.975C306.639 198.116 306.297 199.85 306.093 201.053C305.987 201.629 305.902 202.09 305.839 202.437C305.777 202.752 305.74 202.917 305.728 202.915C305.716 202.913 305.733 202.745 305.773 202.427C305.821 202.077 305.886 201.614 305.966 201.033C306.132 199.822 306.439 198.08 306.831 195.931C307.625 191.635 308.869 185.726 310.352 179.225C311.832 172.724 313.264 166.861 314.328 162.622C314.864 160.53 315.302 158.827 315.615 157.61C315.769 157.044 315.892 156.592 315.985 156.252C316.074 155.942 316.126 155.781 316.137 155.783Z" fill="#1D2A30"/>
<path d="M252.085 131.612C252.09 131.609 252.138 131.675 252.227 131.808C252.324 131.956 252.453 132.153 252.618 132.405C252.964 132.948 253.46 133.725 254.093 134.717C255.372 136.749 257.208 139.664 259.477 143.268C264.011 150.526 270.272 160.549 277.226 171.683L276.951 171.674C277.217 171.304 277.505 170.904 277.794 170.503C278.695 169.251 279.586 168.013 280.425 166.848L280.418 167.026C273.946 156.43 268.184 146.995 264.03 140.193C261.976 136.802 260.32 134.068 259.167 132.166C258.609 131.23 258.173 130.5 257.867 129.988C257.728 129.749 257.619 129.561 257.537 129.42C257.463 129.291 257.428 129.223 257.433 129.22C257.437 129.217 257.482 129.279 257.564 129.403C257.652 129.541 257.77 129.723 257.92 129.956C258.238 130.461 258.692 131.181 259.271 132.104C260.445 133.993 262.13 136.71 264.22 140.078C268.398 146.867 274.191 156.282 280.699 166.858L280.755 166.949L280.692 167.037C279.855 168.201 278.964 169.44 278.063 170.692C277.774 171.093 277.487 171.492 277.221 171.863L277.075 172.063L276.945 171.854C270.024 160.7 263.792 150.658 259.281 143.386C257.049 139.76 255.243 136.826 253.985 134.782C253.374 133.776 252.897 132.99 252.562 132.439C252.41 132.18 252.289 131.977 252.2 131.825C252.119 131.687 252.08 131.614 252.085 131.612Z" fill="#1D2A30"/>
<path d="M299.978 128.283C299.982 128.286 299.949 128.347 299.878 128.464C299.798 128.593 299.693 128.763 299.559 128.978C299.263 129.442 298.842 130.1 298.304 130.941C297.19 132.659 295.593 135.122 293.611 138.176C289.6 144.307 284.039 152.805 277.793 162.351L277.795 162.177C278.495 163.304 279.237 164.501 279.988 165.713C280.232 166.105 280.474 166.496 280.699 166.858L280.421 166.852C283.807 161.854 286.933 157.046 289.788 152.691C292.642 148.334 295.255 144.448 297.527 141.244C299.793 138.035 301.697 135.496 303.029 133.755C303.695 132.904 304.215 132.238 304.581 131.769C304.754 131.554 304.89 131.385 304.992 131.257C305.086 131.144 305.136 131.087 305.141 131.09C305.146 131.093 305.105 131.157 305.019 131.277C304.922 131.41 304.795 131.585 304.633 131.807C304.279 132.285 303.775 132.964 303.13 133.83C301.83 135.592 299.955 138.15 297.716 141.373C295.471 144.592 292.88 148.487 290.042 152.852C287.201 157.216 284.081 162.031 280.695 167.033L280.552 167.245L280.417 167.028C280.193 166.666 279.95 166.275 279.707 165.883C278.956 164.672 278.213 163.474 277.515 162.347L277.461 162.259L277.517 162.173C283.798 152.651 289.39 144.173 293.425 138.057C295.441 135.025 297.068 132.581 298.202 130.876C298.761 130.048 299.198 129.401 299.507 128.944C299.651 128.736 299.765 128.571 299.851 128.447C299.93 128.336 299.974 128.28 299.978 128.283Z" fill="#1D2A30"/>
<path d="M254.557 188.523C251.523 187.234 248.565 188.904 247.529 190.877C246.492 192.849 246.783 195.565 248.29 197.146C249.796 198.727 253.434 199.799 255.128 197.896L254.557 188.523Z" fill="#EEEEEE"/>
<path d="M254.557 188.523C254.571 188.513 254.599 188.744 254.639 189.184C254.68 189.673 254.732 190.312 254.797 191.096C254.919 192.806 255.084 195.144 255.278 197.886L255.282 197.947L255.24 197.994C254.545 198.776 253.395 199.15 252.283 199.058C251.163 198.992 250.033 198.617 249.041 197.967C248.074 197.36 247.399 196.393 247.069 195.392C246.729 194.386 246.691 193.338 246.861 192.385C247.04 191.436 247.442 190.557 248.033 189.916C248.606 189.261 249.292 188.803 249.962 188.5C251.317 187.882 252.577 187.934 253.367 188.1C254.165 188.277 254.58 188.532 254.557 188.523C254.524 188.547 254.136 188.368 253.343 188.225C252.564 188.1 251.35 188.088 250.062 188.709C248.788 189.291 247.449 190.581 247.16 192.438C247.008 193.344 247.05 194.342 247.376 195.29C247.697 196.239 248.316 197.124 249.224 197.696C250.163 198.312 251.249 198.674 252.301 198.739C253.354 198.83 254.384 198.488 255.014 197.797L254.977 197.904C254.838 195.187 254.72 192.87 254.634 191.176C254.603 190.38 254.578 189.731 254.558 189.235C254.545 188.782 254.543 188.532 254.557 188.523Z" fill="#1D2A30"/>
<path d="M250.025 188.523C250.025 188.523 251.831 151.734 252.762 146.461C253.693 141.188 256.092 132.656 259.864 127.503C263.473 122.575 263.829 122.229 263.829 122.229L263.591 126.821C263.591 126.821 258.383 135.318 256.346 145.902C254.339 156.324 252.956 188.523 252.956 188.523H250.025Z" fill="#1D2A30"/>
<path d="M302.966 195.097C301.968 195.097 300.929 194.887 299.89 194.472L300.367 193.31C301.369 193.712 302.893 194.094 304.471 193.636C305.834 193.239 306.985 192.207 307.476 190.941C307.997 189.598 307.797 188.068 307.538 187.021C307.303 186.074 306.956 185.174 306.588 184.223C306.431 183.815 306.273 183.407 306.125 182.995C303.46 175.598 303.919 167.318 304.324 160.012L305.59 160.081C305.192 167.268 304.74 175.415 307.32 182.576C307.465 182.978 307.619 183.377 307.774 183.776C308.139 184.722 308.517 185.7 308.77 186.724C309.203 188.474 309.165 190.087 308.66 191.389C308.023 193.036 306.59 194.325 304.829 194.837C304.232 195.011 303.608 195.097 302.966 195.097Z" fill="#E3E3E2"/>
<path d="M302.852 195.65C300.734 195.65 298.882 194.667 297.266 192.703C295.175 190.159 294.842 183.849 294.548 178.281C294.443 176.29 294.343 174.409 294.167 173.049C293.542 168.235 290.749 161.782 290.721 161.718L291.886 161.223C292.004 161.494 294.777 167.9 295.426 172.889C295.608 174.297 295.708 176.201 295.815 178.216C296.085 183.326 296.421 189.686 298.251 191.913C301.015 195.273 304.368 195.241 309.127 191.805L309.876 192.817C307.26 194.705 304.928 195.65 302.852 195.65Z" fill="#EEEEEE"/>
<path d="M307.319 192.888C307.584 192.253 307.868 191.615 308.288 191.086C308.708 190.556 309.283 190.138 309.925 190.063C310.568 189.989 311.268 190.317 311.55 190.944C311.819 191.543 311.659 192.299 311.257 192.804C310.854 193.307 310.251 193.586 309.643 193.694C309.034 193.801 308.412 193.756 307.798 193.709" fill="#1D2A30"/>
<path d="M294.662 138.304C296.109 140.067 302.448 148.411 303.223 160.152H305.862C305.862 160.152 305.855 147.07 295.569 135.502C296.231 133.322 296.789 131.1 297.023 129.134C297.604 124.237 292.168 121.278 292.168 121.278L292.185 124.986C292.185 124.986 294.516 126.193 294.4 128.829C294.284 131.466 292.277 137.072 290.314 141.906C289.368 144.235 287.946 148.165 288.157 154.438C288.341 159.921 290.509 162.406 290.509 162.406L293.127 161.312C293.127 161.312 291.558 159.375 290.881 154.081C290.363 150.039 291.576 146.875 292.627 143.949C293.147 142.501 293.91 140.5 294.662 138.304Z" fill="#1D2A30"/>
<path d="M218.857 193.295L215.673 205.235C214.644 209.095 215.602 213.289 218.446 216.125C218.615 216.295 218.792 216.459 218.973 216.619C222.352 219.603 227.147 220.444 231.36 218.793L264.22 205.907L259.368 191.282L234.498 198.282L218.857 193.295Z" fill="#B4594C"/>
<path d="M245.823 173.393L251.778 204.689C252.039 206.055 253.272 207.027 254.679 206.974L300.18 205.26C301.744 205.202 302.965 203.904 302.911 202.36L301.872 172.777C301.818 171.266 300.563 170.069 299.033 170.069H248.614C246.835 170.069 245.495 171.666 245.823 173.393Z" fill="#365462"/>
<path d="M295.537 186.14C293.791 186.14 292.217 187.192 291.59 188.801C290.932 190.494 289.969 192.471 288.901 193.047C286.927 194.11 283.52 194.958 281.726 194.091C279.932 193.224 272.758 186.848 271.503 187.557C270.247 188.265 269.17 189.859 270.426 191.276C271.681 192.692 278.318 196.943 277.063 198.36C275.807 199.777 261.818 193.54 259.664 194.091C257.512 194.641 256.257 195.947 257.512 196.8C258.768 197.652 268.274 201.194 268.812 202.434C268.812 202.434 254.464 198.714 253.925 199.6C253.387 200.485 252.49 201.903 253.925 202.434C255.36 202.965 267.736 206.153 268.812 206.684C269.888 207.215 273.597 208.278 274.344 208.278C274.736 208.278 277.544 209.207 280.123 210.088C283.029 211.081 286.199 210.998 289.047 209.853L290.5 209.268C292.761 208.359 294.183 206.128 294.037 203.722L293.744 198.891L295.308 194.906L295.537 186.14Z" fill="#B4594C"/>
<path d="M284.042 210.777C284.042 210.777 310.227 234.179 319.043 234.246C328.334 234.315 333.565 224.794 332.575 218.88C332.046 215.723 330.668 199.219 330.668 199.219C324.445 197.538 315.149 196.788 308.521 201.143L310.933 210.777L293.458 202.432L284.042 210.777Z" fill="#B4594C"/>
<path d="M335.628 200.288C335.625 200.299 335.521 200.282 335.327 200.24C335.096 200.187 334.817 200.121 334.482 200.042C333.749 199.865 332.691 199.606 331.377 199.314C328.755 198.749 325.077 198.021 320.976 198.127C318.928 198.184 316.988 198.43 315.244 198.763C313.499 199.083 311.962 199.536 310.74 200.072C309.515 200.606 308.622 201.228 308.05 201.704C307.483 202.186 307.212 202.502 307.188 202.481C307.179 202.474 307.241 202.39 307.367 202.238C307.489 202.081 307.693 201.87 307.965 201.609C308.518 201.097 309.408 200.433 310.642 199.863C311.873 199.29 313.428 198.808 315.185 198.468C316.939 198.117 318.898 197.858 320.967 197.8C325.115 197.694 328.814 198.466 331.43 199.09C332.741 199.412 333.792 199.704 334.515 199.92C334.845 200.022 335.119 200.107 335.344 200.177C335.533 200.239 335.63 200.277 335.628 200.288Z" fill="#1D2A30"/>
<path d="M412.001 261.435C412.001 261.525 319.763 261.598 206.01 261.598C92.2169 261.598 0 261.525 0 261.435C0 261.345 92.2169 261.272 206.01 261.272C319.763 261.272 412.001 261.345 412.001 261.435Z" fill="#1D2A30"/>
<path d="M356.966 233.361C358.301 235.213 360.861 234.576 362.042 233.431C363.223 232.286 363.713 230.635 364.158 229.061C365.176 225.464 366.2 221.692 365.394 218.043C365.153 216.952 364.731 215.866 363.947 215.062C363.164 214.257 361.964 213.784 360.873 214.077C359.582 214.425 358.788 215.682 358.216 216.876C356.535 220.388 355.661 224.273 355.679 228.157C355.687 229.97 355.918 231.872 356.966 233.361Z" fill="#F03658"/>
<mask id="mask0_13_2440" style="mask-type:luminance" maskUnits="userSpaceOnUse" x="355" y="213" width="11" height="22">
<path d="M359.3 234.529C358.431 234.529 357.573 234.202 356.966 233.361C355.918 231.872 355.687 229.97 355.679 228.157C355.679 228.127 355.679 228.097 355.679 228.067C355.676 224.213 356.549 220.361 358.216 216.876C358.788 215.682 359.582 214.425 360.873 214.077C361.095 214.018 361.321 213.99 361.547 213.99C362.435 213.99 363.323 214.42 363.947 215.062C364.731 215.866 365.153 216.952 365.394 218.043C365.597 218.962 365.685 219.89 365.685 220.82C365.685 223.582 364.92 226.371 364.159 229.061C363.713 230.635 363.223 232.286 362.042 233.431C361.398 234.056 360.342 234.529 359.3 234.529Z" fill="white"/>
</mask>
<g mask="url(#mask0_13_2440)">
<path d="M355.676 234.529H365.685V213.99H355.676V234.529Z" fill="#D82B43"/>
</g>
<path d="M361.986 242.751C364.136 241.634 366.677 241.472 369.077 241.845C370.365 242.046 371.711 242.416 372.595 243.364C373.478 244.312 373.657 245.992 372.657 246.82C372.063 247.313 371.228 247.394 370.452 247.391C368.575 247.383 366.491 247.073 365.001 248.199C364.15 248.842 363.589 249.904 362.569 250.224C361.571 250.538 360.439 249.963 359.901 249.076C359.363 248.188 359.336 247.074 359.576 246.068C359.576 246.068 359.82 243.876 361.986 242.751Z" fill="#F03658"/>
<path d="M353.361 236.06C354.782 234.37 355.035 231.918 354.381 229.818C353.726 227.719 352.271 225.94 350.599 224.491C348.639 222.792 346.34 221.476 343.873 220.641C342.901 220.313 341.878 220.055 340.858 220.159C339.836 220.263 338.812 220.786 338.342 221.688C337.648 223.02 338.336 224.625 339.078 225.933C340.383 228.237 341.872 230.439 343.527 232.511C344.858 234.18 346.382 235.823 348.396 236.567C350.411 237.31 352.497 237.204 353.551 235.82" fill="#F03658"/>
<path d="M357.096 261.445C357.121 261.447 357.159 261.145 357.209 260.599C357.265 259.982 357.335 259.209 357.419 258.288C357.52 257.316 357.654 256.159 357.918 254.897C358.181 253.64 358.596 252.276 359.133 250.892C359.69 249.515 360.371 248.262 361.172 247.259C361.966 246.252 362.894 245.52 363.768 245.094C364.639 244.661 365.422 244.482 365.964 244.4C366.51 244.341 366.815 244.296 366.815 244.272C366.815 244.248 366.508 244.246 365.947 244.266C365.391 244.306 364.575 244.452 363.657 244.873C362.736 245.285 361.751 246.029 360.918 247.058C360.077 248.082 359.37 249.362 358.804 250.763C358.258 252.172 357.849 253.55 357.598 254.835C357.349 256.117 357.239 257.287 357.169 258.267C357.103 259.248 357.081 260.042 357.071 260.592C357.063 261.14 357.072 261.444 357.096 261.445Z" fill="#1D2A30"/>
<path d="M357.244 259.667C357.256 259.666 357.263 259.532 357.264 259.274C357.261 258.98 357.257 258.609 357.252 258.152C357.242 257.178 357.231 255.768 357.27 254.027C357.33 250.545 357.596 245.737 358.141 240.449C358.69 235.161 359.436 230.401 360.123 226.986C360.285 226.13 360.448 225.359 360.603 224.685C360.75 224.008 360.876 223.425 360.998 222.953C361.102 222.509 361.187 222.147 361.255 221.86C361.31 221.609 361.333 221.476 361.321 221.472C361.31 221.468 361.263 221.596 361.186 221.841C361.102 222.124 360.995 222.481 360.865 222.92C360.722 223.387 360.576 223.967 360.41 224.64C360.237 225.312 360.056 226.081 359.878 226.936C359.126 230.348 358.34 235.113 357.789 240.414C357.244 245.712 357.016 250.534 357.02 254.025C357.013 255.77 357.062 257.182 357.114 258.156C357.146 258.612 357.172 258.984 357.193 259.278C357.214 259.534 357.232 259.668 357.244 259.667Z" fill="#1D2A30"/>
<path d="M357.194 250.371C357.219 250.37 357.212 249.953 357.177 249.199C357.127 248.445 357.014 247.357 356.789 246.024C356.55 244.695 356.219 243.117 355.706 241.403C355.216 239.684 354.549 237.828 353.703 235.942C352.046 232.146 349.814 229.049 347.877 227.135C347.422 226.627 346.917 226.262 346.513 225.902C346.304 225.73 346.119 225.559 345.931 225.424C345.741 225.297 345.565 225.179 345.403 225.07C344.767 224.648 344.411 224.425 344.398 224.445C344.342 224.522 345.822 225.367 347.697 227.307C349.565 229.243 351.737 232.318 353.38 236.083C354.217 237.954 354.89 239.791 355.393 241.495C355.92 243.191 356.274 244.753 356.542 246.069C356.798 247.387 356.948 248.465 357.04 249.211C357.116 249.958 357.17 250.372 357.194 250.371Z" fill="#1D2A30"/>
<path d="M329.435 49.9858H329.279C327.839 49.9858 326.672 48.8335 326.672 47.4118V22.2151C326.672 20.7935 327.839 19.6405 329.279 19.6405H329.435C330.875 19.6405 332.042 20.7935 332.042 22.2151V47.4118C332.042 48.8335 330.875 49.9858 329.435 49.9858Z" fill="#E3E3E2"/>
<path d="M329.435 49.9858H329.279C327.839 49.9858 326.672 48.8335 326.672 47.4118V31.2837C326.672 29.8621 327.839 28.7097 329.279 28.7097H329.435C330.875 28.7097 332.042 29.8621 332.042 31.2837V47.4118C332.042 48.8335 330.875 49.9858 329.435 49.9858Z" fill="#F03658"/>
<path d="M338.231 49.9858H338.075C336.635 49.9858 335.468 48.8335 335.468 47.4118V22.2151C335.468 20.7935 336.635 19.6405 338.075 19.6405H338.231C339.671 19.6405 340.838 20.7935 340.838 22.2151V47.4118C340.838 48.8335 339.671 49.9858 338.231 49.9858Z" fill="#E3E3E2"/>
<path d="M338.231 49.9858H338.075C336.635 49.9858 335.468 48.8335 335.468 47.4118V35.9871C335.468 34.5655 336.635 33.4125 338.075 33.4125H338.231C339.671 33.4125 340.838 34.5655 340.838 35.9871V47.4118C340.838 48.8335 339.671 49.9858 338.231 49.9858Z" fill="#F03658"/>
<path d="M348.18 49.9858H348.024C346.585 49.9858 345.417 48.8335 345.417 47.4118V22.2151C345.417 20.7935 346.585 19.6405 348.024 19.6405H348.18C349.62 19.6405 350.788 20.7935 350.788 22.2151V47.4118C350.788 48.8335 349.62 49.9858 348.18 49.9858Z" fill="#E3E3E2"/>
<path d="M348.18 49.9858H348.024C346.585 49.9858 345.417 48.8335 345.417 47.4118V27.6964C345.417 26.2747 346.585 25.1223 348.024 25.1223H348.18C349.62 25.1223 350.788 26.2747 350.788 27.6964V47.4118C350.788 48.8335 349.62 49.9858 348.18 49.9858Z" fill="#F03658"/>
<path d="M329.435 49.9855C329.433 49.9655 329.676 49.9811 330.106 49.8628C330.523 49.745 331.166 49.4406 331.601 48.7217C331.82 48.3709 331.962 47.9188 331.963 47.4184C331.959 46.9023 331.955 46.343 331.95 45.7437C331.943 44.5375 331.934 43.1703 331.926 41.6609C331.915 38.6272 331.904 35.0279 331.89 31.0329C331.887 29.0319 331.884 26.9326 331.88 24.7569C331.88 24.2132 331.879 23.664 331.878 23.1104C331.865 22.5524 331.93 21.9925 331.768 21.4971C331.457 20.4775 330.408 19.7316 329.281 19.803C328.173 19.7886 327.148 20.5983 326.91 21.6348C326.784 22.1352 326.856 22.7127 326.835 23.2632C326.835 23.8168 326.834 24.3654 326.834 24.9097C326.831 27.086 326.827 29.186 326.824 31.1869C326.811 35.182 326.799 38.7825 326.789 41.8156C326.78 43.325 326.772 44.6921 326.765 45.8984C326.764 46.4971 326.747 47.0633 326.759 47.568C326.781 48.0684 326.962 48.5094 327.196 48.8488C327.678 49.5377 328.335 49.8008 328.758 49.9003C329.194 49.9899 329.437 49.9667 329.435 49.9855C329.435 49.9855 329.198 50.035 328.744 49.9648C328.307 49.8834 327.615 49.6335 327.091 48.9214C326.837 48.5707 326.635 48.1085 326.602 47.5781C326.581 47.0539 326.588 46.5015 326.58 45.8984C326.572 44.6921 326.565 43.325 326.555 41.8156C326.545 38.7825 326.534 35.182 326.52 31.1869C326.517 29.186 326.513 27.086 326.511 24.9097C326.51 24.3654 326.51 23.8168 326.509 23.2632C326.509 22.9864 326.509 22.7089 326.508 22.429C326.501 22.1597 326.517 21.8415 326.592 21.5572C326.86 20.3798 328.022 19.4604 329.281 19.4773C329.883 19.4485 330.522 19.6232 331.021 19.9708C331.526 20.3165 331.898 20.8319 332.082 21.4006C332.17 21.6856 332.205 21.9893 332.206 22.2774C332.206 22.5561 332.206 22.8342 332.206 23.1104C332.205 23.664 332.204 24.2132 332.204 24.7569C332.201 26.9326 332.198 29.0319 332.194 31.0329C332.181 35.0279 332.169 38.6272 332.159 41.6609C332.15 43.1703 332.142 44.5375 332.135 45.7437C332.13 46.343 332.125 46.9023 332.121 47.419C332.11 47.9501 331.949 48.4248 331.711 48.7887C331.235 49.5327 330.556 49.8258 330.124 49.9266C329.677 50.0268 329.435 49.9855 329.435 49.9855Z" fill="#1D2A30"/>
<path d="M338.23 49.9855C338.229 49.9655 338.472 49.9811 338.902 49.8628C339.318 49.745 339.961 49.4406 340.396 48.7217C340.615 48.3709 340.757 47.9188 340.758 47.4184C340.754 46.9023 340.75 46.343 340.745 45.7437C340.738 44.5375 340.73 43.1703 340.721 41.6609C340.71 38.6272 340.698 35.0279 340.685 31.0329C340.682 29.0319 340.679 26.9326 340.676 24.7569C340.676 24.2132 340.675 23.664 340.674 23.1104C340.66 22.5524 340.725 21.9925 340.563 21.4971C340.252 20.4775 339.203 19.7316 338.076 19.803C336.968 19.7886 335.943 20.5983 335.706 21.6348C335.579 22.1352 335.65 22.7127 335.63 23.2632C335.63 23.8168 335.629 24.3654 335.629 24.9097C335.626 27.086 335.622 29.186 335.619 31.1869C335.605 35.182 335.594 38.7825 335.584 41.8156C335.575 43.325 335.567 44.6921 335.559 45.8984C335.558 46.4971 335.543 47.0633 335.553 47.568C335.576 48.0684 335.758 48.5094 335.991 48.8488C336.474 49.5377 337.129 49.8008 337.552 49.9003C337.989 49.9899 338.231 49.9667 338.23 49.9855C338.23 49.9855 337.992 50.035 337.539 49.9648C337.102 49.8834 336.41 49.6335 335.886 48.9214C335.632 48.5707 335.43 48.1085 335.397 47.5781C335.375 47.0539 335.383 46.5015 335.374 45.8984C335.368 44.6921 335.359 43.325 335.35 41.8156C335.34 38.7825 335.328 35.182 335.315 31.1869C335.312 29.186 335.309 27.086 335.305 24.9097C335.305 24.3654 335.304 23.8168 335.304 23.2632C335.303 22.9864 335.303 22.7089 335.303 22.429C335.296 22.1597 335.312 21.8415 335.387 21.5572C335.655 20.3798 336.818 19.4604 338.076 19.4773C338.677 19.4485 339.317 19.6232 339.815 19.9708C340.322 20.3165 340.692 20.8319 340.877 21.4006C340.966 21.6856 341 21.9893 341.001 22.2774C341.001 22.5561 341 22.8342 341 23.1104C341 23.664 341 24.2132 340.999 24.7569C340.995 26.9326 340.993 29.0319 340.989 31.0329C340.976 35.0279 340.964 38.6272 340.954 41.6609C340.944 43.1703 340.937 44.5375 340.93 45.7437C340.925 46.343 340.92 46.9023 340.915 47.419C340.904 47.9501 340.744 48.4248 340.506 48.7887C340.03 49.5327 339.351 49.8258 338.919 49.9266C338.472 50.0268 338.23 49.9855 338.23 49.9855Z" fill="#1D2A30"/>
<path d="M348.18 49.9855C348.179 49.9655 348.421 49.9811 348.851 49.8628C349.268 49.745 349.911 49.4406 350.346 48.7217C350.565 48.3709 350.707 47.9188 350.709 47.4184C350.704 46.9023 350.7 46.343 350.695 45.7437C350.688 44.5375 350.68 43.1703 350.671 41.6609C350.661 38.6272 350.649 35.0279 350.636 31.0329C350.632 29.0319 350.629 26.9326 350.625 24.7569C350.625 24.2132 350.625 23.664 350.624 23.1104C350.61 22.5524 350.676 21.9925 350.513 21.4971C350.202 20.4775 349.153 19.7316 348.026 19.803C346.918 19.7886 345.893 20.5983 345.656 21.6348C345.529 22.1352 345.601 22.7127 345.581 23.2632C345.58 23.8168 345.579 24.3654 345.579 24.9097C345.576 27.086 345.572 29.186 345.569 31.1869C345.557 35.182 345.544 38.7825 345.534 41.8156C345.525 43.325 345.517 44.6921 345.51 45.8984C345.509 46.4971 345.493 47.0633 345.505 47.568C345.526 48.0684 345.708 48.5094 345.941 48.8488C346.424 49.5377 347.08 49.8008 347.502 49.9003C347.939 49.9899 348.182 49.9667 348.18 49.9855C348.18 49.9855 347.943 50.035 347.49 49.9648C347.052 49.8834 346.36 49.6335 345.836 48.9214C345.583 48.5707 345.381 48.1085 345.347 47.5781C345.326 47.0539 345.333 46.5015 345.325 45.8984C345.318 44.6921 345.309 43.325 345.301 41.8156C345.291 38.7825 345.278 35.182 345.265 31.1869C345.262 29.186 345.259 27.086 345.255 24.9097C345.255 24.3654 345.255 23.8168 345.254 23.2632C345.254 22.9864 345.253 22.7089 345.253 22.429C345.246 22.1597 345.263 21.8415 345.337 21.5572C345.605 20.3798 346.768 19.4604 348.026 19.4773C348.628 19.4485 349.267 19.6232 349.766 19.9708C350.272 20.3165 350.643 20.8319 350.827 21.4006C350.916 21.6856 350.95 21.9893 350.952 22.2774C350.952 22.5561 350.951 22.8342 350.951 23.1104C350.95 23.664 350.95 24.2132 350.95 24.7569C350.946 26.9326 350.943 29.0319 350.939 31.0329C350.927 35.0279 350.915 38.6272 350.905 41.6609C350.896 43.1703 350.887 44.5375 350.88 45.7437C350.875 46.343 350.87 46.9023 350.866 47.419C350.854 47.9501 350.694 48.4248 350.456 48.7887C349.98 49.5327 349.301 49.8258 348.869 49.9266C348.421 50.0268 348.18 49.9855 348.18 49.9855Z" fill="#1D2A30"/>
<path d="M338.732 0.0126419C338.732 0.000114441 338.929 -0.00301361 339.313 0.00325012C339.734 0.015152 340.3 0.0308228 341.02 0.0508652C341.394 0.0684052 341.816 0.0677567 342.278 0.106583C342.739 0.170464 343.241 0.240005 343.783 0.314529C344.329 0.392815 344.915 0.476097 345.54 0.5644C346.156 0.71534 346.81 0.875031 347.503 1.04475C350.26 1.74494 353.601 2.94117 357.016 5.14068C360.429 7.30387 363.977 10.3983 366.855 14.6026C369.68 18.8125 371.86 24.1096 372.437 30.0587C372.494 31.5467 372.675 33.0617 372.529 34.6005C372.475 35.3689 372.491 36.1499 372.377 36.9246C372.259 37.6987 372.141 38.4784 372.02 39.2644C371.379 42.3677 370.443 45.5467 368.823 48.5084C367.241 51.4763 365.201 54.3009 362.709 56.8161C360.169 59.2805 357.202 61.418 353.899 63.0651C350.607 64.7267 346.959 65.8734 343.161 66.3199C342.221 66.5041 341.258 66.5034 340.298 66.5604C339.336 66.6224 338.371 66.6575 337.402 66.6124C335.466 66.5347 333.523 66.2949 331.603 65.889C327.433 65.0122 323.506 63.3357 320.058 61.0917L320.408 61.1268C316.407 62.7125 312.48 64.2688 308.649 65.7876L307.952 66.0631L308.151 65.3492C309.338 61.0886 310.492 56.9444 311.608 52.935L311.667 53.2418C308.367 48.9111 306.263 43.9666 305.393 39.0559C304.955 36.6033 304.77 34.1546 304.935 31.7891C304.986 30.6029 305.044 29.4343 305.268 28.2982C305.358 27.7283 305.448 27.1615 305.535 26.5997C305.64 26.0411 305.813 25.4999 305.947 24.9551C308.219 16.2171 313.669 9.76265 319.067 6.06883C321.769 4.18997 324.434 2.84157 326.875 2.0011C327.483 1.78628 328.069 1.57899 328.633 1.37982C329.213 1.23453 329.77 1.09487 330.303 0.960846C330.836 0.830574 331.345 0.705963 331.83 0.586967C332.321 0.494278 332.794 0.444794 333.237 0.377159C334.126 0.265678 334.907 0.11412 335.592 0.080925C336.265 0.0590057 336.84 0.0395966 337.32 0.0233154C337.757 0.013916 338.105 0.00637817 338.375 0.000747681C338.612 -0.00113678 338.732 0.00261688 338.732 0.0126419C338.732 0.0232849 338.612 0.0395737 338.376 0.0608673C338.107 0.0821609 337.761 0.109093 337.324 0.142914C336.849 0.17485 336.277 0.213058 335.608 0.25753C334.929 0.309509 334.155 0.479225 333.275 0.607613C329.814 1.23389 324.626 2.5967 319.325 6.42392C314.033 10.1196 308.72 16.5115 306.535 25.1022C306.407 25.6371 306.24 26.1688 306.139 26.7181C306.056 27.2704 305.971 27.8266 305.886 28.3871C305.67 29.5019 305.619 30.6505 305.575 31.8141C305.422 34.1364 305.614 36.5363 306.051 38.9388C306.923 43.7474 308.998 48.5823 312.24 52.8153L312.346 52.9538L312.299 53.1229C311.191 57.1336 310.047 61.2802 308.869 65.5433L308.371 65.1056C312.201 63.5831 316.126 62.0224 320.125 60.4316L320.309 60.359L320.476 60.4673C323.85 62.6587 327.688 64.2958 331.763 65.1519C333.639 65.549 335.538 65.7838 337.431 65.8602C338.379 65.9047 339.323 65.8702 340.263 65.8101C341.202 65.7538 342.143 65.7569 343.063 65.5765C346.776 65.1431 350.343 64.0258 353.565 62.4057C356.796 60.7986 359.702 58.7131 362.194 56.3069C364.637 53.85 366.641 51.0899 368.199 48.189C369.795 45.2943 370.719 42.1823 371.36 39.1436C371.481 38.3739 371.601 37.6092 371.719 36.8507C371.835 36.0923 371.821 35.3257 371.878 34.5729C372.028 33.0629 371.854 31.5768 371.807 30.1157C371.267 24.2749 369.158 19.0617 366.407 14.8988C363.602 10.7422 360.132 7.66398 356.785 5.49453C353.435 3.28938 350.146 2.06498 347.425 1.32784C346.742 1.14809 346.095 0.977768 345.487 0.818062C344.869 0.717857 344.29 0.623917 343.749 0.53624C343.213 0.449181 342.715 0.368385 342.258 0.293854C341.8 0.243752 341.382 0.231857 341.009 0.202423C340.293 0.15107 339.731 0.110359 339.311 0.080925C338.929 0.0483627 338.732 0.0264206 338.732 0.0126419Z" fill="#1D2A30"/>
</g>
<defs>
<clipPath id="clip0_13_2440">
<rect width="412" height="262" fill="white"/>
</clipPath>
</defs>
</svg>
