<svg width="225" height="225" viewBox="0 0 225 225" fill="none" xmlns="http://www.w3.org/2000/svg">
<path d="M20.3139 54.8236L2.56055 41.2688C1.42044 40.3981 1.21945 38.7912 2.11221 37.6786L31.5701 0.981239C32.4628 -0.130787 34.1106 -0.326996 35.2509 0.54369L53.0043 14.0989C54.1445 14.9696 54.3452 16.5766 53.4525 17.6886L23.9948 54.3865C23.102 55.4986 21.4543 55.6943 20.3139 54.8236Z" fill="#F3F2F1"/>
<path d="M20.9145 49.9017C20.887 49.936 18.0048 47.7802 14.4778 45.0872C10.9493 42.3932 8.11233 40.1824 8.13985 40.148C8.16736 40.1137 11.0488 42.2696 14.5772 44.963C18.1042 47.656 20.9418 49.8674 20.9145 49.9017Z" fill="#DADBD8"/>
<path d="M47.6157 15.2015C47.5881 15.2358 44.706 13.08 41.1791 10.387C37.6507 7.69299 34.8137 5.48217 34.841 5.44832C34.8685 5.41399 37.7501 7.56937 41.2783 10.2634C44.8053 12.9564 47.6432 15.1677 47.6157 15.2015Z" fill="#DADBD8"/>
<path d="M14.1671 44.6445C14.1319 44.618 20.2298 36.9643 27.7846 27.5525C35.3424 18.1378 41.4952 10.5292 41.5305 10.5557C41.5656 10.5827 35.4694 18.2344 27.9115 27.6496C20.3567 37.0614 14.2023 44.6714 14.1671 44.6445Z" fill="#DADBD8"/>
<path d="M31.0215 12.9029L32.6247 10.804L34.6542 12.279C35.2485 12.7106 35.3714 13.5303 34.9285 14.1101C34.4856 14.6894 33.6451 14.8091 33.051 14.3775L31.0215 12.9029Z" fill="#E7E8E5"/>
<path d="M32.9855 11.0666L31.3823 13.1655L29.3528 11.691C28.7585 11.2593 28.6357 10.4392 29.0783 9.85985C29.5212 9.28054 30.3619 9.16036 30.956 9.59202L32.9855 11.0666Z" fill="#DADBD8"/>
<path d="M41.4111 20.6418L43.0145 18.5429L45.0439 20.0174C45.6382 20.4496 45.761 21.2687 45.3181 21.8485C44.8757 22.4284 44.035 22.548 43.4407 22.1159L41.4111 20.6418Z" fill="#E7E8E5"/>
<path d="M43.3749 18.8056L41.7718 20.9041L39.7424 19.4295C39.1481 18.9979 39.0253 18.1782 39.4681 17.5984C39.9106 17.0191 40.7512 16.8994 41.3456 17.3311L43.3749 18.8056Z" fill="#DADBD8"/>
<path d="M26.5176 18.6891L28.121 16.5901L30.1505 18.0651C30.7446 18.4968 30.8674 19.3169 30.4247 19.8962C29.9819 20.4756 29.1414 20.5953 28.5471 20.1636L26.5176 18.6891Z" fill="#E7E8E5"/>
<path d="M28.4816 16.8529L26.878 18.9519L24.8489 17.4774C24.2545 17.0457 24.1318 16.2255 24.5744 15.6462C25.017 15.0664 25.8577 14.9467 26.4521 15.3789L28.4816 16.8529Z" fill="#DADBD8"/>
<path d="M37.1445 26.601L38.7477 24.502L40.7772 25.9765C41.3716 26.4087 41.4943 27.2283 41.0515 27.8077C40.6089 28.3875 39.7682 28.5072 39.174 28.0755L37.1445 26.601Z" fill="#E7E8E5"/>
<path d="M39.1095 24.7643L37.5063 26.8633L35.4768 25.3888C34.8824 24.9571 34.7597 24.1369 35.2025 23.5576C35.6451 22.9778 36.4858 22.8581 37.08 23.2898L39.1095 24.7643Z" fill="#DADBD8"/>
<path d="M22.0127 24.4755L23.6159 22.377L25.6454 23.8515C26.2397 24.2832 26.3625 25.1029 25.9197 25.6827C25.4768 26.262 24.6363 26.3822 24.0422 25.95L22.0127 24.4755Z" fill="#E7E8E5"/>
<path d="M23.9785 22.6395L22.3753 24.738L20.346 23.2635C19.7518 22.8318 19.6287 22.0122 20.0715 21.4324C20.5144 20.8526 21.355 20.7329 21.9494 21.1645L23.9785 22.6395Z" fill="#DADBD8"/>
<path d="M32.8779 32.5603L34.4811 30.4613L36.5107 31.9359C37.1048 32.3675 37.2276 33.1877 36.7851 33.7675C36.3423 34.3463 35.5016 34.4665 34.9073 34.0348L32.8779 32.5603Z" fill="#E7E8E5"/>
<path d="M34.8429 30.724L33.2395 32.823L31.2101 31.348C30.6158 30.9163 30.4931 30.0966 30.9359 29.5168C31.3783 28.9375 32.219 28.8178 32.8133 29.2495L34.8429 30.724Z" fill="#DADBD8"/>
<path d="M16.9043 30.4193L18.5075 28.3203L20.537 29.7948C21.1311 30.227 21.2539 31.0467 20.8113 31.6265C20.3687 32.2058 19.528 32.3255 18.9336 31.8938L16.9043 30.4193Z" fill="#E7E8E5"/>
<path d="M18.8692 28.5827L17.2658 30.6816L15.2365 29.2071C14.6422 28.775 14.5194 27.9553 14.9623 27.3755C15.4049 26.7962 16.2454 26.6765 16.8397 27.1081L18.8692 28.5827Z" fill="#DADBD8"/>
<path d="M27.8613 38.3808L29.4645 36.2819L31.4941 37.7564C32.0884 38.1881 32.2112 39.0082 31.7685 39.5876C31.3257 40.1674 30.485 40.287 29.8909 39.8549L27.8613 38.3808Z" fill="#E7E8E5"/>
<path d="M29.8253 36.5446L28.2221 38.6436L26.1926 37.169C25.5983 36.7369 25.4755 35.9172 25.9183 35.3379V35.3374C26.3612 34.7581 27.2017 34.6384 27.796 35.0701L29.8253 36.5446Z" fill="#DADBD8"/>
<path d="M12.3926 37.1139L13.996 35.0149L16.0251 36.4899C16.6196 36.9216 16.7422 37.7413 16.2996 38.3211C15.8569 38.9004 15.0164 39.0206 14.4219 38.5884L12.3926 37.1139Z" fill="#E7E8E5"/>
<path d="M14.3566 35.2775L12.7532 37.3765L10.7237 35.9019C10.1296 35.4703 10.0068 34.6501 10.4494 34.0703C10.8923 33.491 11.7328 33.3713 12.3273 33.803L14.3566 35.2775Z" fill="#DADBD8"/>
<path d="M22.8174 44.6887L24.4208 42.5902L26.4501 44.0648C27.0444 44.4969 27.1672 45.3161 26.7246 45.8959C26.2817 46.4757 25.4412 46.5954 24.8469 46.1632L22.8174 44.6887Z" fill="#E7E8E5"/>
<path d="M24.7814 42.8527L23.1778 44.9512L21.1487 43.4766C20.5544 43.045 20.4316 42.2253 20.8742 41.6455C21.3168 41.0657 22.1575 40.946 22.7518 41.3777L24.7814 42.8527Z" fill="#DADBD8"/>
<path d="M222.941 137.171L190.632 147.905C189.261 148.361 187.772 147.646 187.305 146.309L164.766 81.7836C164.299 80.4469 165.032 78.9939 166.402 78.5382L198.711 67.804C200.082 67.3483 201.571 68.063 202.038 69.4002L224.577 133.926C225.044 135.263 224.312 136.715 222.941 137.171Z" fill="#E7E8E5"/>
<path d="M181.171 87.4687C181.684 88.9359 180.88 90.5306 179.375 91.0299C177.871 91.5298 176.236 90.7459 175.724 89.2787C175.211 87.8116 176.016 86.2169 177.52 85.717C179.024 85.2172 180.659 86.0015 181.171 87.4687Z" fill="#FAFAF9"/>
<path d="M197.019 82.2033C197.531 83.6705 196.727 85.2647 195.223 85.7645C193.719 86.2644 192.084 85.4805 191.571 84.0134C191.059 82.5462 191.863 80.9515 193.367 80.4516C194.872 79.9518 196.507 80.7361 197.019 82.2033Z" fill="#FAFAF9"/>
<path d="M186.191 101.838C186.704 103.305 185.9 104.9 184.395 105.399C182.891 105.899 181.256 105.115 180.743 103.648C180.231 102.181 181.035 100.586 182.539 100.086C184.044 99.5866 185.678 100.37 186.191 101.838Z" fill="#FAFAF9"/>
<path d="M202.039 96.573C202.551 98.0397 201.747 99.6344 200.242 100.134C198.738 100.634 197.103 99.8497 196.591 98.3826C196.078 96.9154 196.882 95.3212 198.387 94.8213C199.891 94.3215 201.526 95.1053 202.039 96.573Z" fill="#FAFAF9"/>
<path d="M191.211 116.207C191.723 117.674 190.919 119.269 189.415 119.769C187.91 120.268 186.276 119.484 185.763 118.017C185.251 116.55 186.055 114.955 187.559 114.456C189.063 113.956 190.698 114.74 191.211 116.207Z" fill="#FAFAF9"/>
<path d="M207.058 110.942C207.571 112.409 206.766 114.004 205.262 114.503C203.758 115.004 202.123 114.219 201.611 112.752C201.098 111.285 201.902 109.69 203.407 109.19C204.911 108.69 206.546 109.475 207.058 110.942Z" fill="#FAFAF9"/>
<path d="M196.229 130.577C196.742 132.044 195.938 133.638 194.433 134.138C192.929 134.638 191.294 133.853 190.781 132.386C190.269 130.919 191.073 129.325 192.578 128.825C194.081 128.325 195.717 129.109 196.229 130.577Z" fill="#FAFAF9"/>
<path d="M212.078 125.311C212.59 126.778 211.786 128.373 210.281 128.873C208.777 129.372 207.142 128.588 206.63 127.121C206.117 125.654 206.922 124.059 208.426 123.56C209.93 123.06 211.565 123.844 212.078 125.311Z" fill="#FAFAF9"/>
<path d="M179.627 85.9617C179.683 85.9897 179.18 87.0669 178.504 88.3678C177.827 89.6687 177.232 90.7007 177.176 90.6728C177.12 90.6453 177.623 89.5681 178.299 88.2667C178.976 86.9664 179.571 85.9338 179.627 85.9617Z" fill="#DADBD8"/>
<path d="M195.148 80.6817C195.204 80.7097 194.701 81.7869 194.024 83.0878C193.348 84.3892 192.753 85.4207 192.697 85.3933C192.64 85.3648 193.143 84.2881 193.82 82.9867C194.497 81.6859 195.091 80.6538 195.148 80.6817Z" fill="#DADBD8"/>
<path d="M184.793 100.332C184.851 100.356 184.406 101.488 183.799 102.858C183.191 104.23 182.652 105.321 182.594 105.297C182.536 105.272 182.981 104.141 183.588 102.77C184.196 101.399 184.735 100.307 184.793 100.332Z" fill="#DADBD8"/>
<path d="M200.45 95.0331C200.509 95.0552 200.124 96.1574 199.592 97.4946C199.058 98.8323 198.579 99.8982 198.52 99.8756C198.46 99.8536 198.845 98.7513 199.378 97.4142C199.911 96.077 200.391 95.0106 200.45 95.0331Z" fill="#DADBD8"/>
<path d="M189.34 114.641C189.398 114.665 188.99 115.702 188.43 116.955C187.87 118.209 187.368 119.205 187.31 119.18C187.252 119.156 187.66 118.12 188.22 116.866C188.78 115.613 189.282 114.616 189.34 114.641Z" fill="#DADBD8"/>
<path d="M205.574 109.618C205.63 109.646 205.137 110.665 204.472 111.892C203.806 113.119 203.222 114.09 203.166 114.061C203.111 114.032 203.604 113.014 204.269 111.788C204.934 110.561 205.519 109.589 205.574 109.618Z" fill="#DADBD8"/>
<path d="M194.791 129.212C194.847 129.242 194.312 130.298 193.599 131.572C192.885 132.846 192.261 133.854 192.206 133.825C192.151 133.795 192.684 132.739 193.398 131.465C194.112 130.192 194.735 129.183 194.791 129.212Z" fill="#DADBD8"/>
<path d="M210.603 123.484C210.661 123.508 210.212 124.712 209.599 126.174C208.986 127.638 208.442 128.804 208.384 128.781C208.326 128.758 208.775 127.553 209.387 126.09C210 124.628 210.544 123.461 210.603 123.484Z" fill="#DADBD8"/>
<path d="M216.383 133.008C216.403 133.066 211.548 134.732 205.541 136.728C199.53 138.725 194.644 140.295 194.624 140.237C194.603 140.179 199.457 138.514 205.467 136.517C211.474 134.521 216.362 132.95 216.383 133.008Z" fill="#DADBD8"/>
<path d="M194.845 75.2373C194.865 75.2961 190.011 76.9615 184.003 78.9574C177.993 80.9544 173.106 82.5251 173.086 82.4667C173.065 82.4088 177.919 80.7435 183.929 78.7465C189.937 76.7506 194.825 75.1794 194.845 75.2373Z" fill="#DADBD8"/>
<path d="M184.276 81.7326L184.192 81.7384L184.162 81.7247L184.151 81.7144L184.148 81.708L184.146 81.7046L184.145 81.7031L184.145 81.7021V81.7017L184.361 81.63L184.36 81.6295C184.374 81.6663 184.336 81.7129 184.276 81.7326C184.216 81.7527 184.157 81.7384 184.145 81.7012V81.7017L184.361 81.63V81.631L184.361 81.6325L184.362 81.6364L184.363 81.6438L184.361 81.6585L184.346 81.6874L184.276 81.7326Z" fill="#DADBD8"/>
<path d="M204.763 136.744C204.703 136.764 200.114 123.781 194.514 107.75C188.912 91.7134 184.421 78.7011 184.481 78.681C184.541 78.6614 189.129 91.6413 194.73 107.678C200.33 123.71 204.822 136.724 204.763 136.744Z" fill="#DADBD8"/>
<path d="M140.337 202.666L139.031 221.783C138.915 223.481 137.41 224.765 135.669 224.652L85.0371 221.362L86.7633 196.097L137.395 199.387C139.136 199.5 140.453 200.968 140.337 202.666Z" fill="#F3F2F1"/>
<path d="M124.152 207.954L123.067 223.833L99.7891 222.32L100.874 206.441L124.152 207.954Z" fill="#DADBD8"/>
<path d="M91.0426 195.209L89.1077 223.524C89.0689 224.091 88.567 224.519 87.9861 224.481L81.097 224.034C80.5161 223.996 80.0765 223.506 80.1157 222.94L82.0501 194.624C82.0888 194.058 82.5908 193.629 83.1717 193.667L90.0608 194.115C90.6417 194.153 91.0813 194.642 91.0426 195.209Z" fill="#E7E8E5"/>
<path d="M89.2034 222.128C89.1984 222.202 87.181 222.131 84.6984 221.97C82.2147 221.809 80.2059 221.617 80.2109 221.543C80.216 221.47 82.2329 221.54 84.7165 221.701C87.1996 221.863 89.2084 222.054 89.2034 222.128Z" fill="#DADBD8"/>
<path d="M89.3704 219.678C89.3654 219.752 87.348 219.681 84.8649 219.52C82.3812 219.359 80.3729 219.167 80.3779 219.094C80.383 219.02 82.3999 219.09 84.8835 219.251C87.3666 219.413 89.3754 219.604 89.3704 219.678Z" fill="#DADBD8"/>
<path d="M89.5374 217.227C89.5324 217.302 87.515 217.231 85.0319 217.07C82.5482 216.908 80.5399 216.717 80.5449 216.644C80.55 216.569 82.5668 216.64 85.0505 216.801C87.5331 216.962 89.5424 217.154 89.5374 217.227Z" fill="#DADBD8"/>
<path d="M89.7054 214.778C89.6998 214.851 87.6829 214.781 85.1998 214.619C82.7162 214.458 80.7079 214.267 80.7129 214.193C80.7179 214.119 82.7348 214.189 85.2184 214.351C87.7011 214.512 89.7104 214.703 89.7054 214.778Z" fill="#DADBD8"/>
<path d="M89.8733 212.327C89.8678 212.401 87.8509 212.331 85.3678 212.169C82.8842 212.008 80.8753 211.817 80.8809 211.743C80.8859 211.668 82.9028 211.74 85.3864 211.901C87.869 212.062 89.8779 212.253 89.8733 212.327Z" fill="#DADBD8"/>
<path d="M90.0398 209.877C90.0348 209.951 88.0179 209.881 85.5348 209.719C83.0512 209.558 81.0423 209.367 81.0479 209.293C81.0524 209.218 83.0698 209.29 85.5534 209.451C88.036 209.612 90.0448 209.803 90.0398 209.877Z" fill="#DADBD8"/>
<path d="M90.2073 207.427C90.2023 207.501 88.1849 207.43 85.7023 207.269C83.2187 207.107 81.2098 206.917 81.2149 206.842C81.2199 206.768 83.2368 206.839 85.7209 207.001C88.2035 207.161 90.2123 207.352 90.2073 207.427Z" fill="#DADBD8"/>
<path d="M90.3743 204.977C90.3693 205.051 88.3519 204.98 85.8693 204.818C83.3856 204.657 81.3768 204.467 81.3818 204.392C81.3869 204.318 83.4038 204.389 85.8874 204.55C88.3705 204.712 90.3793 204.902 90.3743 204.977Z" fill="#DADBD8"/>
<path d="M90.5423 202.527C90.5372 202.601 88.5199 202.529 86.0372 202.368C83.5536 202.207 81.5448 202.016 81.5498 201.942C81.5548 201.868 83.5717 201.938 86.0553 202.1C88.538 202.262 90.5473 202.452 90.5423 202.527Z" fill="#DADBD8"/>
<path d="M90.7093 200.076C90.7037 200.15 88.6869 200.079 86.2042 199.918C83.7206 199.756 81.7118 199.566 81.7168 199.492C81.7218 199.418 83.7387 199.488 86.2223 199.649C88.705 199.811 90.7143 200.002 90.7093 200.076Z" fill="#DADBD8"/>
<path d="M90.8772 197.626C90.8717 197.7 88.8548 197.629 86.3717 197.468C83.8881 197.307 81.8792 197.115 81.8848 197.041C81.8898 196.967 83.9067 197.038 86.3903 197.199C88.8729 197.361 90.8818 197.552 90.8772 197.626Z" fill="#DADBD8"/>
<path d="M91.0437 195.175C91.0387 195.25 89.0218 195.179 86.5387 195.018C84.0551 194.857 82.0462 194.665 82.0518 194.591C82.0563 194.517 84.0737 194.588 86.5573 194.749C89.0399 194.91 91.0488 195.101 91.0437 195.175Z" fill="#DADBD8"/>
<path d="M131.524 213.157L136.02 213.449L135.688 218.297C135.632 219.113 134.908 219.732 134.07 219.677L132.609 219.582C131.771 219.528 131.137 218.821 131.193 218.004L131.524 213.157Z" fill="#E7E8E5"/>
<path d="M135.97 214.185L131.475 213.893L131.806 209.046C131.861 208.229 132.586 207.611 133.424 207.665L134.885 207.76C135.723 207.815 136.357 208.52 136.301 209.338L135.97 214.185Z" fill="#DADBD8"/>
<path d="M117.474 205.096L118.639 200.852L123.45 202.108C124.262 202.32 124.743 203.133 124.526 203.923L124.147 205.304C123.93 206.094 123.097 206.564 122.285 206.352L117.474 205.096Z" fill="#E7E8E5"/>
<path d="M119.369 201.043L118.203 205.287L113.392 204.031C112.581 203.819 112.1 203.006 112.317 202.216L112.696 200.835C112.913 200.044 113.746 199.575 114.557 199.787L119.369 201.043Z" fill="#DADBD8"/>
<path d="M130.984 206.361L129.779 202.127L134.579 200.828C135.388 200.609 136.226 201.072 136.45 201.86L136.842 203.237C137.067 204.026 136.593 204.843 135.784 205.062L130.984 206.361Z" fill="#E7E8E5"/>
<path d="M130.508 201.93L131.713 206.164L126.913 207.463C126.104 207.682 125.266 207.22 125.041 206.431L124.65 205.055C124.425 204.265 124.899 203.448 125.708 203.229L130.508 201.93Z" fill="#DADBD8"/>
<path d="M125.685 212.471L129.856 214.131L127.975 218.629C127.658 219.387 126.771 219.751 125.993 219.442L124.637 218.902C123.859 218.593 123.486 217.728 123.804 216.97L125.685 212.471Z" fill="#E7E8E5"/>
<path d="M129.57 214.814L125.398 213.155L127.28 208.656C127.597 207.898 128.484 207.534 129.261 207.843L130.618 208.383C131.395 208.692 131.768 209.558 131.452 210.316L129.57 214.814Z" fill="#DADBD8"/>
<path d="M196.17 26.5564L199.549 30.7926C199.68 30.9569 199.649 31.1944 199.481 31.3219L195.114 34.6344C193.746 35.6719 191.774 35.4315 190.71 34.0973C189.646 32.7631 189.892 30.8402 191.261 29.8022L195.628 26.4902C195.797 26.3622 196.039 26.3921 196.17 26.5564Z" fill="#E7E8E5"/>
<path d="M198.716 31.4234L195.338 27.1872C195.207 27.0229 195.237 26.7855 195.406 26.6574L199.773 23.3454C201.142 22.3079 203.113 22.5483 204.177 23.8825C205.241 25.2162 204.995 27.1396 203.626 28.1771L199.259 31.4896C199.091 31.6176 198.848 31.5877 198.716 31.4234Z" fill="#DADBD8"/>
<path d="M2.57451 127.018L7.7464 128.85C7.94698 128.921 8.05054 129.138 7.97761 129.334L6.08858 134.405C5.49639 135.993 3.69635 136.813 2.06723 136.236C0.438296 135.659 -0.402397 133.903 0.189566 132.314L2.07882 127.243C2.15171 127.047 2.37352 126.946 2.57451 127.018Z" fill="#E7E8E5"/>
<path d="M7.38666 129.816L2.21482 127.983C2.01403 127.912 1.91029 127.696 1.98338 127.5L3.87263 122.429C4.46439 120.84 6.26466 120.02 7.8936 120.597C9.5229 121.174 10.3638 122.93 9.77181 124.519L7.88238 129.59C7.8095 129.786 7.5875 129.887 7.38666 129.816Z" fill="#DADBD8"/>
<path d="M219.711 224.229C219.711 224.3 171.509 224.356 112.062 224.356C52.5943 224.356 4.40234 224.3 4.40234 224.229C4.40234 224.158 52.5943 224.101 112.062 224.101C171.509 224.101 219.711 224.158 219.711 224.229Z" fill="#17282F"/>
<path d="M178.592 176.735H57.3929C54.5869 176.735 52.3125 174.517 52.3125 171.781V12.4805C52.3125 9.74384 54.5869 7.52565 57.3929 7.52565H178.592C181.397 7.52565 183.672 9.74384 183.672 12.4805V171.781C183.672 174.517 181.397 176.735 178.592 176.735Z" fill="#33535F"/>
<path d="M61.1094 165.108H174.876V15.5223H61.1094V165.108Z" fill="white"/>
<path d="M174.876 165.108C174.875 164.088 174.828 104.094 174.758 15.5223L174.876 15.638C140.689 15.6415 101.976 15.6459 61.1224 15.6503H61.1093L61.2406 15.5223C61.2315 71.3125 61.2235 123.001 61.2164 165.108L61.1093 165.004C130.011 165.067 173.99 165.107 174.876 165.108C173.991 165.109 130.011 165.15 61.1093 165.213H61.0022V165.108C60.9956 123.001 60.9871 71.3125 60.9785 15.5223V15.3947H61.1093H61.1224C101.976 15.3987 140.689 15.4031 174.876 15.407H174.995L174.994 15.5223C174.925 104.094 174.877 164.089 174.876 165.108Z" fill="#17282F"/>
<path d="M84.2539 29.9283C83.7555 29.5094 83.0277 29.2999 82.0711 29.2999H79.4758V34.1655H82.0711C83.0277 34.1655 83.7555 33.9531 84.2539 33.5273C84.7519 33.102 85.0008 32.504 85.0008 31.7329C85.0008 30.9486 84.7519 30.3472 84.2539 29.9283ZM85.0602 40.6267L82.4056 36.7378H79.4758V40.6267H76.29V26.6677H82.2481C83.4673 26.6677 84.5255 26.8743 85.4238 27.2863C86.3216 27.6983 87.0132 28.2831 87.498 29.0409C87.9834 29.7988 88.2258 30.696 88.2258 31.7329C88.2258 32.7699 87.9799 33.6641 87.4885 34.4151C86.9971 35.1661 86.299 35.741 85.3942 36.1398L88.4813 40.6267H85.0602Z" fill="#F2575D"/>
<path d="M92.0246 50.2783L88.876 45.6865L85.7828 50.2783H82.3174L87.1428 43.5517L82.5593 37.0517H85.988L88.9877 41.3409L91.9315 37.0517H95.1922L90.6459 43.4384L95.5091 50.2783H92.0246Z" fill="#F2575D"/>
<path d="M135.367 34.7197H115.845V30.0057H135.367V34.7197Z" fill="#DADBD8"/>
<path d="M164 32.9816C164 33.0522 158.659 33.1096 152.073 33.1096C145.483 33.1096 140.145 33.0522 140.145 32.9816C140.145 32.9114 145.483 32.8541 152.073 32.8541C158.659 32.8541 164 32.9114 164 32.9816Z" fill="#17282F"/>
<path d="M163.554 38.6342C163.554 38.7048 152.873 38.7622 139.7 38.7622C126.523 38.7622 115.845 38.7048 115.845 38.6342C115.845 38.564 126.523 38.5066 139.7 38.5066C152.873 38.5066 163.554 38.564 163.554 38.6342Z" fill="#17282F"/>
<path d="M163.554 44.172C163.554 44.2427 152.873 44.2996 139.7 44.2996C126.523 44.2996 115.845 44.2427 115.845 44.172C115.845 44.1019 126.523 44.0445 139.7 44.0445C152.873 44.0445 163.554 44.1019 163.554 44.172Z" fill="#17282F"/>
<path d="M170.997 58.9369C170.997 59.0076 147.264 59.0645 117.995 59.0645C88.716 59.0645 64.9883 59.0076 64.9883 58.9369C64.9883 58.8663 88.716 58.8094 117.995 58.8094C147.264 58.8094 170.997 58.8663 170.997 58.9369Z" fill="#17282F"/>
<path d="M170.997 142.562C170.997 142.634 147.264 142.69 117.995 142.69C88.716 142.69 64.9883 142.634 64.9883 142.562C64.9883 142.492 88.716 142.435 117.995 142.435C147.264 142.435 170.997 142.492 170.997 142.562Z" fill="#17282F"/>
<path d="M106.43 73.386H73.7207V67.403H106.43V73.386Z" fill="#DADBD8"/>
<path d="M87.8816 157.083H73.7207V151.101H87.8816V157.083Z" fill="#DADBD8"/>
<path d="M135.42 157.083H121.259V151.101H135.42V157.083Z" fill="#DADBD8"/>
<path d="M111.61 155.246C111.61 155.316 107.189 155.374 101.736 155.374C96.2809 155.374 91.8604 155.316 91.8604 155.246C91.8604 155.175 96.2809 155.118 101.736 155.118C107.189 155.118 111.61 155.175 111.61 155.246Z" fill="#17282F"/>
<path d="M162.449 155.246C162.449 155.316 158.027 155.374 152.574 155.374C147.119 155.374 142.698 155.316 142.698 155.246C142.698 155.175 147.119 155.118 152.574 155.118C158.027 155.118 162.449 155.175 162.449 155.246Z" fill="#17282F"/>
<path d="M161.274 82.3957C161.274 82.4663 141.899 82.5237 118.004 82.5237C94.1006 82.5237 74.7295 82.4663 74.7295 82.3957C74.7295 82.3255 94.1006 82.2681 118.004 82.2681C141.899 82.2681 161.274 82.3255 161.274 82.3957Z" fill="#17282F"/>
<path d="M162.958 89.2257C162.958 89.2964 143.206 89.3533 118.846 89.3533C94.4773 89.3533 74.7295 89.2964 74.7295 89.2257C74.7295 89.1551 94.4773 89.0982 118.846 89.0982C143.206 89.0982 162.958 89.1551 162.958 89.2257Z" fill="#17282F"/>
<path d="M117.498 96.0561C117.498 96.1267 107.697 96.1836 95.6097 96.1836C83.5184 96.1836 73.7197 96.1267 73.7197 96.0561C73.7197 95.9854 83.5184 95.9285 95.6097 95.9285C107.697 95.9285 117.498 95.9854 117.498 96.0561Z" fill="#17282F"/>
<path d="M162.307 120.832C162.307 120.832 162.21 120.869 162.018 120.928C161.825 120.987 161.538 121.077 161.159 121.182C160.401 121.393 159.279 121.705 157.798 121.949C157.058 122.07 156.227 122.169 155.311 122.176C154.398 122.185 153.393 122.11 152.361 121.82C151.329 121.534 150.286 121.004 149.376 120.207C148.489 119.398 147.767 118.262 147.578 116.937C147.491 116.278 147.546 115.572 147.829 114.922C148.116 114.278 148.597 113.701 149.226 113.297C149.845 112.889 150.65 112.676 151.433 112.84C151.821 112.929 152.178 113.114 152.501 113.349C152.811 113.6 153.066 113.913 153.266 114.258C153.643 114.961 153.805 115.765 153.803 116.57C153.809 117.377 153.654 118.197 153.348 118.973C152.713 120.507 151.644 121.931 150.218 122.989C149.513 123.53 148.716 123.962 147.88 124.329C147.029 124.653 146.141 124.945 145.206 125.047C144.278 125.163 143.317 125.187 142.373 125.016C141.895 124.966 141.436 124.805 140.97 124.682C140.522 124.502 140.061 124.345 139.635 124.108C138.781 123.641 138.002 123.027 137.363 122.279C136.732 121.531 136.231 120.644 136.024 119.668C135.794 118.705 135.888 117.632 136.378 116.734C136.849 115.835 137.628 115.075 138.599 114.661C139.081 114.452 139.621 114.353 140.15 114.401C140.679 114.448 141.194 114.639 141.617 114.94C142.481 115.546 142.965 116.508 143.207 117.458C143.449 118.419 143.488 119.413 143.372 120.372C143.27 121.332 143.052 122.273 142.724 123.166C142.077 124.954 141.002 126.576 139.565 127.762C138.142 128.966 136.336 129.643 134.548 129.765C132.759 129.898 130.96 129.441 129.574 128.465C128.183 127.488 127.257 126.049 126.814 124.56C126.37 123.069 126.407 121.478 126.983 120.136C127.255 119.457 127.718 118.866 128.303 118.452C128.597 118.249 128.932 118.093 129.291 118.041C129.651 117.99 130.024 118.064 130.33 118.236C130.966 118.586 131.238 119.279 131.325 119.893C131.416 120.521 131.373 121.144 131.25 121.724C131.036 122.889 130.668 123.955 130.222 124.901C129.778 125.851 129.247 126.679 128.694 127.389C128.142 128.1 127.576 128.705 127.017 129.194C125.91 130.189 124.894 130.775 124.189 131.118C123.843 131.303 123.558 131.403 123.373 131.482C123.186 131.557 123.088 131.59 123.088 131.59C123.088 131.59 123.179 131.541 123.363 131.458C123.544 131.371 123.824 131.264 124.166 131.073C124.859 130.716 125.859 130.119 126.948 129.121C127.498 128.63 128.053 128.025 128.594 127.316C129.137 126.608 129.657 125.784 130.089 124.842C130.523 123.902 130.88 122.847 131.086 121.695C131.204 121.124 131.241 120.52 131.151 119.918C131.064 119.327 130.803 118.697 130.238 118.393C129.964 118.241 129.639 118.178 129.319 118.224C128.998 118.271 128.69 118.415 128.416 118.606C127.868 118.996 127.426 119.562 127.171 120.21C126.619 121.508 126.587 123.051 127.023 124.501C127.458 125.948 128.363 127.344 129.708 128.282C131.049 129.222 132.792 129.663 134.531 129.53C136.269 129.408 138.021 128.748 139.403 127.576C140.801 126.42 141.85 124.835 142.482 123.083C142.803 122.207 143.015 121.286 143.114 120.345C143.227 119.408 143.188 118.444 142.954 117.52C142.721 116.605 142.257 115.702 141.464 115.148C140.682 114.583 139.603 114.488 138.702 114.896C137.797 115.281 137.055 116.001 136.611 116.85C136.15 117.698 136.061 118.691 136.278 119.615C136.696 121.483 138.121 122.994 139.76 123.889C140.172 124.119 140.619 124.271 141.053 124.448C141.505 124.565 141.949 124.723 142.414 124.771C143.331 124.94 144.267 124.916 145.172 124.805C146.084 124.708 146.951 124.422 147.784 124.108C148.601 123.751 149.381 123.33 150.07 122.802C151.466 121.772 152.511 120.384 153.133 118.892C153.43 118.144 153.583 117.35 153.579 116.571C153.584 115.792 153.427 115.021 153.075 114.358C152.887 114.035 152.652 113.745 152.367 113.511C152.071 113.295 151.74 113.123 151.386 113.04C150.673 112.888 149.924 113.078 149.336 113.462C148.741 113.84 148.281 114.389 148.007 114.996C147.738 115.607 147.681 116.281 147.762 116.913C147.937 118.187 148.63 119.298 149.49 120.09C150.373 120.87 151.392 121.396 152.402 121.683C153.415 121.975 154.405 122.056 155.31 122.055C156.217 122.055 157.045 121.964 157.782 121.851C159.258 121.624 160.383 121.327 161.145 121.133C161.518 121.033 161.806 120.957 162.01 120.903C162.205 120.852 162.307 120.832 162.307 120.832Z" fill="#17282F"/>
<path d="M136.974 20.2427H99.0098V6.08799H136.974V20.2427Z" fill="#DADBD8"/>
<path d="M136.974 20.2428C136.974 20.2428 136.968 20.1535 136.965 19.9868C136.962 19.8116 136.959 19.5674 136.955 19.2525C136.95 18.6001 136.943 17.6553 136.933 16.4403C136.921 13.9974 136.905 10.4705 136.884 6.08814L136.974 6.17595C127.486 6.18625 113.981 6.20048 99.0122 6.21569H99.0107H99.0102H99.0097L99.1405 6.08814C99.1389 11.0341 99.1369 15.8153 99.1354 20.2428L99.0097 20.1202C109.973 20.1433 119.446 20.1634 126.189 20.1776C129.559 20.1923 132.247 20.2041 134.103 20.2119C135.022 20.2188 135.735 20.2237 136.229 20.2276C136.465 20.2311 136.647 20.2335 136.782 20.235C136.906 20.2379 136.974 20.2428 136.974 20.2428C136.976 20.2458 136.917 20.2482 136.797 20.2507C136.666 20.2526 136.489 20.2551 136.26 20.258C135.771 20.262 135.068 20.2669 134.161 20.2737C132.311 20.2821 129.633 20.2934 126.275 20.3081C119.51 20.3223 110.007 20.3424 99.0097 20.3655L98.8839 20.366V20.2428C98.8824 15.8153 98.8804 11.0341 98.8789 6.08814L99.0097 5.9606H99.0102H99.0107H99.0122C113.981 5.9763 127.486 5.99004 136.974 6.00034H137.064V6.08814C137.043 10.4931 137.027 14.0381 137.015 16.4932C137.005 17.6999 136.998 18.6383 136.993 19.2858C136.989 19.5944 136.986 19.8328 136.983 20.0044C136.98 20.1653 136.974 20.2428 136.974 20.2428Z" fill="#17282F"/>
<path d="M182.443 224.013H157.858C156.761 224.013 155.87 223.152 155.86 222.083L155.265 157.418H183.845L184.44 222.047C184.451 223.13 183.553 224.013 182.443 224.013Z" fill="#F2575D"/>
<path d="M180.444 221.798C179.577 221.798 178.827 221.554 178.827 221.554V171.76H183.135C183.135 171.76 183.246 215.988 183.047 219.424C182.934 221.377 181.587 221.798 180.444 221.798Z" fill="#F57E87"/>
<path d="M181.136 154.139H157.975C157.145 154.139 156.473 154.795 156.473 155.604V157.034H182.638V155.604C182.638 154.795 181.966 154.139 181.136 154.139Z" fill="#FAFAF9"/>
<path d="M181.136 154.139C181.136 154.139 181.221 154.122 181.387 154.144C181.55 154.167 181.805 154.222 182.072 154.417C182.335 154.606 182.612 154.948 182.677 155.428C182.704 155.901 182.693 156.429 182.702 157.033L182.704 157.096L182.638 157.097C177.844 157.135 168.587 157.161 157.976 157.161C157.461 157.161 156.949 157.161 156.473 157.161H156.341L156.342 157.033C156.342 156.575 156.342 156.119 156.342 155.666C156.321 155.184 156.548 154.686 156.932 154.38C157.123 154.226 157.35 154.116 157.59 154.059C157.835 153.997 158.077 154.016 158.294 154.013C158.744 154.014 159.189 154.014 159.631 154.015C161.398 154.018 163.099 154.021 164.717 154.023C167.949 154.033 170.85 154.043 173.289 154.05C175.706 154.067 177.663 154.081 179.036 154.09C179.699 154.1 180.22 154.108 180.594 154.114C180.76 154.119 180.893 154.123 180.998 154.126C181.089 154.13 181.136 154.134 181.136 154.139C181.136 154.143 181.089 154.148 180.998 154.151C180.893 154.154 180.76 154.158 180.594 154.164C180.22 154.169 179.699 154.177 179.036 154.187C177.663 154.196 175.706 154.21 173.289 154.227C170.85 154.234 167.949 154.244 164.717 154.254C163.099 154.257 161.398 154.259 159.631 154.262C159.189 154.263 158.744 154.263 158.294 154.264C158.063 154.267 157.847 154.251 157.65 154.304C157.449 154.352 157.259 154.444 157.097 154.574C156.372 155.109 156.664 156.137 156.603 157.033L156.473 156.906C156.949 156.906 157.461 156.906 157.976 156.906C168.587 156.906 177.844 156.932 182.638 156.971L182.574 157.033C182.574 156.433 182.594 155.889 182.577 155.439C182.527 154.989 182.275 154.659 182.031 154.47C181.512 154.094 181.122 154.171 181.136 154.139Z" fill="#17282F"/>
<path d="M185.525 171.76H153.584C152.85 171.76 152.255 171.179 152.255 170.464V157.648C152.255 156.932 152.85 156.352 153.584 156.352H185.525C186.259 156.352 186.854 156.932 186.854 157.648V170.464C186.854 171.179 186.259 171.76 185.525 171.76Z" fill="#FAFAF9"/>
<path d="M185.526 171.76C185.525 171.751 185.613 171.756 185.776 171.723C185.936 171.688 186.182 171.607 186.416 171.389C187.001 170.957 186.767 169.914 186.803 168.723C186.793 166.281 186.779 162.767 186.762 158.428C186.76 158.157 186.759 157.884 186.757 157.607C186.751 157.348 186.649 157.092 186.479 156.887C186.306 156.686 186.064 156.535 185.794 156.478C185.532 156.427 185.215 156.459 184.915 156.451C183.698 156.453 182.433 156.456 181.123 156.458C178.502 156.462 175.702 156.465 172.757 156.47C166.863 156.473 160.386 156.476 153.587 156.48C153.202 156.479 152.826 156.668 152.607 156.974C152.494 157.125 152.427 157.304 152.399 157.486C152.377 157.661 152.391 157.883 152.387 158.083C152.386 158.902 152.386 159.716 152.386 160.523C152.385 162.138 152.385 163.73 152.384 165.294C152.383 166.857 152.382 168.394 152.381 169.898L152.38 170.46C152.38 170.631 152.418 170.799 152.49 170.952C152.634 171.258 152.916 171.501 153.246 171.591C153.412 171.641 153.576 171.642 153.77 171.64L154.332 171.641C154.704 171.641 155.075 171.641 155.443 171.642C161.334 171.652 166.64 171.662 171.1 171.669C175.549 171.686 179.152 171.7 181.655 171.71C182.892 171.72 183.858 171.728 184.525 171.734C184.844 171.739 185.092 171.743 185.271 171.746C185.44 171.751 185.526 171.76 185.526 171.76C185.526 171.76 185.44 171.768 185.271 171.772C185.092 171.775 184.844 171.78 184.525 171.786C183.858 171.791 182.892 171.799 181.655 171.809C179.152 171.819 175.549 171.833 171.1 171.849C166.64 171.858 161.334 171.867 155.443 171.877C155.075 171.877 154.704 171.878 154.332 171.878L153.77 171.879C153.592 171.881 153.374 171.882 153.177 171.822C152.779 171.713 152.439 171.423 152.264 171.053C152.177 170.868 152.131 170.664 152.131 170.46L152.131 169.898C152.129 168.394 152.128 166.857 152.127 165.294C152.127 163.73 152.126 162.138 152.125 160.523C152.125 159.716 152.125 158.902 152.125 158.083C152.13 157.874 152.113 157.684 152.14 157.451C152.173 157.229 152.256 157.01 152.393 156.826C152.659 156.454 153.119 156.222 153.587 156.225C160.386 156.228 166.863 156.231 172.757 156.234C175.702 156.238 178.502 156.242 181.123 156.246C182.433 156.249 183.698 156.252 184.915 156.254C185.221 156.265 185.511 156.229 185.837 156.29C186.151 156.357 186.431 156.533 186.629 156.768C186.825 157.006 186.941 157.302 186.947 157.601C186.947 157.88 186.947 158.155 186.947 158.428C186.93 162.767 186.915 166.281 186.906 168.723C186.901 169.33 186.896 169.869 186.893 170.339C186.922 170.819 186.702 171.215 186.452 171.427C186.202 171.647 185.946 171.722 185.781 171.748C185.613 171.774 185.526 171.76 185.526 171.76Z" fill="#17282F"/>
<path d="M154.264 171.506C154.191 171.506 154.133 168.226 154.133 164.182C154.133 160.136 154.191 156.856 154.264 156.856C154.336 156.856 154.394 160.136 154.394 164.182C154.394 168.226 154.336 171.506 154.264 171.506Z" fill="#17282F"/>
<path d="M156.88 171.506C156.808 171.506 156.749 168.226 156.749 164.182C156.749 160.136 156.808 156.856 156.88 156.856C156.952 156.856 157.011 160.136 157.011 164.182C157.011 168.226 156.952 171.506 156.88 171.506Z" fill="#17282F"/>
<path d="M159.497 171.506C159.425 171.506 159.366 168.226 159.366 164.182C159.366 160.136 159.425 156.856 159.497 156.856C159.569 156.856 159.628 160.136 159.628 164.182C159.628 168.226 159.569 171.506 159.497 171.506Z" fill="#17282F"/>
<path d="M162.113 171.506C162.041 171.506 161.982 168.226 161.982 164.182C161.982 160.136 162.041 156.856 162.113 156.856C162.185 156.856 162.244 160.136 162.244 164.182C162.244 168.226 162.185 171.506 162.113 171.506Z" fill="#17282F"/>
<path d="M164.73 171.506C164.658 171.506 164.6 168.226 164.6 164.182C164.6 160.136 164.658 156.856 164.73 156.856C164.803 156.856 164.862 160.136 164.862 164.182C164.862 168.226 164.803 171.506 164.73 171.506Z" fill="#17282F"/>
<path d="M167.347 171.506C167.275 171.506 167.216 168.226 167.216 164.182C167.216 160.136 167.275 156.856 167.347 156.856C167.42 156.856 167.478 160.136 167.478 164.182C167.478 168.226 167.42 171.506 167.347 171.506Z" fill="#17282F"/>
<path d="M169.963 171.506C169.89 171.506 169.832 168.226 169.832 164.182C169.832 160.136 169.89 156.856 169.963 156.856C170.035 156.856 170.094 160.136 170.094 164.182C170.094 168.226 170.035 171.506 169.963 171.506Z" fill="#17282F"/>
<path d="M172.579 171.506C172.507 171.506 172.448 168.226 172.448 164.182C172.448 160.136 172.507 156.856 172.579 156.856C172.651 156.856 172.71 160.136 172.71 164.182C172.71 168.226 172.651 171.506 172.579 171.506Z" fill="#17282F"/>
<path d="M175.197 171.506C175.124 171.506 175.065 168.226 175.065 164.182C175.065 160.136 175.124 156.856 175.197 156.856C175.269 156.856 175.327 160.136 175.327 164.182C175.327 168.226 175.269 171.506 175.197 171.506Z" fill="#17282F"/>
<path d="M177.812 171.506C177.74 171.506 177.682 168.226 177.682 164.182C177.682 160.136 177.74 156.856 177.812 156.856C177.884 156.856 177.944 160.136 177.944 164.182C177.944 168.226 177.884 171.506 177.812 171.506Z" fill="#17282F"/>
<path d="M180.429 171.506C180.356 171.506 180.298 168.226 180.298 164.182C180.298 160.136 180.356 156.856 180.429 156.856C180.501 156.856 180.56 160.136 180.56 164.182C180.56 168.226 180.501 171.506 180.429 171.506Z" fill="#17282F"/>
<path d="M183.046 171.506C182.974 171.506 182.915 168.226 182.915 164.182C182.915 160.136 182.974 156.856 183.046 156.856C183.119 156.856 183.177 160.136 183.177 164.182C183.177 168.226 183.119 171.506 183.046 171.506Z" fill="#17282F"/>
<path d="M185.662 171.506C185.589 171.506 185.53 168.226 185.53 164.182C185.53 160.136 185.589 156.856 185.662 156.856C185.734 156.856 185.792 160.136 185.792 164.182C185.792 168.226 185.734 171.506 185.662 171.506Z" fill="#17282F"/>
<path d="M182.243 202.684H157.504V183.365H182.243V202.684Z" fill="white"/>
<path d="M161.578 187.286C161.471 187.198 161.313 187.155 161.105 187.155H160.542V188.17H161.105C161.313 188.17 161.471 188.125 161.578 188.036C161.686 187.948 161.741 187.823 161.741 187.663C161.741 187.499 161.686 187.373 161.578 187.286ZM161.753 189.517L161.178 188.706H160.542V189.517H159.852V186.606H161.144C161.408 186.606 161.638 186.649 161.832 186.735C162.027 186.821 162.177 186.943 162.282 187.1C162.388 187.259 162.44 187.446 162.44 187.663C162.44 187.878 162.387 188.065 162.28 188.221C162.173 188.378 162.022 188.499 161.826 188.582L162.496 189.517H161.753Z" fill="#17282F"/>
<path d="M163.265 191.53L162.582 190.572L161.911 191.53H161.159L162.206 190.126L161.212 188.771H161.955L162.606 189.666L163.244 188.771H163.952L162.965 190.103L164.021 191.53H163.265Z" fill="#17282F"/>
<path d="M180.429 188.692H166.302V186.597H180.429V188.692Z" fill="#DADBD8"/>
<path d="M178.826 193.892C178.826 193.963 174.7 194.02 169.611 194.02C164.521 194.02 160.396 193.963 160.396 193.892C160.396 193.821 164.521 193.764 169.611 193.764C174.7 193.764 178.826 193.821 178.826 193.892Z" fill="#17282F"/>
<path d="M178.826 196.074C178.826 196.144 174.7 196.202 169.611 196.202C164.521 196.202 160.396 196.144 160.396 196.074C160.396 196.004 164.521 195.946 169.611 195.946C174.7 195.946 178.826 196.004 178.826 196.074Z" fill="#17282F"/>
<path d="M168.613 200.597H159.066V198.802H168.613V200.597Z" fill="#DADBD8"/>
<path d="M181.683 202.092C181.683 202.092 181.675 201.972 181.671 201.748C181.668 201.513 181.664 201.186 181.659 200.765C181.652 199.897 181.642 198.644 181.631 197.053C181.617 193.857 181.598 189.301 181.574 183.808L181.683 183.914C174.907 183.92 166.751 183.928 157.97 183.936C157.939 183.963 158.215 183.695 158.098 183.811V183.816V183.825V183.845V183.883V183.96V184.115V184.423V185.039C158.098 185.448 158.098 185.856 158.098 186.262C158.098 187.075 158.098 187.882 158.098 188.681C158.097 190.279 158.096 191.847 158.095 193.38C158.091 196.445 158.088 199.367 158.085 202.092L157.968 201.977C164.989 202.001 170.901 202.021 175.071 202.035C177.15 202.048 178.795 202.058 179.934 202.065C180.49 202.072 180.922 202.076 181.229 202.079C181.368 202.082 181.478 202.084 181.564 202.086C181.64 202.088 181.681 202.09 181.683 202.092C181.685 202.095 181.65 202.097 181.578 202.099C181.495 202.101 181.389 202.103 181.255 202.105C180.954 202.109 180.53 202.113 179.984 202.119C178.851 202.126 177.215 202.137 175.148 202.15C170.958 202.163 165.02 202.183 157.968 202.207L157.85 202.207V202.092C157.847 199.367 157.844 196.445 157.84 193.38C157.839 191.847 157.838 190.279 157.837 188.681C157.837 187.882 157.837 187.075 157.837 186.262C157.837 185.856 157.837 185.448 157.837 185.039V184.423V184.115V183.96V183.883V183.845V183.825V183.816V183.811C157.72 183.923 157.996 183.652 157.97 183.68C166.751 183.688 174.907 183.696 181.683 183.702H181.792L181.791 183.808C181.768 189.328 181.749 193.907 181.735 197.12C181.723 198.701 181.714 199.945 181.707 200.808C181.702 201.22 181.698 201.541 181.695 201.771C181.691 201.987 181.683 202.092 181.683 202.092Z" fill="#17282F"/>
<path d="M156.88 218.74C156.808 218.74 156.749 208.655 156.749 196.216C156.749 183.774 156.808 173.69 156.88 173.69C156.952 173.69 157.011 183.774 157.011 196.216C157.011 208.655 156.952 218.74 156.88 218.74Z" fill="white"/>
<path d="M182.269 222.963C182.269 223.033 176.872 223.09 170.216 223.09C163.557 223.09 158.161 223.033 158.161 222.963C158.161 222.892 163.557 222.835 170.216 222.835C176.872 222.835 182.269 222.892 182.269 222.963Z" fill="#17282F"/>
<path d="M206.789 223.982H186.872C185.984 223.982 185.262 223.283 185.254 222.417L184.771 170.032H207.925L208.407 222.389C208.415 223.266 207.688 223.982 206.789 223.982Z" fill="#33535F"/>
<path d="M205.169 222.187C204.465 222.187 203.858 221.989 203.858 221.989V181.651H207.348C207.348 181.651 207.437 217.48 207.277 220.264C207.185 221.845 206.094 222.187 205.169 222.187Z" fill="#6A858C"/>
<path d="M205.444 167.376H187.252C186.422 167.376 185.75 168.032 185.75 168.841V169.721H206.947V168.841C206.947 168.032 206.274 167.376 205.444 167.376Z" fill="#FAFAF9"/>
<path d="M205.444 167.376C205.444 167.376 205.517 167.362 205.659 167.375C205.801 167.388 206.017 167.431 206.261 167.573C206.502 167.712 206.771 167.965 206.913 168.353C206.987 168.542 207.01 168.773 207.005 168.997C207.007 169.224 207.01 169.466 207.012 169.722L207.013 169.785L206.946 169.786C203.028 169.824 195.668 169.849 187.252 169.849C186.737 169.849 186.226 169.849 185.749 169.849H185.615L185.618 169.722C185.626 169.348 185.6 169.009 185.637 168.615C185.692 168.226 185.901 167.865 186.206 167.619C186.508 167.371 186.909 167.244 187.29 167.251C187.648 167.251 188.003 167.252 188.355 167.252C189.762 167.255 191.115 167.258 192.402 167.261C194.971 167.271 197.275 167.281 199.214 167.289C201.129 167.305 202.68 167.318 203.778 167.328C204.298 167.338 204.71 167.346 205.014 167.352C205.296 167.359 205.444 167.368 205.444 167.376C205.444 167.385 205.296 167.393 205.014 167.401C204.71 167.407 204.298 167.414 203.778 167.424C202.68 167.434 201.129 167.447 199.214 167.464C197.275 167.472 194.971 167.481 192.402 167.492C191.115 167.494 189.762 167.497 188.355 167.499C188.003 167.5 187.648 167.5 187.29 167.501C186.956 167.497 186.629 167.603 186.372 167.813C186.115 168.02 185.94 168.325 185.894 168.651C185.864 168.974 185.886 169.364 185.88 169.722L185.749 169.594C186.226 169.594 186.737 169.594 187.252 169.594C195.668 169.594 203.028 169.619 206.946 169.657L206.879 169.722C206.882 169.466 206.885 169.224 206.887 168.997C206.896 168.767 206.88 168.568 206.816 168.385C206.694 168.02 206.448 167.773 206.224 167.631C205.758 167.348 205.434 167.406 205.444 167.376Z" fill="#17282F"/>
<path d="M209.033 181.651H183.662C182.928 181.651 182.333 181.07 182.333 180.355V170.465C182.333 169.749 182.928 169.169 183.662 169.169H209.033C209.767 169.169 210.362 169.749 210.362 170.465V180.355C210.362 181.07 209.767 181.651 209.033 181.651Z" fill="#FAFAF9"/>
<path d="M209.034 181.651C209.024 181.625 209.337 181.684 209.776 181.397C209.984 181.252 210.207 180.999 210.289 180.638C210.334 180.461 210.316 180.259 210.317 180.041C210.315 179.823 210.313 179.592 210.311 179.348C210.301 177.376 210.287 174.545 210.269 171.053C210.267 170.837 210.271 170.607 210.263 170.394C210.253 170.186 210.179 169.981 210.061 169.803C209.817 169.444 209.379 169.232 208.905 169.268C207.925 169.27 206.906 169.273 205.85 169.275C203.738 169.278 201.482 169.282 199.11 169.287C194.36 169.29 189.142 169.293 183.664 169.297C183.035 169.281 182.47 169.819 182.467 170.424C182.466 171.083 182.465 171.737 182.464 172.386C182.463 173.687 182.463 174.97 182.462 176.229C182.461 177.489 182.46 178.727 182.459 179.939C182.465 180.249 182.428 180.54 182.543 180.787C182.646 181.039 182.839 181.254 183.081 181.385C183.331 181.521 183.588 181.542 183.9 181.532C184.2 181.532 184.499 181.532 184.796 181.533C189.541 181.543 193.816 181.552 197.411 181.56C200.991 181.578 203.893 181.591 205.915 181.601C206.908 181.611 207.684 181.619 208.227 181.625C208.481 181.63 208.681 181.634 208.828 181.638C208.964 181.642 209.034 181.646 209.034 181.651C209.034 181.655 208.964 181.659 208.828 181.663C208.681 181.667 208.481 181.671 208.227 181.677C207.684 181.682 206.908 181.69 205.915 181.7C203.893 181.71 200.991 181.724 197.411 181.741C193.816 181.749 189.541 181.758 184.796 181.768C184.499 181.768 184.2 181.769 183.9 181.769C183.616 181.783 183.246 181.759 182.962 181.595C182.67 181.439 182.437 181.181 182.312 180.877C182.249 180.724 182.215 180.56 182.211 180.396L182.209 179.939C182.208 178.727 182.206 177.489 182.205 176.229C182.205 174.97 182.204 173.687 182.203 172.386C182.204 171.734 182.205 171.077 182.205 170.416C182.209 169.678 182.897 169.023 183.664 169.041C189.142 169.045 194.36 169.048 199.11 169.051C201.482 169.055 203.738 169.059 205.85 169.063C206.906 169.066 207.925 169.068 208.905 169.07C209.414 169.032 209.954 169.282 210.223 169.699C210.359 169.905 210.442 170.143 210.452 170.384C210.46 170.618 210.453 170.832 210.455 171.053C210.437 174.545 210.423 177.376 210.413 179.348C210.411 179.592 210.409 179.823 210.407 180.041C210.402 180.255 210.417 180.464 210.364 180.655C210.269 181.035 210.027 181.295 209.806 181.44C209.58 181.585 209.374 181.63 209.239 181.647C209.104 181.662 209.034 181.651 209.034 181.651Z" fill="#17282F"/>
<path d="M183.96 181.445C183.888 181.445 183.83 178.789 183.83 175.512C183.83 172.234 183.888 169.578 183.96 169.578C184.033 169.578 184.092 172.234 184.092 175.512C184.092 178.789 184.033 181.445 183.96 181.445Z" fill="#17282F"/>
<path d="M186.08 181.445C186.008 181.445 185.949 178.789 185.949 175.512C185.949 172.234 186.008 169.578 186.08 169.578C186.152 169.578 186.211 172.234 186.211 175.512C186.211 178.789 186.152 181.445 186.08 181.445Z" fill="#17282F"/>
<path d="M188.199 181.445C188.127 181.445 188.068 178.789 188.068 175.512C188.068 172.234 188.127 169.578 188.199 169.578C188.272 169.578 188.33 172.234 188.33 175.512C188.33 178.789 188.272 181.445 188.199 181.445Z" fill="#17282F"/>
<path d="M190.32 181.445C190.247 181.445 190.188 178.789 190.188 175.512C190.188 172.234 190.247 169.578 190.32 169.578C190.392 169.578 190.451 172.234 190.451 175.512C190.451 178.789 190.392 181.445 190.32 181.445Z" fill="#17282F"/>
<path d="M192.44 181.445C192.367 181.445 192.309 178.789 192.309 175.512C192.309 172.234 192.367 169.578 192.44 169.578C192.512 169.578 192.571 172.234 192.571 175.512C192.571 178.789 192.512 181.445 192.44 181.445Z" fill="#17282F"/>
<path d="M194.559 181.445C194.487 181.445 194.428 178.789 194.428 175.512C194.428 172.234 194.487 169.578 194.559 169.578C194.631 169.578 194.69 172.234 194.69 175.512C194.69 178.789 194.631 181.445 194.559 181.445Z" fill="#17282F"/>
<path d="M196.679 181.445C196.606 181.445 196.548 178.789 196.548 175.512C196.548 172.234 196.606 169.578 196.679 169.578C196.751 169.578 196.809 172.234 196.809 175.512C196.809 178.789 196.751 181.445 196.679 181.445Z" fill="#17282F"/>
<path d="M198.798 181.445C198.726 181.445 198.667 178.789 198.667 175.512C198.667 172.234 198.726 169.578 198.798 169.578C198.87 169.578 198.929 172.234 198.929 175.512C198.929 178.789 198.87 181.445 198.798 181.445Z" fill="#17282F"/>
<path d="M200.917 181.445C200.845 181.445 200.786 178.789 200.786 175.512C200.786 172.234 200.845 169.578 200.917 169.578C200.99 169.578 201.048 172.234 201.048 175.512C201.048 178.789 200.99 181.445 200.917 181.445Z" fill="#17282F"/>
<path d="M203.038 181.445C202.966 181.445 202.907 178.789 202.907 175.512C202.907 172.234 202.966 169.578 203.038 169.578C203.11 169.578 203.169 172.234 203.169 175.512C203.169 178.789 203.11 181.445 203.038 181.445Z" fill="#17282F"/>
<path d="M205.157 181.445C205.084 181.445 205.025 178.789 205.025 175.512C205.025 172.234 205.084 169.578 205.157 169.578C205.229 169.578 205.287 172.234 205.287 175.512C205.287 178.789 205.229 181.445 205.157 181.445Z" fill="#17282F"/>
<path d="M207.277 181.445C207.205 181.445 207.146 178.789 207.146 175.512C207.146 172.234 207.205 169.578 207.277 169.578C207.35 169.578 207.409 172.234 207.409 175.512C207.409 178.789 207.35 181.445 207.277 181.445Z" fill="#17282F"/>
<path d="M209.397 181.445C209.324 181.445 209.266 178.789 209.266 175.512C209.266 172.234 209.324 169.578 209.397 169.578C209.469 169.578 209.527 172.234 209.527 175.512C209.527 178.789 209.469 181.445 209.397 181.445Z" fill="#17282F"/>
<path d="M206.626 206.703H186.585V191.052H206.626V206.703Z" fill="white"/>
<path d="M189.886 194.228C189.798 194.158 189.67 194.122 189.502 194.122H189.046V194.944H189.502C189.67 194.944 189.798 194.908 189.886 194.837C189.973 194.764 190.017 194.663 190.017 194.533C190.017 194.401 189.973 194.299 189.886 194.228ZM190.027 196.036L189.561 195.378H189.046V196.036H188.486V193.677H189.533C189.747 193.677 189.933 193.712 190.091 193.781C190.249 193.852 190.371 193.95 190.455 194.078C190.541 194.207 190.583 194.358 190.583 194.533C190.583 194.709 190.54 194.86 190.454 194.986C190.368 195.113 190.245 195.21 190.086 195.278L190.628 196.036H190.027Z" fill="#17282F"/>
<path d="M191.252 197.666L190.699 196.89L190.156 197.666H189.547L190.394 196.53L189.59 195.432H190.192L190.719 196.157L191.236 195.432H191.809L191.01 196.511L191.865 197.666H191.252Z" fill="#17282F"/>
<path d="M205.157 195.367H193.713V193.671H205.157V195.367Z" fill="#DADBD8"/>
<path d="M203.859 199.58C203.859 199.65 200.516 199.707 196.394 199.707C192.271 199.707 188.929 199.65 188.929 199.58C188.929 199.509 192.271 199.452 196.394 199.452C200.516 199.452 203.859 199.509 203.859 199.58Z" fill="#17282F"/>
<path d="M203.859 201.347C203.859 201.418 200.516 201.475 196.394 201.475C192.271 201.475 188.929 201.418 188.929 201.347C188.929 201.277 192.271 201.22 196.394 201.22C200.516 201.22 203.859 201.277 203.859 201.347Z" fill="#17282F"/>
<path d="M195.584 205.012H187.851V203.558H195.584V205.012Z" fill="#DADBD8"/>
<path d="M206.173 206.224C206.173 206.224 206.165 206.124 206.161 205.942C206.158 205.747 206.153 205.482 206.148 205.144C206.142 204.435 206.132 203.421 206.12 202.135C206.107 199.542 206.088 195.854 206.064 191.411L206.173 191.517C200.683 191.523 194.075 191.531 186.962 191.539C186.932 191.566 187.209 191.298 187.092 191.413V191.417V191.425V191.441V191.472V191.535V191.66V191.91L187.092 192.409C187.092 192.74 187.092 193.071 187.092 193.4C187.092 194.058 187.091 194.711 187.091 195.358C187.09 196.653 187.089 197.924 187.088 199.166C187.085 201.648 187.081 204.015 187.079 206.224L186.961 206.109C192.642 206.132 197.428 206.152 200.81 206.166C202.491 206.179 203.823 206.189 204.751 206.197C205.199 206.203 205.549 206.207 205.802 206.21C205.914 206.213 206.003 206.215 206.076 206.217C206.138 206.219 206.171 206.221 206.173 206.224C206.175 206.226 206.147 206.228 206.089 206.23C206.02 206.231 205.935 206.234 205.829 206.236C205.581 206.24 205.239 206.245 204.801 206.25C203.879 206.257 202.556 206.267 200.886 206.28C197.485 206.295 192.674 206.314 186.961 206.338L186.844 206.338V206.224C186.84 204.015 186.837 201.648 186.833 199.166C186.833 197.924 186.832 196.653 186.831 195.358C186.831 194.711 186.83 194.058 186.83 193.4C186.83 193.071 186.83 192.74 186.83 192.409V191.91V191.66V191.535V191.472V191.441V191.425V191.417V191.413C186.713 191.527 186.989 191.255 186.962 191.284C194.075 191.292 200.683 191.299 206.173 191.305L206.282 191.306L206.281 191.411C206.258 195.882 206.238 199.592 206.225 202.201C206.213 203.477 206.204 204.483 206.197 205.187C206.192 205.516 206.188 205.775 206.185 205.965C206.181 206.139 206.177 206.227 206.173 206.224Z" fill="#17282F"/>
<path d="M186.08 219.71C186.008 219.71 185.949 211.539 185.949 201.463C185.949 191.383 186.008 183.214 186.08 183.214C186.152 183.214 186.211 191.383 186.211 201.463C186.211 211.539 186.152 219.71 186.08 219.71Z" fill="white"/>
<path d="M206.647 223.13C206.647 223.201 202.275 223.258 196.883 223.258C191.489 223.258 187.118 223.201 187.118 223.13C187.118 223.06 191.489 223.003 196.883 223.003C202.275 223.003 206.647 223.06 206.647 223.13Z" fill="#17282F"/>
<path d="M45.8231 203.035L42.4861 214.585C42.4861 214.585 53.1148 221.853 52.7064 224.048L30.0605 218.387L34.5208 200.177L45.8231 203.035Z" fill="#33535F"/>
<path d="M35.7299 211.854C35.2615 211.864 34.8354 212.28 34.8263 212.748C34.8171 213.217 35.2377 213.653 35.7059 213.651C36.1743 213.649 36.701 213.164 36.6576 212.698C36.6144 212.233 36.0928 211.747 35.6387 211.861" fill="#DADBD8"/>
<path d="M52.7065 224.048C52.7654 223.73 52.5944 223.307 52.2579 222.816C52.5013 223.052 52.9188 223.552 52.7065 224.048Z" fill="white"/>
<path d="M52.7069 224.048L48.0502 222.884C46.7167 221.939 44.6668 220.904 42.7178 220.013L52.0998 222.676C52.0998 222.676 52.1667 222.727 52.2583 222.816C52.5947 223.307 52.7658 223.73 52.7069 224.048Z" fill="#A6B7B9"/>
<path d="M42.8818 214.561C42.8506 214.671 42.2851 214.583 41.6521 214.802C41.0133 215.005 40.6129 215.413 40.5222 215.344C40.4257 215.298 40.756 214.678 41.5271 214.426C42.2957 214.167 42.9313 214.466 42.8818 214.561Z" fill="#17282F"/>
<path d="M45.0119 216.137C45.0103 216.25 44.4845 216.318 43.9918 216.692C43.4884 217.051 43.267 217.532 43.1579 217.5C43.0497 217.491 43.1352 216.825 43.7566 216.372C44.3737 215.915 45.0358 216.031 45.0119 216.137Z" fill="#17282F"/>
<path d="M45.6498 219.314C45.5435 219.312 45.5278 218.722 45.9632 218.188C46.395 217.651 46.9759 217.542 46.9997 217.646C47.0396 217.752 46.6225 217.993 46.2718 218.437C45.9109 218.873 45.7623 219.33 45.6498 219.314Z" fill="#17282F"/>
<path d="M43.3506 211.845C43.2792 211.934 42.8101 211.654 42.1743 211.541C41.5409 211.414 41.0022 211.502 40.9682 211.393C40.9242 211.297 41.5014 211.007 42.2482 211.151C42.9961 211.29 43.4268 211.771 43.3506 211.845Z" fill="#17282F"/>
<path d="M37.885 205.754L37.3592 217.764C37.3592 217.764 49.4006 222.332 49.5201 224.561L26.1768 224.379L26.2271 205.632L37.885 205.754Z" fill="#33535F"/>
<path d="M30.1487 216.698C29.6958 216.817 29.3797 217.323 29.4808 217.78C29.5822 218.236 30.0936 218.562 30.5485 218.45C31.0031 218.338 31.4013 217.743 31.2493 217.301C31.0976 216.858 30.4761 216.508 30.0616 216.726" fill="#DADBD8"/>
<path d="M49.5201 224.561C49.5162 224.488 49.4993 224.411 49.4702 224.333C49.4867 224.333 49.5056 224.333 49.5221 224.333C49.5331 224.406 49.5335 224.482 49.5201 224.561ZM49.3686 224.126C49.2447 223.918 49.0488 223.699 48.7944 223.469C48.9993 223.59 49.3177 223.817 49.4588 224.125C49.4288 224.125 49.3989 224.125 49.3686 224.126Z" fill="white"/>
<path d="M49.5225 224.333C49.506 224.333 49.4872 224.333 49.4707 224.333C49.4457 224.265 49.4117 224.196 49.3691 224.125C49.3994 224.125 49.4292 224.125 49.4593 224.125C49.4894 224.191 49.5114 224.26 49.5225 224.333Z" fill="#9BA6A6"/>
<path d="M49.5201 224.561L26.1768 224.379L26.2558 222.49L48.6075 223.371C48.6075 223.371 48.6845 223.405 48.7944 223.469C49.0488 223.699 49.2447 223.918 49.3687 224.126C49.4113 224.196 49.4452 224.265 49.4702 224.333C49.4993 224.411 49.5162 224.488 49.5201 224.561Z" fill="#A6B7B9"/>
<path d="M37.7379 217.649C37.7333 217.762 37.163 217.81 36.5996 218.171C36.0262 218.519 35.7333 219.01 35.6286 218.964C35.5239 218.941 35.6991 218.262 36.3893 217.836C37.0754 217.403 37.7634 217.545 37.7379 217.649Z" fill="#17282F"/>
<path d="M40.1786 218.679C40.2037 218.79 39.7086 218.98 39.3176 219.459C38.9125 219.926 38.8109 220.446 38.6974 220.44C38.5901 220.457 38.5166 219.789 39.0139 219.204C39.5059 218.613 40.1768 218.571 40.1786 218.679Z" fill="#17282F"/>
<path d="M41.5466 221.618C41.443 221.642 41.2888 221.071 41.586 220.45C41.8794 219.826 42.4187 219.585 42.4662 219.679C42.5299 219.774 42.1812 220.106 41.9446 220.62C41.6965 221.128 41.6599 221.608 41.5466 221.618Z" fill="#17282F"/>
<path d="M37.5548 214.898C37.5063 215.002 36.9843 214.84 36.3397 214.879C35.6943 214.905 35.1913 215.117 35.1328 215.019C35.0673 214.936 35.5603 214.518 36.32 214.483C37.0794 214.443 37.6114 214.809 37.5548 214.898Z" fill="#17282F"/>
<path d="M23.4431 117.867V127.363L25.9956 164.361C25.9956 164.361 24.407 182.309 23.4315 192.44C22.5845 201.239 23.9694 216.561 23.9694 216.561H38.8275L44.1434 165.46L47.4428 133.59L53.1831 119.086L23.4431 117.867Z" fill="#17282F"/>
<path d="M62.5717 119.521L59.726 171.138L44.6946 209.785L44.004 212.113L35.127 209.968L41.7291 118.515L62.5717 119.521Z" fill="#17282F"/>
<path d="M47.4038 133.972C47.4085 133.972 47.4101 134.044 47.4089 134.186C47.406 134.341 47.4018 134.549 47.3967 134.815C47.379 135.384 47.3539 136.196 47.3217 137.235C47.2618 139.337 47.1113 142.375 46.8977 146.128C46.4495 153.632 45.6132 163.989 44.3092 175.385C43.0255 186.787 41.608 197.077 40.5718 204.521C40.0456 208.232 39.6195 211.239 39.3222 213.335C39.1708 214.363 39.0523 215.167 38.9694 215.729C38.9279 215.992 38.8951 216.198 38.8709 216.351C38.847 216.491 38.8324 216.562 38.8279 216.561C38.8232 216.561 38.8281 216.488 38.8426 216.347C38.8603 216.193 38.8839 215.986 38.9139 215.722C38.9847 215.158 39.0859 214.352 39.2152 213.32C39.4918 211.221 39.8882 208.21 40.3779 204.495C41.3639 197.044 42.7506 186.752 44.0337 175.354C45.3373 163.961 46.2043 153.614 46.7022 146.116C46.9405 142.366 47.1211 139.331 47.2142 137.231C47.2684 136.193 47.311 135.381 47.3409 134.814C47.3576 134.548 47.3708 134.34 47.3806 134.185C47.3912 134.044 47.3989 133.972 47.4038 133.972Z" fill="#33535F"/>
<path d="M48.3452 121.059C48.3452 121.481 48.0031 121.823 47.5809 121.823C47.1587 121.823 46.8164 121.481 46.8164 121.059C46.8164 120.637 47.1587 120.295 47.5809 120.295C48.0031 120.295 48.3452 120.637 48.3452 121.059Z" fill="#33535F"/>
<path d="M61.4073 128.269C61.3872 128.292 60.9506 127.954 60.3596 127.288C59.7686 126.624 59.0499 125.609 58.4911 124.367C57.9353 123.122 57.6567 121.91 57.5551 121.028C57.4515 120.144 57.4897 119.593 57.5199 119.593C57.5662 119.592 57.5973 120.137 57.7487 120.999C57.8981 121.861 58.2004 123.036 58.7436 124.253C59.2908 125.47 59.9668 126.477 60.5105 127.162C61.0532 127.849 61.4395 128.236 61.4073 128.269Z" fill="#33535F"/>
<path d="M59.6318 71.3029C59.6318 71.3029 62.4771 72.3904 63.7923 76.452C64.7072 79.2784 68.995 100.312 68.995 100.312L63.0193 104.153L60.5915 84.4785L59.6318 71.3029Z" fill="#DADBD8"/>
<path d="M36.9095 61.2534L35.0377 64.4928C35.0377 64.4928 22.5336 70.6916 22.5769 71.3028C22.5769 71.3028 23.2719 94.445 23.4046 111.419C23.4549 117.831 23.213 123.721 23.0808 126.553C22.7334 133.984 22.4648 162.843 22.4648 162.843L67.7337 161.797L59.6314 71.3028L53.2468 68.5784L52.4315 66.9523L49.4979 64.6302L36.9095 61.2534Z" fill="#DADBD8"/>
<path d="M56.7442 162.051C56.7492 162.051 56.7492 161.984 56.7452 161.854C56.7392 161.711 56.7301 161.52 56.7195 161.276C56.6909 160.754 56.6496 160.01 56.5973 159.058C56.4791 157.117 56.3106 154.335 56.1024 150.903C55.6754 144.005 55.0874 134.499 54.4381 124C53.818 113.496 53.2567 103.987 52.8498 97.0879C52.6611 93.6552 52.5077 90.8719 52.4011 88.9309C52.3463 87.9798 52.303 87.2356 52.2729 86.7137C52.2558 86.4709 52.2427 86.2801 52.2326 86.1374C52.2221 86.0074 52.214 85.9411 52.2095 85.9411C52.2045 85.9416 52.2034 86.0079 52.2045 86.1383C52.208 86.2816 52.2125 86.4729 52.2175 86.7157C52.2356 87.2386 52.2618 87.9837 52.295 88.9358C52.3634 90.8636 52.4927 93.6522 52.6566 97.0977C52.9916 103.989 53.5222 113.505 54.165 124.016C54.8068 134.522 55.434 144.032 55.9093 150.915C56.1542 154.345 56.3524 157.126 56.4907 159.065C56.5656 160.015 56.624 160.758 56.6647 161.28C56.6869 161.522 56.704 161.713 56.717 161.855C56.7306 161.985 56.7397 162.052 56.7442 162.051Z" fill="#17282F"/>
<path d="M49.4976 64.6302L50.5496 71.7163L52.4312 85.9421L44.2336 72.2191L37.1152 63.1252L48.8419 71.139L48.9911 64.4957L49.4976 64.6302Z" fill="#F2575D"/>
<path d="M34.9817 64.9231C34.9694 64.9285 35.0486 65.1227 35.2069 65.4793C35.3831 65.8659 35.6177 66.379 35.9081 67.0147C36.5419 68.3592 37.417 70.2159 38.452 72.412L38.4842 72.4801L38.563 72.4806C39.1062 72.4826 39.6825 72.4851 40.2751 72.487L40.1931 72.2638C39.7939 72.5827 39.3689 72.9216 38.9349 73.2684L38.82 73.3602L38.9263 73.4617C39.6887 74.1901 40.4894 74.9549 41.3118 75.7402C44.294 78.5617 46.9923 81.1144 48.9781 82.9931C49.948 83.8933 50.7424 84.6305 51.3228 85.1691C51.5859 85.4056 51.8006 85.5983 51.9706 85.7514C52.1205 85.8824 52.2025 85.9476 52.209 85.9412C52.2156 85.9348 52.1467 85.8564 52.0089 85.7126C51.8484 85.5508 51.6462 85.3462 51.3973 85.0951C50.8319 84.5413 50.058 83.7834 49.1132 82.8587C47.142 80.9653 44.4634 78.393 41.503 75.5494C40.679 74.7655 39.8768 74.0027 39.1127 73.2758L39.1043 73.4691C39.5367 73.1203 39.9597 72.7789 40.3571 72.4581L40.6352 72.2339L40.2751 72.2354C39.6825 72.2373 39.1062 72.2398 38.563 72.2417L38.6738 72.3104C37.6025 70.131 36.6963 68.2886 36.0401 66.9538C35.7242 66.3304 35.469 65.8266 35.2769 65.4474C35.0963 65.1006 34.9937 64.9172 34.9817 64.9231Z" fill="#17282F"/>
<path d="M52.4313 85.9421C52.4499 85.9446 52.5073 85.6306 52.5958 85.0611C52.6843 84.4475 52.8015 83.6332 52.9438 82.6472C53.226 80.6076 53.5967 77.7881 53.9895 74.6713C54.1147 73.6662 54.2359 72.692 54.3511 71.7673L54.3652 71.6525L54.251 71.626C53.5338 71.4603 52.8468 71.3008 52.1959 71.1502L52.1879 71.3847C52.9272 71.2557 53.6173 71.135 54.2531 71.0237L54.3904 70.9996L54.333 70.8785C53.7772 69.7017 53.3165 68.7265 52.974 68.0015C52.8191 67.6886 52.6908 67.4296 52.5867 67.2182C52.4947 67.0401 52.4414 66.9479 52.4313 66.9523C52.4213 66.9567 52.455 67.0573 52.5289 67.2432C52.6189 67.4605 52.7296 67.7268 52.8634 68.0496C53.1848 68.7839 53.6163 69.7714 54.1369 70.9633L54.2168 70.8177C53.5796 70.9197 52.888 71.0301 52.1461 71.1488L51.5557 71.2429L52.1381 71.3832C52.7874 71.5392 53.473 71.7045 54.1892 71.8767L54.0891 71.7359C53.9709 72.6601 53.8467 73.6338 53.7184 74.6389C53.3256 77.7552 52.9851 80.5792 52.7522 82.6242C52.6451 83.6146 52.5566 84.4323 52.4902 85.0484C52.4343 85.6218 52.4122 85.9397 52.4313 85.9421Z" fill="#17282F"/>
<path d="M45.4375 123.802C45.4414 123.797 45.3422 123.8 45.1462 123.812C44.9316 123.825 44.6418 123.844 44.273 123.867C43.4829 123.923 42.3571 124.003 40.9344 124.104C38.0231 124.322 33.9 124.631 28.9722 125L28.8525 125.009L28.8629 125.126C29.0555 127.321 29.2641 129.702 29.4848 132.217C29.5966 133.475 29.7109 134.767 29.8278 136.085C29.8865 136.745 29.9459 137.411 30.0058 138.084C30.0321 138.414 30.0697 138.773 30.1694 139.112C30.2771 139.451 30.4357 139.776 30.6416 140.07C31.3015 141 32.3778 141.541 33.4554 141.728C34.5425 141.874 35.5979 141.895 36.6443 141.893C38.7308 141.868 40.7478 141.696 42.6227 141.254C43.0895 141.137 43.5482 141.005 43.985 140.821C44.2055 140.735 44.4156 140.626 44.619 140.504C44.7241 140.453 44.8117 140.353 44.907 140.278C44.996 140.195 45.0579 140.094 45.1334 140.003C45.6296 139.209 45.7837 138.337 45.9155 137.517C46.1527 135.863 46.1605 134.311 46.1517 132.9C46.1059 130.077 45.8988 127.802 45.7442 126.232C45.6645 125.448 45.5917 124.84 45.5373 124.428C45.5098 124.234 45.4876 124.08 45.4705 123.96C45.4546 123.857 45.4403 123.797 45.4375 123.802C45.4345 123.806 45.4336 123.855 45.4428 123.963C45.453 124.084 45.466 124.239 45.4825 124.433C45.5196 124.865 45.5719 125.471 45.6381 126.241C45.7599 127.812 45.9375 130.088 45.9581 132.902C45.955 134.307 45.9353 135.854 45.6914 137.484C45.5603 138.289 45.3913 139.152 44.9335 139.871C44.7102 140.228 44.3137 140.429 43.8879 140.599C43.4691 140.775 43.0198 140.903 42.5614 141.016C40.7173 141.443 38.711 141.612 36.6426 141.632C35.6118 141.633 34.5433 141.607 33.5033 141.466C32.4807 141.289 31.4734 140.776 30.8668 139.919C30.6767 139.647 30.5312 139.349 30.4315 139.037C30.3398 138.721 30.3052 138.403 30.2777 138.061C30.217 137.389 30.1571 136.722 30.0979 136.062C29.9785 134.744 29.862 133.452 29.7482 132.195C29.5186 129.68 29.3013 127.3 29.1011 125.106L28.9918 125.232C33.8849 124.818 37.9785 124.471 40.8696 124.225C42.3012 124.097 43.4341 123.997 44.229 123.926C44.6064 123.89 44.9031 123.861 45.1224 123.84C45.3261 123.82 45.4334 123.807 45.4375 123.802Z" fill="#17282F"/>
<path d="M38.0138 144.056C37.6957 144.056 37.3777 144.048 37.0607 144.034C35.2137 143.955 33.6186 144.033 32.0948 143.012C30.7108 142.085 30.2625 140.57 30.1953 139.193C30.302 139.503 30.4513 139.799 30.6411 140.071C31.301 141.001 32.3773 141.541 33.4549 141.728C33.6805 141.759 33.9047 141.784 34.1278 141.804C34.6355 141.887 35.1715 141.922 35.7269 141.922C36.0232 141.922 36.3252 141.913 36.6313 141.893C36.6356 141.893 36.6395 141.893 36.6438 141.893C38.7303 141.868 40.7473 141.696 42.6222 141.254C43.089 141.138 43.5478 141.006 43.9845 140.821C44.205 140.735 44.4152 140.626 44.6185 140.504C44.7236 140.453 44.8112 140.353 44.9066 140.279C44.9955 140.195 45.0574 140.094 45.1329 140.003C45.1716 139.941 45.2083 139.878 45.2431 139.816C45.0594 141.427 43.803 142.665 42.2544 143.323C40.9257 143.888 39.4691 144.056 38.0138 144.056ZM40.2494 141.415C42.0868 141.095 43.7091 140.704 44.5861 140.236C44.3837 140.386 44.1407 140.498 43.8875 140.599C43.4686 140.775 43.0193 140.903 42.5609 141.016C41.8149 141.189 41.042 141.319 40.2494 141.415Z" fill="#8F9192"/>
<path d="M36.6308 141.893C37.2037 141.858 37.7909 141.793 38.3858 141.708C39.0177 141.618 39.6448 141.52 40.249 141.415C41.0415 141.319 41.8144 141.189 42.5604 141.016C43.0188 140.903 43.4681 140.775 43.887 140.599C44.1402 140.498 44.3833 140.385 44.5856 140.236C44.9615 140.036 45.2004 139.821 45.2611 139.591C45.2571 139.667 45.2511 139.741 45.2426 139.815C45.2079 139.878 45.1711 139.941 45.1324 140.003C45.057 140.094 44.9951 140.195 44.9061 140.278C44.8108 140.353 44.7232 140.453 44.618 140.504C44.4147 140.626 44.2045 140.735 43.9841 140.821C43.5473 141.005 43.0885 141.137 42.6217 141.254C40.7468 141.696 38.7299 141.868 36.6434 141.893C36.639 141.893 36.6351 141.893 36.6308 141.893ZM34.1273 141.804C33.9042 141.783 33.68 141.758 33.4544 141.728C32.3768 141.541 31.3005 141.001 30.6406 140.071C30.4508 139.799 30.3015 139.502 30.1948 139.192C30.1881 139.053 30.1852 138.915 30.1856 138.78C30.9245 140.659 32.3562 141.516 34.1273 141.804Z" fill="#0F191D"/>
<path d="M64.4215 124.807C64.4175 124.807 64.4089 124.766 64.3974 124.686C64.3848 124.591 64.3697 124.475 64.3511 124.331C64.3144 123.997 64.2636 123.54 64.1997 122.961C64.078 121.749 63.9055 120.032 63.6932 117.92C63.2788 113.662 62.7255 107.778 62.1416 101.277C61.5571 94.774 61.0537 88.8848 60.7212 84.6196C60.5552 82.4873 60.431 80.7606 60.3611 79.5662C60.3214 78.9692 60.3063 78.5042 60.2957 78.1893C60.2927 78.0451 60.2902 77.9268 60.2882 77.8312C60.2877 77.7503 60.2897 77.709 60.2942 77.709C60.4179 79.0904 61.2574 88.4629 62.4021 101.254C62.9775 107.747 63.4986 113.624 63.8778 117.904C64.0553 120.019 64.1997 121.738 64.3013 122.952C64.3445 123.532 64.3788 123.991 64.4039 124.326C64.4119 124.471 64.4185 124.588 64.4235 124.684C64.427 124.765 64.426 124.806 64.4215 124.807Z" fill="#17282F"/>
<path d="M70.9819 100.776C70.9819 100.776 71.2962 101.797 71.1916 102.869C71.087 103.941 71.0342 106.579 68.1039 107.48C65.1732 108.381 63.7503 107.523 62.8455 106.312L62.4023 101.062L65.5393 99.0407L70.9819 100.776Z" fill="#DADBD8"/>
<path d="M30.5002 112.685C26.6402 112.685 24.9875 110.568 23.7002 106.353L46.4795 104.153C46.4795 104.153 38.9804 111.379 33.1553 112.42C32.168 112.597 31.288 112.685 30.5002 112.685Z" fill="#8F9192"/>
<path d="M22.7121 71.1232C22.7121 71.1232 17.9471 75.433 19.3035 85.6296C20.5641 95.1042 22.8017 108.303 25.7845 109.834C28.7677 111.366 35.2046 110.6 39.9146 107.997C44.6247 105.394 58.2841 98.3505 58.2841 98.3505L52.6318 88.5507L34.4195 95.4412C34.4195 95.4412 32.0646 79.7241 30.6516 77.0174" fill="#DADBD8"/>
<path d="M30.5946 76.8022C30.5946 76.8022 30.6464 76.9013 30.7362 77.1024C30.7799 77.203 30.839 77.3271 30.8993 77.4782C30.9512 77.6342 31.0105 77.8127 31.0775 78.0148C31.3453 78.8286 31.6645 80.051 32.0117 81.6393C32.7139 84.815 33.5623 89.448 34.4593 95.2122L34.3271 95.1367C39.474 93.1814 45.6699 90.8274 52.5291 88.2207L52.6312 88.1825L52.6845 88.2752C54.4746 91.3738 56.3748 94.6628 58.3434 98.071L58.4103 98.1868L58.2896 98.2501C54.5329 100.224 50.6214 102.279 46.6116 104.386C44.6779 105.401 42.7671 106.405 40.8835 107.394C39.9438 107.883 39.0074 108.399 38.0335 108.808C37.0572 109.212 36.0606 109.542 35.0568 109.813C33.0442 110.328 30.9936 110.616 28.9823 110.499C27.9811 110.438 26.9811 110.281 26.0612 109.901L25.7198 109.752C25.6066 109.701 25.5009 109.62 25.3919 109.553C25.193 109.396 25.0164 109.221 24.8622 109.031C24.5586 108.651 24.3042 108.243 24.0912 107.823C23.237 106.139 22.7321 104.381 22.2649 102.682C21.8075 100.977 21.4444 99.3037 21.1175 97.683C20.4729 94.4387 19.9945 91.3964 19.5946 88.6156C19.1946 85.8402 18.8433 83.3032 18.95 81.0625C19.028 78.8256 19.4406 76.918 19.9836 75.4356C20.5363 73.9527 21.2012 72.8991 21.7095 72.2378C21.9613 71.9038 22.1829 71.6713 22.3334 71.5187C22.4867 71.3677 22.5769 71.3029 22.5769 71.3029C22.5769 71.3029 22.4995 71.3809 22.3534 71.5374C22.2105 71.6958 21.9972 71.9327 21.7539 72.2697C21.2629 72.9373 20.6175 73.9925 20.0838 75.4704C19.56 76.9479 19.1658 78.8448 19.1027 81.0678C19.0113 83.2934 19.3734 85.8122 19.786 88.5891C20.1978 91.366 20.6868 94.4038 21.3401 97.6403C21.6711 99.2571 22.0377 100.925 22.4975 102.623C22.9655 104.312 23.4753 106.064 24.3158 107.711C24.5248 108.122 24.7728 108.516 25.0602 108.876C25.206 109.054 25.3697 109.215 25.5471 109.356C25.6449 109.412 25.7296 109.482 25.8367 109.53L26.1622 109.671C27.0407 110.033 28.0171 110.186 28.9985 110.245C30.9707 110.357 32.9993 110.072 34.9869 109.561C35.9784 109.292 36.9633 108.965 37.9264 108.566C38.8889 108.161 39.8035 107.656 40.7499 107.162C42.6336 106.173 44.5451 105.169 46.4793 104.153C50.4921 102.047 54.4057 99.9924 58.1643 98.02L58.1105 98.1991C56.1464 94.7884 54.2508 91.4965 52.4652 88.3959L52.6202 88.4498C45.7534 91.0369 39.5504 93.3737 34.3978 95.3147L34.2837 95.3574L34.2658 95.2397C33.3937 89.476 32.5752 84.8395 31.9062 81.6614C31.5754 80.0711 31.2736 78.8467 31.0243 78.031C30.9622 77.8279 30.9072 77.6484 30.8592 77.4919C30.8011 77.3433 30.7514 77.2177 30.7101 77.1132C30.6295 76.9096 30.5946 76.8022 30.5946 76.8022Z" fill="#17282F"/>
<path d="M37.1152 88.5576H46.1523V85.6218H37.1152V88.5576Z" fill="white"/>
<path d="M38.9873 86.912C38.9873 86.8414 40.249 86.7845 41.8055 86.7845C43.3621 86.7845 44.6239 86.8414 44.6239 86.912C44.6239 86.9827 43.3621 87.0396 41.8055 87.0396C40.249 87.0396 38.9873 86.9827 38.9873 86.912Z" fill="#17282F"/>
<path d="M51.9708 85.7515L38.6706 75.2262L38.9869 74.3065H37.827L35.9082 67.0148C36.542 68.3593 37.4171 70.2159 38.4521 72.412L38.4843 72.4802L38.5631 72.4807C38.9957 72.4822 39.4494 72.4841 39.9154 72.4856C39.5991 72.7382 39.2698 73.0012 38.935 73.2685L38.8201 73.3602L38.9264 73.4618C39.6889 74.1902 40.4895 74.9549 41.3119 75.7403C44.2941 78.5618 46.9924 81.1145 48.9782 82.9932C49.9481 83.8933 50.7425 84.6306 51.3229 85.1692C51.586 85.4056 51.8008 85.5984 51.9708 85.7515Z" fill="#8F9192"/>
<path d="M51.9708 85.7515C51.8008 85.5984 51.586 85.4056 51.3229 85.1692C50.7425 84.6306 49.9481 83.8933 48.9782 82.9932C46.9924 81.1145 44.2941 78.5618 41.3119 75.7403C40.4895 74.9549 39.6889 74.1902 38.9264 73.4618L38.8201 73.3602L38.935 73.2685C39.2698 73.0012 39.5991 72.7382 39.9154 72.4856C39.4494 72.4841 38.9957 72.4822 38.5631 72.4807L38.4843 72.4802L38.4521 72.412C37.4171 70.2159 36.542 68.3593 35.9082 67.0148L38.6739 72.3105L40.2752 72.2354L39.1128 73.2759L51.9708 85.7515Z" fill="#0F191D"/>
<path d="M35.5392 73.7534L36.0242 73.5557C36.0134 73.5302 34.9303 70.9966 33.8635 68.31C33.4407 67.2451 33.2884 66.3567 33.4106 65.6695C33.5165 65.0755 34.0548 64.6732 34.6843 64.6732L35.0378 64.4927L35.2191 64.1788C34.2888 63.9831 33.0426 64.7414 32.8929 65.5822C32.754 66.3621 32.9157 67.3422 33.3737 68.4954C34.4429 71.1879 35.5284 73.7279 35.5392 73.7534Z" fill="#33535F"/>
<path d="M34.7575 79.677L35.4257 79.4239C34.8777 78.0475 34.1284 75.6086 34.451 74.9223C34.6461 74.5073 35.2102 74.1438 35.8882 73.9962C36.6874 73.823 37.4521 73.9751 37.9863 74.4156C38.7518 75.0464 39.9082 77.2768 40.2889 78.0833L40.9402 77.7904C40.8815 77.6663 39.4926 74.7418 38.449 73.8814C37.7421 73.2987 36.7523 73.0921 35.732 73.3139C34.8294 73.5101 34.0885 74.0148 33.7993 74.6309C33.2573 75.7847 34.5023 79.0369 34.7575 79.677Z" fill="#33535F"/>
<path d="M41.9778 90.3159C42.8053 90.3159 43.6161 89.8843 44.3959 89.0268L44.1278 88.7948C43.2698 89.7381 42.3888 90.1128 41.5088 89.9122C37.9329 89.0921 35.2112 79.4022 35.1843 79.3045L34.8379 79.3953C34.9509 79.8029 37.6449 89.3849 41.4265 90.2526C41.6112 90.2948 41.7949 90.3159 41.9778 90.3159Z" fill="#17282F"/>
<path d="M43.7085 89.428C43.8596 89.5727 44.0962 89.5884 44.2658 89.4653L45.0424 88.9027C45.2805 88.7496 45.3455 88.4372 45.1872 88.2056C45.0072 87.9427 44.6257 87.9064 44.3964 88.1301L43.6995 88.8389C43.5368 89.0047 43.5408 89.2671 43.7085 89.428Z" fill="#17282F"/>
<path d="M40.4591 90.6311C41.5637 90.6311 42.3824 90.276 42.8983 89.5701C45.0972 86.5627 40.9522 78.2139 40.7748 77.8602L40.4526 78.0137C40.4954 78.0981 44.6824 86.5288 42.6065 89.367C42.0656 90.1062 41.1151 90.4006 39.7803 90.2387L39.7363 90.5855C39.9894 90.6164 40.2304 90.6311 40.4591 90.6311Z" fill="#17282F"/>
<path d="M40.5245 90.4434C40.5092 90.6494 40.3426 90.8137 40.1318 90.8309L39.1675 90.9089C38.8854 90.9476 38.6246 90.7548 38.5867 90.4797C38.5435 90.1657 38.8054 89.8925 39.1288 89.9131L40.1324 89.996C40.3667 90.0151 40.5416 90.2148 40.5245 90.4434Z" fill="#17282F"/>
<path d="M55.1797 77.709C55.1797 79.0864 56.3244 80.2029 57.7367 80.2029C59.1496 80.2029 60.2943 79.0864 60.2943 77.709C60.2943 76.3316 59.1496 75.2147 57.7367 75.2147C56.3244 75.2147 55.1797 76.3316 55.1797 77.709Z" fill="#17282F"/>
<path d="M55.1797 77.709C55.1797 79.0864 56.3244 80.2029 57.7367 80.2029C59.1496 80.2029 60.2943 79.0864 60.2943 77.709C60.2943 76.3316 59.1496 75.2147 57.7367 75.2147C56.3244 75.2147 55.1797 76.3316 55.1797 77.709Z" fill="#17282F"/>
<path d="M55.8486 77.7091C55.8486 78.7264 56.6946 79.551 57.7373 79.551C58.7809 79.551 59.6264 78.7264 59.6264 77.7091C59.6264 76.6917 58.7809 75.8672 57.7373 75.8672C56.6946 75.8672 55.8486 76.6917 55.8486 77.7091Z" fill="#DADBD8"/>
<path d="M52.3166 66.8522C52.554 67.1921 55.2257 72.689 56.6873 75.4604L57.1128 75.2466C56.8975 74.839 53.0152 67.0224 52.7119 66.5893L49.8849 64.3279L49.7852 64.8508L52.3166 66.8522Z" fill="#33535F"/>
<path d="M51.2423 77.6463C53.0927 79.4465 57.7768 84.135 57.7768 84.135L59.0312 83.3977L52.4288 76.5259C52.1527 76.239 51.7055 76.188 51.3696 76.4053V76.4058C50.9345 76.6868 50.8726 77.2867 51.2423 77.6463Z" fill="#17282F"/>
<path d="M52.5752 88.3356L54.1495 84.013C54.4945 83.0648 55.3867 82.3604 56.4178 82.3521C56.4988 82.3516 56.5788 82.355 56.6572 82.3639C57.5993 82.4659 62.4141 82.772 62.4141 82.772L64.2776 84.8082C64.5965 85.1565 64.605 85.6803 64.2977 86.0384L64.8329 89.7135L63.7746 90.4115L63.8793 92.9799C63.8793 92.9799 62.9372 93.5926 62.5188 93.3885C62.0998 93.1839 62.0998 93.184 62.0998 93.184L61.4721 92.5718L59.6926 95.0215L57.2321 96.4097L52.5752 88.3356Z" fill="#F9A78D"/>
<path d="M64.3029 86.234C64.2632 86.2546 64.0972 85.9044 63.6289 85.5193C63.3991 85.3324 63.0893 85.119 62.7301 84.9905C62.367 84.8728 61.9038 84.8698 61.428 84.8188C59.5228 84.6442 57.9842 84.4431 57.9912 84.37C57.9983 84.2964 59.5479 84.3788 61.4536 84.553C61.9259 84.6059 62.3876 84.6094 62.8141 84.759C63.2286 84.9243 63.5258 85.1607 63.7597 85.3805C64.2239 85.8293 64.3331 86.2281 64.3029 86.234Z" fill="#F57F62"/>
<path d="M64.1997 89.6141C64.1499 89.622 64.1298 89.2144 63.8124 88.6743C63.5061 88.1372 62.8543 87.5014 61.951 87.1532C61.0431 86.8064 60.1348 86.7632 59.489 86.75C58.8386 86.7406 58.4322 86.7558 58.4287 86.7161C58.4257 86.6828 58.8246 86.6003 59.4849 86.5611C60.1393 86.5268 61.0859 86.5376 62.0521 86.9055C63.0208 87.2783 63.7013 87.9885 63.9834 88.5865C64.2772 89.1908 64.2239 89.62 64.1997 89.6141Z" fill="#F57F62"/>
<path d="M63.7273 92.7675C63.6881 92.7856 63.5251 92.3956 63.4759 91.754C63.4401 91.4391 63.4064 91.0624 63.2395 90.7019C63.084 90.33 62.7254 90.0789 62.2511 89.9695C61.3076 89.7232 60.3962 89.7095 59.7449 89.6173C59.0895 89.5398 58.6952 89.4147 58.7043 89.3808C58.7133 89.3431 59.1111 89.4005 59.762 89.4294C60.4088 89.474 61.3287 89.4544 62.3231 89.7124C62.5715 89.7782 62.821 89.8709 63.0282 90.0279C63.238 90.1834 63.3813 90.3953 63.4698 90.6028C63.6469 91.0236 63.6559 91.4239 63.6685 91.7413C63.669 92.3804 63.758 92.7537 63.7273 92.7675Z" fill="#F57F62"/>
<path d="M66.3507 84.6518L45.5908 105.563L46.3898 106.353L61.2632 104.719L81.2771 86.1254L81.255 85.2301L66.3507 84.6518Z" fill="#33535F"/>
<path d="M66.9062 99.4763L66.911 99.4728C66.9092 99.4738 66.9074 99.4753 66.9062 99.4763Z" fill="#8F9192"/>
<path d="M63.9082 102.261L66.9059 99.4765C65.9115 100.477 64.9166 101.471 63.9082 102.261Z" fill="#8F9192"/>
<path d="M70.1533 96.4595L70.5426 96.0979C70.4294 96.2304 70.2916 96.3486 70.1533 96.4595Z" fill="#A7A9A8"/>
<path d="M63.9084 102.262C62.2748 101.41 60.792 98.9536 61.213 97.1946C61.4544 96.1865 62.1747 95.3448 63.0021 94.6968C64.0316 93.8904 65.281 93.3194 66.5972 93.2169C66.732 93.2061 66.8678 93.2007 67.0041 93.2007C68.1916 93.2007 69.3892 93.6034 70.2412 94.4064C70.5842 94.7297 70.8845 95.176 70.7879 95.6322C70.7507 95.8073 70.6602 95.9604 70.543 96.0982L70.1537 96.4597C70.125 96.4823 70.0963 96.5049 70.0682 96.527C69.0059 97.3594 67.9582 98.4189 66.9106 99.4731L66.9065 99.4765L63.9089 102.261C63.9089 102.262 63.9084 102.262 63.9084 102.262Z" fill="#20353D"/>
<path d="M81.1948 86.0851C81.1943 86.0925 81.1007 86.0974 80.9207 86.0998C80.7185 86.1003 80.4559 86.1008 80.128 86.1013C79.4093 86.0934 78.4053 86.0821 77.1525 86.0679C74.5808 86.0199 70.9922 85.9527 66.8045 85.8742L66.9001 85.8359C65.2921 87.4615 63.5333 89.2407 61.6979 91.0968C57.4942 95.3168 53.6893 99.1366 50.9134 101.923C49.5376 103.285 48.4183 104.395 47.6227 105.183C47.2435 105.55 46.942 105.843 46.7179 106.059C46.5088 106.258 46.3959 106.359 46.389 106.353C46.3823 106.346 46.4821 106.233 46.6782 106.022C46.8932 105.796 47.1826 105.493 47.546 105.111C48.3268 104.308 49.4251 103.179 50.7741 101.792C53.5354 98.9914 57.3197 95.153 61.5013 90.9114C63.3411 89.0592 65.104 87.284 66.7155 85.6618L66.7547 85.622L66.8106 85.6235C70.9977 85.7408 74.5854 85.8418 77.1565 85.9139C78.4084 85.9581 79.4118 85.9939 80.13 86.0189C80.4574 86.0351 80.7195 86.0478 80.9217 86.0576C81.1017 86.0684 81.1948 86.0782 81.1948 86.0851Z" fill="#17282F"/>
<path d="M68.2009 92.2192C68.2009 92.2192 70.2147 92.2569 70.8696 92.5763C71.525 92.8961 73.3296 94.7709 73.3296 94.7709C73.3296 94.7709 73.3296 96.0472 72.806 96.0983C72.806 96.0983 72.8583 96.2513 72.9106 96.966C72.9629 97.6802 73.0675 98.0888 72.0732 98.701C72.0732 98.701 72.1778 99.8749 71.8116 100.181C71.4455 100.488 71.0265 100.743 71.0265 100.743C71.0265 100.743 70.9697 102.035 69.1952 102.019L67.5319 102.734C67.5319 102.734 63.8301 102.395 64.2204 101.971C64.6107 101.548 65.501 99.4299 65.501 99.4299C65.501 99.4299 62.967 97.6292 63.0194 97.068C63.0717 96.5064 63.2814 96.4554 63.2814 96.4554C63.2814 96.4554 63.1768 95.3836 64.066 95.2815C64.066 95.2815 64.7465 93.9547 65.427 93.9036C66.1075 93.8526 70.7127 95.4856 70.7127 95.4856L68.9855 94.0567C68.9855 94.0567 67.2588 93.8016 67.3111 93.24C67.3634 92.6783 68.2009 92.2192 68.2009 92.2192Z" fill="#F9A78D"/>
<path d="M67.8953 98.9431C67.8525 99.0084 66.8466 98.4408 65.5595 97.837C64.2739 97.2282 63.1926 96.8128 63.2182 96.7397C63.2404 96.673 64.375 96.9805 65.6782 97.5966C66.9829 98.2088 67.935 98.8852 67.8953 98.9431Z" fill="#F57F62"/>
<path d="M70.2926 97.3803C70.2664 97.4495 68.9215 97.0237 67.2894 96.4302C65.6568 95.8366 64.3546 95.2995 64.3813 95.2303C64.4074 95.1617 65.7523 95.5865 67.385 96.1805C69.0171 96.774 70.3187 97.3112 70.2926 97.3803Z" fill="#F57F62"/>
<path d="M37.5302 52.1792C36.9127 49.9404 36.3051 47.6855 36.0918 45.3766C35.8782 43.0676 36.0759 40.6812 37.0175 38.5528C37.1602 38.23 38.3457 36.0766 38.7021 36.1291C38.9567 36.1669 38.1895 38.1923 38.3078 38.4155C39.4338 40.5468 39.6381 43.0514 39.3145 45.4281C38.9911 47.8047 38.3691 49.9257 37.5302 52.1792Z" fill="#17282F"/>
<path d="M37.7626 43.3333C37.8758 37.5201 41.439 32.7389 47.3946 33.0106L47.9435 33.0665C53.4668 33.6346 57.6192 38.2426 57.4829 43.6575C57.3557 48.6953 57.1495 54.2603 56.8256 56.9371C56.1556 62.4781 50.3725 62.7563 50.3725 62.7563L49.0585 71.3027L36.9102 63.0751L37.7626 43.3333Z" fill="#F9A78D"/>
<path d="M50.3727 62.7985C50.3727 62.7985 46.7644 62.6352 43.1963 59.9015C43.1963 59.9015 44.3327 64.6459 50.0633 64.7297L50.3727 62.7985Z" fill="#F57F62"/>
<path d="M55.3126 48.2986C55.2824 48.718 54.8932 49.0398 54.4425 49.0172C53.9934 48.9946 53.6523 48.6365 53.6825 48.2166C53.7122 47.7968 54.1015 47.475 54.5511 47.497C55.0013 47.5196 55.3423 47.8782 55.3126 48.2986Z" fill="#17282F"/>
<path d="M56.0178 45.8351C55.9056 45.9283 55.3383 45.4206 54.4641 45.3333C53.5915 45.2337 52.9029 45.606 52.8194 45.4917C52.7777 45.4407 52.9004 45.2646 53.2012 45.0949C53.4974 44.9261 53.9873 44.7819 54.5315 44.8403C55.0757 44.8991 55.5128 45.1415 55.7547 45.3691C56.0017 45.5976 56.0726 45.7939 56.0178 45.8351Z" fill="#17282F"/>
<path d="M47.8351 47.9578C47.805 48.3776 47.4156 48.6989 46.9651 48.6764C46.516 48.6538 46.1751 48.2957 46.2049 47.8758C46.2352 47.4559 46.6246 47.1342 47.0741 47.1562C47.5246 47.1788 47.8649 47.5379 47.8351 47.9578Z" fill="#17282F"/>
<path d="M47.4169 45.3002C47.3047 45.3934 46.7365 44.8857 45.8626 44.7979C44.9905 44.6983 44.3013 45.0711 44.2178 44.9568C44.1765 44.9058 44.2981 44.7297 44.5999 44.5604C44.8962 44.3907 45.386 44.247 45.9302 44.3049C46.4746 44.3642 46.9113 44.6065 47.1534 44.8337C47.3996 45.0627 47.4711 45.2589 47.4169 45.3002Z" fill="#17282F"/>
<path d="M49.8447 52.1737C49.8461 52.1252 50.3995 52.0894 51.2918 52.0697C51.5176 52.0707 51.7334 52.0491 51.7872 51.9044C51.8566 51.7524 51.7887 51.5081 51.7077 51.2437C51.5548 50.6953 51.3949 50.1204 51.2269 49.5175C50.565 47.0629 50.1111 45.0542 50.2127 45.0287C50.3145 45.0037 50.9331 46.9732 51.595 49.4278C51.7525 50.0326 51.9039 50.609 52.0467 51.1603C52.1045 51.4169 52.2197 51.7121 52.0703 52.0271C51.9929 52.1835 51.8158 52.2846 51.669 52.3076C51.5216 52.3351 51.3954 52.3248 51.2842 52.3199C50.393 52.2753 49.8429 52.2228 49.8447 52.1737Z" fill="#17282F"/>
<path d="M47.2078 52.4988C47.351 52.5056 47.2528 53.4312 47.994 54.1719C48.7334 54.9141 49.7564 54.9141 49.7497 55.0441C49.7566 55.1035 49.5051 55.2011 49.0768 55.1682C48.6565 55.1393 48.0591 54.945 47.6054 54.4923C47.1536 54.0385 46.9986 53.4788 47.0072 53.0962C47.0129 52.7053 47.1435 52.487 47.2078 52.4988Z" fill="#17282F"/>
<path d="M47.742 41.8348C47.6308 42.058 46.7699 41.8584 45.7311 41.8736C44.6922 41.8682 43.8333 42.0757 43.7195 41.8539C43.6698 41.7485 43.8378 41.5449 44.1963 41.3551C44.5519 41.1652 45.1038 41.0063 45.7268 41.0029C46.3496 41.0009 46.9031 41.1535 47.2606 41.3404C47.6212 41.5273 47.7911 41.7289 47.742 41.8348Z" fill="#17282F"/>
<path d="M55.963 42.9641C55.788 43.1417 55.2076 42.8788 54.4843 42.7949C53.7646 42.6865 53.1328 42.7875 53.0136 42.5702C52.9623 42.4657 53.08 42.2818 53.3677 42.1258C53.6514 41.9708 54.1096 41.8663 54.6055 41.9325C55.1014 41.9992 55.5139 42.2185 55.7442 42.4432C55.9786 42.6683 56.041 42.8763 55.963 42.9641Z" fill="#17282F"/>
<path d="M37.7828 47.4903C37.6901 47.4392 33.9955 45.9603 33.71 49.7663C33.4244 53.5723 37.4011 53.0671 37.4162 52.9582C37.4312 52.8498 37.7828 47.4903 37.7828 47.4903Z" fill="#F9A78D"/>
<path d="M36.3318 51.4316C36.3157 51.4179 36.2603 51.4728 36.1419 51.516C36.0257 51.5581 35.8306 51.5787 35.633 51.49C35.2316 51.3129 34.9322 50.6497 34.965 49.9625C34.9811 49.6152 35.0803 49.2909 35.2265 49.027C35.3668 48.7567 35.5658 48.5757 35.7761 48.5541C35.9861 48.5227 36.124 48.6542 36.1637 48.7646C36.2081 48.8749 36.1774 48.9495 36.1977 48.9574C36.2079 48.9677 36.2861 48.8995 36.2668 48.7401C36.2562 48.663 36.2171 48.5698 36.1309 48.4904C36.043 48.4099 35.9081 48.3619 35.7623 48.3668C35.4599 48.3658 35.1685 48.616 35.0078 48.9059C34.8305 49.1962 34.7108 49.5602 34.6925 49.9502C34.6599 50.7189 35.0087 51.4654 35.5607 51.6646C35.8301 51.7539 36.0653 51.6896 36.1902 51.6082C36.3181 51.5228 36.3452 51.4394 36.3318 51.4316Z" fill="#F57F62"/>
<path d="M55.3722 37.1901C56.027 36.8899 54.2616 34.7747 52.7543 33.9899C50.4753 32.8038 46.9337 31.9395 44.7301 32.4025C42.077 32.9593 39.8286 34.0875 38.3682 36.3184C36.9071 38.5493 36.2377 41.2129 36.1395 43.8583C36.1094 44.6652 36.1397 45.5104 36.5357 46.2192C37.0257 47.0958 38.0372 47.6913 37.9148 48.8504C37.87 49.2738 37.9659 49.7098 38.2436 50.038C38.9089 50.8243 39.8292 50.1827 40.2771 49.5097C41.2339 48.072 41.4469 46.2972 41.6351 44.5931C41.7691 43.382 41.9013 42.1439 41.6271 40.9559C41.4779 40.3089 41.2107 39.6898 41.0986 39.0359C40.9863 38.3821 41.0545 37.6522 41.5005 37.1523C41.5732 37.0709 41.6907 36.9698 41.8385 36.8595C43.0065 35.9834 44.5733 35.7975 45.928 36.3631C48.077 37.2597 51.7574 38.6283 52.7859 37.9622C54.2662 37.0037 54.6484 36.342 54.6484 36.342L55.3722 37.1901Z" fill="#17282F"/>
</svg>
