<svg width="281" height="274" viewBox="0 0 281 274" fill="none" xmlns="http://www.w3.org/2000/svg">
<path d="M36.4844 233.01V221.018C36.4844 220.228 37.1449 219.587 37.96 219.587H38.511C39.3262 219.587 39.987 220.228 39.987 221.018V221.578H49.1667V224.623H40.1077V233.01H36.4844Z" fill="#E7E8E5"/>
<path d="M48.9824 273.499H27.6097C26.8054 273.499 26.1533 272.866 26.1533 272.087V236.838C26.1533 236.058 26.8054 235.426 27.6097 235.426H48.9824C49.7866 235.426 50.4387 236.058 50.4387 236.838V272.087C50.4387 272.866 49.7866 273.499 48.9824 273.499Z" fill="#DADBD8"/>
<path d="M44.5461 235.426H32.5996V231.246C32.5996 230.887 32.9003 230.595 33.2709 230.595H43.8751C44.2456 230.595 44.5461 230.887 44.5461 231.246V235.426Z" fill="#DADBD8"/>
<path d="M48.8183 266.548H38.2959V241.355H48.8183V266.548Z" fill="#E7E8E5"/>
<path d="M44.5467 235.297C44.5467 235.502 41.8056 235.667 38.4245 235.667C35.0424 235.667 32.3018 235.502 32.3018 235.297C32.3018 235.094 35.0424 234.928 38.4245 234.928C41.8056 234.928 44.5467 235.094 44.5467 235.297Z" fill="#E7E8E5"/>
<path d="M27.6474 260.468C27.4371 260.468 27.2666 255.5 27.2666 249.373C27.2666 243.244 27.4371 238.276 27.6474 238.276C27.8576 238.276 28.0278 243.244 28.0278 249.373C28.0278 255.5 27.8576 260.468 27.6474 260.468Z" fill="#FAFAF9"/>
<path d="M38.2953 273.541H11.9512V257.705H38.2953V273.541Z" fill="#F3F2F1"/>
<path d="M37.9825 263.528C37.9825 263.699 32.2188 263.838 25.1105 263.838C17.9997 263.838 12.2373 263.699 12.2373 263.528C12.2373 263.357 17.9997 263.218 25.1105 263.218C32.2188 263.218 37.9825 263.357 37.9825 263.528Z" fill="#DADBD8"/>
<path d="M37.9827 270.389H20.9561V266.305H37.9827V270.389Z" fill="white"/>
<path d="M281 148.029H175.677V0.00175476H281V148.029Z" fill="#DADBD8"/>
<path d="M275.724 148.029H170.399V0.00175476H275.724V148.029Z" fill="#F3F2F1"/>
<path d="M262.639 131.997H183.486V16.0341H262.639V131.997Z" fill="white"/>
<path d="M262.639 131.997C262.639 131.997 262.628 131.8 262.623 131.43C262.62 131.047 262.615 130.5 262.608 129.786C262.601 128.328 262.59 126.195 262.576 123.425C262.559 117.867 262.535 109.768 262.505 99.5371C262.473 79.0891 262.429 50.1331 262.376 16.0347L262.638 16.2888C238.456 16.2956 211.66 16.3036 183.496 16.3117H183.486L183.772 16.0347C183.75 59.7799 183.73 100.114 183.715 131.996L183.486 131.776C207.591 131.824 227.349 131.864 241.099 131.892C247.976 131.916 253.347 131.935 257.016 131.948C258.839 131.959 260.236 131.967 261.194 131.973C262.14 131.981 262.639 131.997 262.639 131.997C262.639 131.997 262.173 132.012 261.242 132.02C260.294 132.027 258.911 132.035 257.106 132.046C253.45 132.059 248.096 132.078 241.241 132.102C227.457 132.13 207.65 132.17 183.486 132.218L183.258 132.219V131.996C183.241 100.114 183.221 59.7799 183.199 16.0347V15.7565H183.486H183.496C211.66 15.7645 238.456 15.7725 262.638 15.7793H262.902V16.0347C262.849 50.2015 262.804 79.215 262.772 99.7043C262.742 109.911 262.718 117.99 262.701 123.535C262.687 126.282 262.677 128.398 262.669 129.844C262.663 130.547 262.658 131.083 262.654 131.46C262.649 131.821 262.639 131.997 262.639 131.997Z" fill="#DADBD8"/>
<path d="M276.02 0.00199699C276.081 0.0482635 275.366 1.05996 274.142 2.6466C272.919 4.23323 271.182 6.39109 269.2 8.72477C267.218 11.0585 265.366 13.1244 263.995 14.5932C262.623 16.0614 261.736 16.9356 261.677 16.8862C261.617 16.835 262.396 15.8696 263.688 14.3372C265.099 12.6759 266.837 10.6322 268.758 8.37129C270.677 6.1104 272.414 4.06544 273.824 2.40355C275.128 0.881071 275.956 -0.0455036 276.02 0.00199699Z" fill="#DADBD8"/>
<path d="M263.041 131.623C266.972 137.685 271.614 143.313 276.847 148.365L263.041 131.623Z" fill="white"/>
<path d="M276.847 148.365C276.795 148.416 275.855 147.626 274.44 146.242C273.025 144.859 271.149 142.869 269.233 140.547C267.317 138.222 265.727 136.01 264.648 134.367C263.567 132.724 262.979 131.662 263.042 131.623C263.113 131.58 263.822 132.567 264.983 134.147C266.144 135.727 267.776 137.889 269.68 140.2C271.585 142.508 273.401 144.527 274.735 145.973C276.069 147.419 276.907 148.307 276.847 148.365Z" fill="#DADBD8"/>
<path d="M170.385 147.912C174.983 142.411 179.582 136.91 184.18 131.408L170.385 147.912Z" fill="white"/>
<path d="M184.181 131.407C184.304 131.504 181.315 135.278 177.506 139.835C173.696 144.393 170.508 148.009 170.386 147.912C170.262 147.815 173.25 144.043 177.061 139.485C180.87 134.928 184.058 131.311 184.181 131.407Z" fill="#DADBD8"/>
<path d="M170.399 0.00184536C170.524 -0.0931549 173.522 3.38176 177.095 7.7635C180.67 12.1459 183.467 15.775 183.343 15.8707C183.219 15.9657 180.221 12.4907 176.646 8.10773C173.073 3.7266 170.276 0.0968466 170.399 0.00184536Z" fill="#DADBD8"/>
<path d="M183.764 33.4957C189.255 27.755 199.617 25.1597 207.052 28.2127C214.488 31.2651 219.533 39.0946 219.103 46.913C226.643 48.1239 232.449 54.7142 234.201 61.928C235.952 69.1419 234.247 76.7802 231.251 83.598C230.03 86.3777 228.583 89.1081 228.011 92.079C227.438 95.0493 227.89 98.399 230.05 100.577C232.622 103.17 236.739 103.414 240.173 104.775C245.201 106.767 248.802 111.285 250.802 116.182C252.803 121.078 253.411 126.388 254 131.623H184.181L183.764 33.4957Z" fill="#F3F2F1"/>
<path d="M187.784 117.133C187.709 117.068 203.055 100.411 222.056 79.9318C241.061 59.4462 256.525 42.897 256.599 42.9624C256.673 43.0271 241.331 59.6812 222.325 80.1668C203.325 100.646 187.858 117.198 187.784 117.133Z" fill="#FAFAF9"/>
<path d="M249.289 38.9997C249.363 39.0644 239.697 49.504 227.702 62.3137C215.703 75.1276 205.919 85.4586 205.845 85.3932C205.771 85.3285 215.435 74.8914 227.434 62.0774C239.428 49.2677 249.215 38.9343 249.289 38.9997Z" fill="#FAFAF9"/>
<path d="M244.863 70.5373C244.872 70.5459 244.746 70.6816 244.497 70.9327C244.221 71.2035 243.854 71.5644 243.395 72.0159C242.407 72.9783 241.023 74.3262 239.325 75.9807C235.895 79.3347 231.204 84.0125 226.15 89.2955C221.097 94.5823 216.639 99.4711 213.448 103.04C211.875 104.807 210.593 106.246 209.678 107.273C209.248 107.752 208.905 108.133 208.647 108.42C208.408 108.68 208.278 108.813 208.268 108.805C208.259 108.797 208.37 108.649 208.591 108.375C208.836 108.077 209.161 107.682 209.57 107.186C210.424 106.156 211.681 104.684 213.253 102.878C216.396 99.2663 220.827 94.3472 225.884 89.0562C230.942 83.7695 235.666 79.1157 239.144 75.8049C240.883 74.1485 242.302 72.8216 243.296 71.9179C243.775 71.486 244.158 71.1412 244.446 70.8815C244.711 70.6471 244.855 70.5286 244.863 70.5373Z" fill="#FAFAF9"/>
<path d="M65.295 31.4224H63.3447V27.5921C63.3447 26.3497 62.4811 25.3399 61.4199 25.3399H46.582C45.5208 25.3399 44.6574 26.3497 44.6574 27.5921V31.4224H42.707V27.5921C42.707 25.2337 44.4452 23.3158 46.582 23.3158H61.4199C63.5567 23.3158 65.295 25.2337 65.295 27.5921V31.4224Z" fill="#E7E8E5"/>
<path d="M86.4392 84.7061H21.2617C18.0548 84.7061 15.4551 82.1855 15.4551 79.0757V37.0528C15.4551 33.9431 18.0548 31.4225 21.2617 31.4225H86.4392C89.6463 31.4225 92.2458 33.9431 92.2458 37.0528V79.0763C92.2458 82.1855 89.6463 84.7061 86.4392 84.7061Z" fill="#E7E8E5"/>
<path d="M56.3035 68.7219H51.6982V47.3042H56.3035V68.7219Z" fill="#F3F2F1"/>
<path d="M64.3192 55.6236V60.4026H43.6816V55.6236H64.3192Z" fill="#F3F2F1"/>
<path d="M71.1399 58.0644C71.1336 58.0644 71.1228 57.9664 71.1075 57.7757C71.0929 57.5666 71.0731 57.2866 71.0483 56.9288C71.0362 56.7412 71.0235 56.5333 71.0089 56.3057C70.9847 56.0774 70.9364 55.8301 70.8969 55.5617C70.8129 55.0238 70.7334 54.4008 70.5336 53.7228C70.227 52.3478 69.6029 50.7229 68.6212 49.0018C67.6319 47.2874 66.2068 45.4979 64.2677 43.9797C62.3352 42.4757 59.8977 41.1969 57.0847 40.6812C54.2909 40.1846 51.1377 40.2753 48.1349 41.4603C47.371 41.7145 46.6525 42.1068 45.9141 42.4745C45.2146 42.9137 44.4777 43.3184 43.8266 43.868C43.1345 44.3609 42.5296 44.9784 41.8956 45.5725C41.323 46.2307 40.7214 46.8741 40.2278 47.6212C39.2149 49.0813 38.3301 50.7038 37.7951 52.4884C37.2404 54.262 36.9417 56.1453 36.9168 58.062C36.9412 59.9786 37.2394 61.8632 37.7939 63.6368C38.3289 65.4221 39.2139 67.0451 40.2268 68.5059C40.7204 69.2529 41.3221 69.8969 41.8946 70.5552C42.5286 71.1498 43.1337 71.7667 43.8258 72.2602C44.4769 72.8099 45.214 73.2146 45.9139 73.6538C46.6522 74.0221 47.3707 74.4144 48.1349 74.6686C51.138 75.8536 54.2917 75.9443 57.0857 75.4471C59.8987 74.9314 62.3364 73.6519 64.2689 72.148C66.2075 70.6298 67.6325 68.8402 68.6218 67.1259C69.6029 65.4048 70.2276 63.7805 70.5336 62.4049C70.7334 61.7275 70.8129 61.1045 70.8969 60.5672C70.937 60.2982 70.9847 60.0508 71.0089 59.8226C71.0235 59.5949 71.0362 59.3871 71.0483 59.1995C71.0731 58.8423 71.0929 58.5617 71.1075 58.3532C71.1228 58.1625 71.1336 58.0644 71.1399 58.0644C71.1463 58.0644 71.1476 58.1625 71.1444 58.3538C71.1387 58.5635 71.131 58.8454 71.1209 59.2044C71.1145 59.3932 71.1075 59.6024 71.0992 59.8318C71.0808 60.0613 71.0382 60.3111 71.0038 60.5826C70.9306 61.1248 70.8613 61.7547 70.6704 62.4406C70.3829 63.833 69.7727 65.4819 68.7962 67.2339C67.812 68.9784 66.3824 70.8056 64.4248 72.3602C62.4734 73.9005 60.0016 75.2151 57.1409 75.7543C54.3001 76.2743 51.0875 76.1935 48.0209 74.9949C47.241 74.7377 46.5069 74.3404 45.7526 73.9659C45.0379 73.5205 44.2854 73.1085 43.6196 72.5496C42.9126 72.0474 42.2932 71.4194 41.6458 70.813C41.0596 70.1431 40.4455 69.4861 39.94 68.7249C38.9037 67.2351 37.9991 65.5781 37.4511 63.7552C36.883 61.944 36.5781 60.0194 36.5537 58.062C36.5783 56.1046 36.8843 54.1805 37.4522 52.37C38.0006 50.5483 38.9047 48.8913 39.9413 47.4022C40.4465 46.6409 41.0608 45.984 41.6468 45.3146C42.2942 44.7082 42.9133 44.0809 43.6204 43.5787C44.2859 43.0198 45.0381 42.6077 45.7531 42.1623C46.5071 41.7885 47.241 41.3912 48.0209 41.134C51.087 39.9354 54.2991 39.8539 57.1399 40.3746C60.0006 40.9125 62.4724 42.2271 64.4235 43.7681C66.3811 45.322 67.8113 47.1486 68.7955 48.8938C69.7721 50.6458 70.3822 52.2953 70.6704 53.6876C70.8613 54.3736 70.9306 55.0028 71.0038 55.5457C71.0382 55.8171 71.0808 56.0664 71.0992 56.2964C71.1075 56.5259 71.1145 56.7351 71.1209 56.9244C71.131 57.2835 71.1387 57.5654 71.1444 57.7745C71.1476 57.9664 71.1463 58.0644 71.1399 58.0644Z" fill="#F3F2F1"/>
<path d="M113.998 90.8523H0V80.3584H113.998V90.8523Z" fill="#DADBD8"/>
<path d="M98.1946 98.916H93.3213V87.2902H98.1946V98.916Z" fill="#DADBD8"/>
<path d="M17.8918 98.9985H13.0186V87.3721H17.8918V98.9985Z" fill="#DADBD8"/>
<path d="M78.7396 46.6693V40.7799H74.7443C74.7443 41.01 74.7443 46.6693 74.7443 46.6693H70.7305V80.3582H82.4697V46.6693H78.7396Z" fill="#FAFAF9"/>
<path d="M92.0648 46.6693V40.7799H88.0688C88.0688 41.01 88.0688 46.6693 88.0688 46.6693H84.0557V80.3582H95.7943V46.6693H92.0648Z" fill="#F3F2F1"/>
<path d="M25.8924 80.3582H4.80273V58.471H25.8924V80.3582Z" fill="#F3F2F1"/>
<path d="M25.7891 64.0945C25.7891 64.2357 21.1331 64.3499 15.3911 64.3499C9.64717 64.3499 4.99219 64.2357 4.99219 64.0945C4.99219 63.9538 9.64717 63.8391 15.3911 63.8391C21.1331 63.8391 25.7891 63.9538 25.7891 64.0945Z" fill="#E7E8E5"/>
<path d="M16.1484 66.9821C16.1534 66.9655 16.2257 66.9766 16.3627 67.0142C16.5021 67.045 16.6957 67.1357 16.9238 67.2893C17.3823 67.5978 17.895 68.3078 18.0792 69.3041C18.2531 70.2677 18.2879 71.5779 17.5371 72.7445C17.1728 73.3089 16.6049 73.8148 15.8967 74.0331C15.1949 74.2571 14.4272 74.2151 13.7063 74.0122C12.2658 73.6315 11.0165 72.4773 10.7755 71.0856C10.4969 69.7291 11.0168 68.4423 11.7663 67.7761C12.5136 67.0895 13.3364 66.9099 13.866 66.8958C14.4083 66.881 14.6896 67.0124 14.6826 67.0352C14.6762 67.0808 14.3867 67.0198 13.8815 67.0944C13.3871 67.1653 12.6443 67.3911 12.0049 68.0395C11.3674 68.6631 10.9537 69.8038 11.2183 70.9839C11.4465 72.1701 12.5225 73.1639 13.836 73.5193C14.4876 73.7031 15.166 73.7376 15.7578 73.5538C16.3502 73.378 16.8326 72.9653 17.1641 72.4761C17.8389 71.4885 17.8597 70.2769 17.7369 69.3701C17.6062 68.438 17.192 67.7785 16.8073 67.4473C16.4208 67.1141 16.1305 67.0315 16.1484 66.9821Z" fill="#E7E8E5"/>
<path d="M276.427 273.649C276.427 273.738 216.195 273.81 141.912 273.81C67.6024 273.81 7.38281 273.738 7.38281 273.649C7.38281 273.56 67.6024 273.488 141.912 273.488C216.195 273.488 276.427 273.56 276.427 273.649Z" fill="#17282F"/>
<path d="M247.444 233.01V221.018C247.444 220.228 248.105 219.587 248.92 219.587H249.471C250.286 219.587 250.947 220.228 250.947 221.018V221.578H260.126V224.623H251.068V233.01H247.444Z" fill="#17282F"/>
<path d="M259.942 273.499H238.57C237.765 273.499 237.113 272.866 237.113 272.087V236.838C237.113 236.058 237.765 235.426 238.57 235.426H259.942C260.746 235.426 261.398 236.058 261.398 236.838V272.087C261.398 272.866 260.746 273.499 259.942 273.499Z" fill="#F2575D"/>
<path d="M255.507 235.426H243.561V231.246C243.561 230.887 243.861 230.595 244.232 230.595H254.836C255.207 230.595 255.507 230.887 255.507 231.246V235.426Z" fill="#F2575D"/>
<path d="M259.778 266.548H249.256V241.355H259.778V266.548Z" fill="#E7E8E5"/>
<path d="M255.507 235.297C255.507 235.502 252.765 235.667 249.385 235.667C246.002 235.667 243.262 235.502 243.262 235.297C243.262 235.094 246.002 234.928 249.385 234.928C252.765 234.928 255.507 235.094 255.507 235.297Z" fill="#17282F"/>
<path d="M238.607 260.468C238.397 260.468 238.227 255.5 238.227 249.373C238.227 243.244 238.397 238.276 238.607 238.276C238.817 238.276 238.987 243.244 238.987 249.373C238.987 255.5 238.817 260.468 238.607 260.468Z" fill="#FAFAF9"/>
<path d="M232.244 273.499H205.9V257.663H232.244V273.499Z" fill="#33535F"/>
<path d="M231.93 263.486C231.93 263.658 226.167 263.796 219.058 263.796C211.948 263.796 206.186 263.658 206.186 263.486C206.186 263.315 211.948 263.176 219.058 263.176C226.167 263.176 231.93 263.315 231.93 263.486Z" fill="#17282F"/>
<path d="M231.93 270.347H214.904V266.263H231.93V270.347Z" fill="white"/>
<path d="M227.218 257.673H200.873V241.837H227.218V257.673Z" fill="#F2575D"/>
<path d="M226.247 247.661C226.247 247.832 220.484 247.971 213.376 247.971C206.265 247.971 200.502 247.832 200.502 247.661C200.502 247.49 206.265 247.351 213.376 247.351C220.484 247.351 226.247 247.49 226.247 247.661Z" fill="#17282F"/>
<path d="M226.246 254.521H209.22V250.438H226.246V254.521Z" fill="white"/>
<path d="M67.5563 273.541H41.2119V257.705H67.5563V273.541Z" fill="#33535F"/>
<path d="M66.5858 263.528C66.5858 263.699 60.8222 263.838 53.714 263.838C46.6032 263.838 40.8408 263.699 40.8408 263.528C40.8408 263.357 46.6032 263.218 53.714 263.218C60.8222 263.218 66.5858 263.357 66.5858 263.528Z" fill="#17282F"/>
<path d="M66.5861 270.389H49.5596V266.305H66.5861V270.389Z" fill="white"/>
<path d="M190.413 80.2933L198.942 79.809C202.536 83.0533 207.07 85.4054 212.24 86.4085C227.103 89.2931 241.565 79.9472 244.54 65.5343C247.514 51.122 237.876 37.0995 223.012 34.215C208.147 31.331 193.686 40.6762 190.712 55.0892C189.469 61.1075 190.433 67.0543 193.051 72.1541L193.041 72.1424L190.413 80.2933Z" fill="white"/>
<path d="M190.412 80.2935C190.412 80.2935 190.46 80.1232 190.567 79.7765C190.679 79.4187 190.84 78.9018 191.051 78.2232C191.489 76.8315 192.134 74.7853 192.972 72.1222L193.009 72.0074L193.093 72.0969L193.103 72.108L192.987 72.1845C191.41 69.1284 189.907 64.7424 190.083 59.4014C190.124 58.0726 190.277 56.6938 190.555 55.2873C190.902 53.8981 191.207 52.4386 191.803 51.0185C192.888 48.1518 194.56 45.2759 196.882 42.7059C199.196 40.136 202.154 37.8769 205.611 36.2521C209.062 34.6241 213.013 33.6395 217.13 33.5569C221.246 33.4489 225.502 34.3459 229.425 36.1355C233.342 37.9312 236.95 40.6585 239.635 44.1914C239.97 44.6368 240.315 45.0736 240.639 45.5226C240.93 45.9933 241.221 46.4628 241.51 46.931L241.944 47.633L242.309 48.3683C242.551 48.8588 242.791 49.3486 243.031 49.8371C243.252 50.3325 243.42 50.8488 243.616 51.3522C243.795 51.8612 244.023 52.3534 244.137 52.879C244.401 53.9179 244.73 54.9382 244.85 55.9937C245.552 60.1725 245.205 64.3975 243.996 68.2327C242.757 72.0648 240.664 75.4861 238.068 78.2497C235.472 81.0208 232.387 83.1398 229.179 84.5716C225.969 86.0102 222.642 86.7597 219.491 86.962C217.912 87.1014 216.38 86.9916 214.904 86.9065C213.442 86.685 212.019 86.5327 210.696 86.1699C205.36 84.8165 201.446 82.1861 198.894 79.8586L198.945 79.8764C196.166 80.0165 194.029 80.1238 192.573 80.1966C191.865 80.2305 191.325 80.2558 190.951 80.2737C190.589 80.2904 190.412 80.2935 190.412 80.2935C190.412 80.2935 190.608 80.2756 190.979 80.2503C191.357 80.225 191.902 80.1892 192.618 80.1417C194.062 80.0504 196.181 79.9159 198.937 79.7414L198.966 79.7395L198.988 79.7599C201.548 82.0553 205.451 84.645 210.75 85.9657C212.064 86.3211 213.477 86.466 214.927 86.6801C216.391 86.7591 217.91 86.8633 219.474 86.7202C222.596 86.5098 225.888 85.7585 229.062 84.3273C232.234 82.9023 235.283 80.7993 237.845 78.0535C240.408 75.3158 242.473 71.9316 243.693 68.142C244.884 64.3488 245.223 60.1731 244.526 56.0449C244.408 55.0023 244.082 53.9943 243.821 52.9678C243.709 52.4484 243.482 51.9623 243.305 51.4596C243.111 50.9624 242.946 50.4528 242.727 49.9624C242.49 49.48 242.252 48.9963 242.014 48.5115L241.653 47.7854L241.223 47.092C240.937 46.6287 240.651 46.1654 240.363 45.7003C240.043 45.2568 239.702 44.8249 239.371 44.3851C236.718 40.8941 233.154 38.199 229.285 36.4229C225.411 34.6525 221.203 33.7617 217.135 33.8647C213.066 33.9424 209.159 34.9097 205.743 36.5142C202.32 38.1157 199.388 40.3451 197.091 42.8836C194.787 45.4227 193.123 48.2659 192.039 51.1024C191.442 52.5076 191.136 53.9536 190.786 55.3305C190.506 56.7241 190.347 58.0911 190.302 59.4081C190.104 64.706 191.57 69.0704 193.114 72.1234L193.34 72.5713L192.998 72.1999L192.988 72.1888L193.107 72.1635C192.239 74.7951 191.572 76.8179 191.118 78.1936C190.891 78.8759 190.718 79.3959 190.598 79.7562C190.48 80.1084 190.412 80.2935 190.412 80.2935Z" fill="#17282F"/>
<path d="M204.618 62.0638L208.171 58.6191L215.022 64.524L228.471 51.9759L231.769 55.4206L214.514 71.1672L204.618 62.0638Z" fill="#F2575D"/>
<path d="M179.536 170.587C179.536 170.587 184.032 183.389 208.345 209.195C217.31 218.71 224.892 219.334 230.823 214.995C240.781 207.708 229.927 192.132 229.927 192.132L197.481 149.468C194.748 145.872 191.293 143.695 187.05 143.065L179.536 170.587Z" fill="#F9A78D"/>
<path d="M102.866 170.774L92.9349 149.009C92.9349 149.009 78.5942 153.364 75.4959 171.179C73.0974 184.966 76.2249 231.937 76.2249 231.937L93.6493 246.673C100.616 230.612 101.478 200.025 101.478 200.025L102.866 170.774Z" fill="#F9A78D"/>
<path d="M195.307 273.649L181.72 234.076L189.502 186.029L188.652 142.855L158.916 137.349L123.526 138.53L92.9346 148.668L99.1293 182.997L102.335 234.84L94.903 273.649H195.307Z" fill="#F2575D"/>
<path d="M73.9258 177.088L101.639 190.631L99.2136 146.588C99.2136 146.588 82.4115 151.797 78.2571 162.514C74.1027 173.233 73.9258 177.088 73.9258 177.088Z" fill="#F2575D"/>
<path d="M188.053 184.952L192.757 191.933L202.378 178.936L194.586 146.42C194.586 146.42 191.011 142.329 185.428 142.823L188.053 184.952Z" fill="#F2575D"/>
<path d="M191.02 154.572C191.031 154.572 191.044 154.729 191.056 155.029C191.067 155.359 191.081 155.795 191.097 156.339C191.129 157.477 191.144 159.124 191.133 161.159C191.114 165.23 190.944 170.854 190.471 177.05C189.993 183.247 189.304 188.835 188.702 192.864C188.402 194.878 188.137 196.505 187.932 197.625C187.832 198.161 187.753 198.59 187.692 198.915C187.634 199.21 187.597 199.363 187.586 199.361C187.574 199.359 187.588 199.203 187.626 198.905C187.671 198.577 187.73 198.145 187.805 197.606C187.966 196.444 188.193 194.822 188.47 192.833C189.012 188.8 189.664 183.216 190.14 177.026C190.612 170.838 190.82 165.222 190.899 161.156C190.928 159.149 190.951 157.512 190.969 156.34C190.978 155.796 190.985 155.36 190.99 155.029C190.999 154.73 191.009 154.572 191.02 154.572Z" fill="#17282F"/>
<path d="M94.3086 173.856C94.3951 173.826 95.8648 177.586 97.5914 182.254C99.3187 186.924 100.649 190.732 100.563 190.762C100.477 190.792 99.007 187.032 97.2797 182.363C95.553 177.695 94.2227 173.886 94.3086 173.856Z" fill="#17282F"/>
<path d="M164.209 238.989C164.216 239.077 155.102 239.81 143.855 240.626C132.603 241.442 123.48 242.032 123.473 241.944C123.466 241.855 132.579 241.122 143.83 240.306C155.077 239.49 164.202 238.9 164.209 238.989Z" fill="#17282F"/>
<path d="M157.779 215.819C157.791 215.838 157.472 216.071 156.883 216.478C156.295 216.886 155.432 217.459 154.356 218.153C152.204 219.541 149.183 221.392 145.767 223.304C142.348 225.216 139.184 226.826 136.868 227.938C135.709 228.494 134.766 228.932 134.107 229.221C133.449 229.511 133.082 229.663 133.072 229.643C133.061 229.623 133.411 229.434 134.051 229.109C134.739 228.759 135.653 228.296 136.761 227.736C139.048 226.573 142.188 224.934 145.602 223.026C149.012 221.117 152.047 219.3 154.228 217.962C155.284 217.313 156.156 216.777 156.811 216.374C157.422 215.999 157.766 215.801 157.779 215.819Z" fill="#17282F"/>
<path d="M177.981 188.82C177.981 188.82 177.925 188.704 177.832 188.472C177.736 188.228 177.601 187.886 177.425 187.44C177.071 186.519 176.555 185.179 175.893 183.46C175.232 181.727 174.426 179.611 173.489 177.157C173.022 175.928 172.523 174.613 171.993 173.22C171.464 171.828 170.933 170.338 170.111 168.908C169.699 168.197 169.22 167.491 168.599 166.894C167.984 166.295 167.226 165.794 166.348 165.574C165.915 165.444 165.457 165.418 164.999 165.422C164.543 165.466 164.079 165.53 163.642 165.706C162.753 166.011 161.963 166.591 161.29 167.278C160.626 167.978 160.087 168.816 159.733 169.737C159.394 170.663 159.219 171.666 159.164 172.686C159.049 174.734 159.394 176.84 159.624 179.012C159.838 181.175 159.923 183.496 159.103 185.699C158.7 186.792 158.023 187.818 157.088 188.599C156.156 189.38 154.989 189.891 153.768 190.125C151.33 190.587 148.614 190.034 146.615 188.426C145.607 187.628 144.893 186.524 144.408 185.36C143.929 184.184 143.663 182.939 143.478 181.689C143.108 179.193 143.041 176.677 142.084 174.42C141.625 173.3 140.996 172.238 140.122 171.419C139.693 171.002 139.195 170.66 138.655 170.412C138.392 170.272 138.102 170.195 137.822 170.097C137.529 170.05 137.242 169.961 136.947 169.944C135.764 169.838 134.581 170.172 133.582 170.765C132.586 171.37 131.754 172.2 131.09 173.118C130.426 174.039 129.925 175.057 129.61 176.112C129.297 177.166 129.194 178.267 129.156 179.346C129.093 181.513 129.369 183.627 129.51 185.691C129.582 186.724 129.624 187.748 129.589 188.756C129.563 189.761 129.434 190.768 129.133 191.707C128.539 193.565 127.462 195.304 125.815 196.267C124.998 196.74 124.031 196.947 123.122 196.828C122.204 196.743 121.38 196.316 120.706 195.798C119.36 194.725 118.519 193.327 117.756 192.048C116.99 190.757 116.333 189.505 115.765 188.314C114.626 185.932 113.852 183.794 113.304 182.026C112.753 180.259 112.433 178.856 112.239 177.904C112.135 177.429 112.078 177.062 112.033 176.817C111.99 176.571 111.977 176.444 111.977 176.444C111.977 176.444 112.012 176.568 112.066 176.811C112.122 177.054 112.19 177.418 112.304 177.89C112.52 178.838 112.86 180.232 113.427 181.989C113.993 183.747 114.783 185.872 115.932 188.238C116.506 189.421 117.169 190.664 117.938 191.945C118.705 193.217 119.547 194.592 120.852 195.621C121.504 196.117 122.287 196.517 123.152 196.592C124.01 196.7 124.911 196.504 125.684 196.053C127.245 195.138 128.298 193.444 128.87 191.63C129.16 190.711 129.282 189.744 129.306 188.747C129.338 187.752 129.294 186.738 129.22 185.711C129.075 183.656 128.792 181.536 128.851 179.337C128.888 178.242 128.989 177.124 129.311 176.029C129.634 174.94 130.148 173.892 130.83 172.942C131.514 171.995 132.371 171.135 133.413 170.5C134.457 169.878 135.715 169.517 136.978 169.631C137.293 169.65 137.599 169.741 137.911 169.794C138.209 169.896 138.516 169.98 138.796 170.127C139.372 170.39 139.9 170.754 140.351 171.191C141.27 172.053 141.918 173.153 142.39 174.302C143.372 176.623 143.438 179.178 143.807 181.643C143.989 182.881 144.251 184.101 144.715 185.24C145.189 186.372 145.867 187.422 146.828 188.182C148.734 189.72 151.361 190.261 153.705 189.817C154.878 189.593 155.992 189.104 156.879 188.363C157.765 187.625 158.416 186.648 158.806 185.593C159.602 183.471 159.53 181.187 159.32 179.041C159.096 176.882 158.751 174.759 158.873 172.67C158.932 171.628 159.112 170.604 159.468 169.642C159.838 168.686 160.397 167.82 161.089 167.097C161.789 166.386 162.613 165.784 163.55 165.464C164.01 165.282 164.503 165.213 164.986 165.169C165.472 165.166 165.96 165.197 166.417 165.335C167.344 165.572 168.139 166.104 168.772 166.726C169.414 167.349 169.9 168.073 170.316 168.797C171.145 170.256 171.669 171.754 172.19 173.148C172.711 174.545 173.203 175.862 173.663 177.094C174.579 179.556 175.368 181.679 176.015 183.418C176.651 185.146 177.147 186.492 177.488 187.418C177.651 187.868 177.775 188.215 177.864 188.461C177.947 188.696 177.981 188.82 177.981 188.82Z" fill="white"/>
<path d="M108.352 41.0022C101.099 40.7468 93.8506 44.3278 90.5545 49.7946C87.2589 55.2609 88.0898 62.3224 92.596 67.1322C89.025 68.5739 87.6699 72.9217 89.938 75.6625C92.2054 78.404 97.5018 78.8204 100.329 76.4799C98.6298 79.5354 100.5 83.4699 103.927 85.2045C107.354 86.9386 111.848 86.6863 115.401 85.1423C118.953 83.5988 121.66 80.9258 123.706 78.0265L125.223 51.0136C122.475 45.3345 115.604 41.2569 108.352 41.0022Z" fill="#17282F"/>
<path d="M105.753 81.3446C102.725 77.882 102.928 72.2794 106.198 69.021C104.259 66.8761 104.799 63.4493 106.605 61.2026C108.41 58.9565 111.166 57.6105 113.828 56.3372C115.074 49.8303 122.565 45.034 129.411 46.3597C132.766 41.3228 140.271 40.3 146.37 41.7639C147.859 42.1211 149.352 42.5973 150.887 42.5406C152.014 42.4986 153.104 42.171 154.215 41.9915C160.327 41.0051 166.575 44.8934 169.17 50.2214C169.586 51.0733 169.934 51.974 170.569 52.6951C171.401 53.6402 172.631 54.1719 173.689 54.8888C175.975 56.4378 177.484 58.9719 177.701 61.6252C177.885 63.878 177.215 66.2987 178.295 68.3147C178.837 69.3252 179.777 70.124 180.209 71.1814C181.46 74.2436 177.946 77.5335 178.738 80.7302C178.9 81.3822 179.235 81.9837 179.452 82.6215C179.894 83.9256 179.815 85.3821 179.232 86.6362C178.783 87.6047 178.033 88.5023 178.007 89.559C177.986 90.361 178.392 91.1105 178.591 91.8909C179.077 93.7983 174.97 101.354 173.255 102.457L120.834 104.646C116.838 104.013 113.479 100.718 112.955 96.9154C112.868 96.2831 112.833 95.5947 112.399 95.1067C112.029 94.6909 111.45 94.5145 110.935 94.2745C107.495 92.6712 106.924 88.2987 107.145 84.6764C107.177 84.1693 107.212 83.6493 107.06 83.1625C106.837 82.4544 106.25 81.9133 105.753 81.3446Z" fill="#17282F"/>
<path d="M120.778 80.9153C120.297 72.1395 125.742 61.8554 134.801 57.2547C140.512 54.3547 145.045 54.1856 148.087 53.7476C154.903 52.7643 160.545 55.7895 160.545 55.7895C163.459 56.3361 174.392 65.1601 175.313 75.0993C176.334 86.1416 177.122 99.6607 175.951 107.945C173.595 124.601 158.675 127.079 158.675 127.079C158.672 127.054 158.584 137.884 158.584 137.884C150.243 150.015 133.383 150.697 123.559 139.659L123.528 139.624L120.778 80.9153Z" fill="#F9A78D"/>
<path d="M150.991 106.291C151.035 105.48 151.447 104.734 152.009 104.2C153.13 103.134 154.881 102.907 156.24 103.651C157.599 104.396 157.883 105.812 157.775 107.433C157.131 108.428 156.676 109.4 155.461 109.592C155.271 109.622 155.08 109.643 154.889 109.653C153.958 109.7 152.988 109.474 152.225 108.879C151.461 108.285 150.937 107.293 150.991 106.291Z" fill="#F57F62"/>
<path d="M169.262 89.4455C169.333 90.5688 168.386 91.5509 167.149 91.6428C165.913 91.7341 164.852 90.9007 164.781 89.778C164.71 88.6552 165.656 87.6713 166.891 87.5794C168.13 87.4875 169.191 88.3233 169.262 89.4455Z" fill="#17282F"/>
<path d="M171.452 81.5609C171.18 81.8447 169.445 80.6917 167.025 80.7528C164.607 80.7818 162.861 82.0014 162.592 81.7269C162.459 81.606 162.731 81.0983 163.49 80.548C164.238 79.9996 165.523 79.4543 167.031 79.4246C168.538 79.3981 169.82 79.8941 170.562 80.4141C171.32 80.9373 171.585 81.4332 171.452 81.5609Z" fill="#17282F"/>
<path d="M157.759 99.9715C157.744 99.842 159.242 99.5613 161.672 99.209C162.288 99.1344 162.871 99.0049 162.964 98.6039C163.099 98.1776 162.824 97.5533 162.507 96.8803C161.89 95.4787 161.243 94.0093 160.564 92.4695C157.863 86.1896 155.891 81.0189 156.159 80.919C156.428 80.8178 158.835 85.8269 161.537 92.1074C162.188 93.6564 162.811 95.1326 163.403 96.5453C163.654 97.2048 164.076 97.9494 163.783 98.8334C163.628 99.2738 163.182 99.6014 162.788 99.7118C162.395 99.8352 162.049 99.8494 161.743 99.874C159.293 100.056 157.771 100.101 157.759 99.9715Z" fill="#17282F"/>
<path d="M158.731 127.024C158.731 127.024 146.875 128.023 135.016 121.646C135.016 121.646 141 133.42 158.511 131.461L158.731 127.024Z" fill="#F57F62"/>
<path d="M169.624 72.4409C169.231 73.0097 167.369 72.6784 165.208 72.8993C163.04 73.0541 161.267 73.7006 160.778 73.2077C160.56 72.9671 160.783 72.4163 161.519 71.8364C162.243 71.2596 163.508 70.7118 164.996 70.5816C166.484 70.4539 167.828 70.7753 168.645 71.2189C169.476 71.6624 169.794 72.1658 169.624 72.4409Z" fill="#17282F"/>
<path d="M143.528 90.467C143.559 91.5915 144.592 92.4934 145.834 92.4836C147.072 92.4743 148.054 91.557 148.022 90.4324C147.99 89.3084 146.959 88.4053 145.72 88.4152C144.478 88.4238 143.496 89.343 143.528 90.467Z" fill="#17282F"/>
<path d="M138.364 83.226C138.66 83.487 140.283 82.1964 142.7 82.0601C145.112 81.8917 146.962 82.9644 147.206 82.669C147.327 82.5376 147.009 82.0539 146.204 81.5672C145.409 81.0823 144.079 80.6431 142.574 80.7369C141.069 80.8331 139.838 81.4321 139.145 82.0107C138.438 82.5943 138.219 83.1094 138.364 83.226Z" fill="#17282F"/>
<path d="M138.028 74.2517C138.538 74.7428 140.368 74.0956 142.607 73.9383C144.841 73.7156 146.77 74.0444 147.171 73.4757C147.345 73.2005 147.011 72.6984 146.15 72.2555C145.301 71.8138 143.908 71.4936 142.37 71.6232C140.833 71.7546 139.528 72.303 138.784 72.8804C138.027 73.4609 137.802 74.0105 138.028 74.2517Z" fill="#17282F"/>
<path d="M124.009 96.575C123.974 95.3394 122.389 92.461 121.094 92.3006C117.637 91.8725 111.437 92.2771 111.593 100.555C111.806 111.869 123.768 109.332 123.783 109.008C123.794 108.754 124.13 100.841 124.009 96.575Z" fill="#F9A78D"/>
<path d="M120.406 104.93C120.353 104.895 120.2 105.071 119.851 105.231C119.51 105.385 118.922 105.498 118.294 105.287C117.023 104.87 115.923 102.99 115.827 100.951C115.777 99.9217 115.986 98.9378 116.357 98.1191C116.706 97.2851 117.261 96.6972 117.895 96.58C118.525 96.4307 118.982 96.7836 119.135 97.0988C119.302 97.4128 119.229 97.6404 119.293 97.6583C119.326 97.6861 119.546 97.4646 119.441 96.9995C119.387 96.775 119.242 96.5103 118.957 96.2975C118.666 96.0822 118.242 95.9767 117.799 96.0291C116.878 96.1056 116.063 96.9218 115.657 97.8206C115.199 98.7237 114.938 99.8304 114.994 100.986C115.113 103.265 116.387 105.377 118.125 105.822C118.969 106.015 119.667 105.763 120.024 105.49C120.39 105.205 120.447 104.95 120.406 104.93Z" fill="#F57F62"/>
<path d="M177.97 75.1951C175.517 73.8237 173.924 71.9169 174.002 69.2217C172.413 69.7109 170.735 67.798 169.765 66.5087C168.796 65.2194 167.634 64.5846 167.664 63.0029C167.67 62.6908 167.682 62.3601 167.52 62.0874C167.266 61.6593 166.694 61.5316 166.195 61.3971C163.626 60.705 161.503 58.689 160.78 56.256C158.246 57.3781 155.414 57.8901 152.621 57.731C151.428 59.4583 149.262 60.5434 147.08 60.5051C144.9 60.4675 142.777 59.3077 141.651 57.5391C140.966 58.9722 139.438 59.9172 137.838 60.3423C136.238 60.7667 134.548 60.7426 132.886 60.7155C133.684 63.7376 131.689 67.1811 128.568 68.1706C128.147 68.3044 127.657 68.4383 127.472 68.8208C127.279 69.2187 127.514 69.6721 127.69 70.0774C128.803 72.6399 127.075 75.9452 124.248 76.6651C126.242 78.0531 126.128 81.3769 124.043 82.6396C123.616 82.8987 123.056 83.2115 123.135 83.6859C123.166 83.8666 123.291 84.0184 123.411 84.1621C124.331 85.2596 125.25 86.4606 125.396 87.8554C125.541 89.2502 124.585 90.8418 123.107 90.938C123.901 91.5728 124.649 92.3963 124.693 93.3796C124.737 94.3623 123.712 95.3888 122.733 95.057C122.317 94.9163 116.334 93.9509 116.063 93.6202C112.565 89.3557 116.692 84.4533 116.883 79.0574C117.075 73.6621 118.924 68.3976 121.645 63.6525C122.787 61.6618 124.093 59.7377 125.746 58.0999C127.629 56.2326 129.918 54.7817 132.197 53.3634C135.171 51.5134 138.231 49.6646 141.673 48.8089C148.086 47.2149 154.849 49.2729 160.936 51.7608C163.251 52.7064 165.562 53.7336 167.527 55.2289C169.878 57.0191 171.636 59.4064 173.179 61.8604C175.408 65.4063 177.282 69.2433 177.814 73.3382" fill="#17282F"/>
<path d="M180.209 71.1814C180.209 71.1814 180.076 70.7169 179.531 69.9834C179.268 69.6133 178.897 69.1839 178.544 68.6306C178.198 68.0766 177.913 67.369 177.815 66.5338C177.696 65.7016 177.742 64.7621 177.79 63.7344C177.837 62.7103 177.886 61.5685 177.602 60.3779C177.331 59.1928 176.788 57.9702 175.931 56.8536C175.504 56.2959 174.999 55.7654 174.417 55.2892C173.838 54.8061 173.165 54.4058 172.491 54.0067C171.822 53.6032 171.145 53.1689 170.633 52.5687C170.12 51.9691 169.793 51.2233 169.441 50.4682C168.735 48.9439 167.731 47.4621 166.416 46.1673C165.108 44.8724 163.531 43.7108 161.689 42.9107C160.783 42.4795 159.791 42.2013 158.783 41.9589C157.76 41.7763 156.703 41.6405 155.631 41.701C155.096 41.7115 154.56 41.796 154.024 41.8626C153.491 41.9545 152.967 42.0748 152.441 42.1766C151.391 42.4018 150.322 42.4573 149.246 42.2599C148.17 42.0872 147.111 41.7485 145.999 41.5159C144.892 41.2575 143.748 41.1199 142.594 41.0342C141.437 40.9515 140.264 40.9897 139.089 41.0915C137.915 41.2137 136.746 41.4493 135.599 41.7911C133.332 42.5085 131.143 43.7799 129.687 45.7003C129.544 45.8909 129.401 46.0809 129.259 46.2684L129.448 46.1926C125.809 45.4949 122.062 46.5127 119.21 48.4201C116.337 50.322 114.253 53.193 113.66 56.3083L113.751 56.1923C112.324 56.8758 110.913 57.563 109.619 58.3915C108.328 59.2163 107.15 60.1928 106.279 61.3735C105.418 62.5592 104.914 63.9379 104.834 65.3173C104.748 66.6917 105.157 68.0976 106.084 69.113L106.09 68.9236C104.428 70.5861 103.628 72.7594 103.501 74.8007C103.373 76.8518 103.883 78.8333 104.904 80.3909C105.137 80.7925 105.448 81.1386 105.729 81.4908C106.03 81.8264 106.337 82.1392 106.581 82.4791C106.826 82.8184 106.993 83.1873 107.037 83.5777C107.09 83.9676 107.057 84.3618 107.037 84.7529C106.956 86.3173 107.032 87.7639 107.286 89.0434C107.542 90.3197 107.966 91.4332 108.555 92.2808C109.131 93.137 109.839 93.7138 110.467 94.0698C111.095 94.4393 111.644 94.5744 111.954 94.7767C112.274 94.9612 112.389 95.1166 112.399 95.1067C112.399 95.1067 112.297 94.9402 111.979 94.7397C111.671 94.5225 111.12 94.3708 110.514 93.997C109.903 93.6348 109.221 93.0605 108.667 92.2142C108.101 91.3758 107.695 90.2765 107.455 89.0137C107.218 87.7485 107.153 86.3149 107.246 84.7634C107.267 84.376 107.306 83.9713 107.254 83.5525C107.21 83.1317 107.025 82.716 106.769 82.36C106.513 81.9997 106.203 81.6796 105.909 81.3477C105.637 81.0016 105.336 80.6648 105.112 80.2718C104.126 78.7512 103.639 76.816 103.774 74.8173C103.906 72.8273 104.696 70.7181 106.306 69.1185L106.399 69.026L106.312 68.9292C105.446 67.9736 105.06 66.6491 105.146 65.3333C105.226 64.0138 105.715 62.6838 106.546 61.5487C107.387 60.413 108.536 59.4612 109.806 58.6537C111.08 57.8425 112.478 57.1633 113.906 56.4822L113.982 56.4458L113.998 56.3656C114.578 53.3466 116.608 50.5502 119.414 48.6953C122.2 46.8354 125.853 45.8502 129.375 46.5263L129.49 46.5485L129.564 46.4504C129.701 46.269 129.839 46.0858 129.977 45.902C131.382 44.0489 133.498 42.8157 135.712 42.1137C136.831 41.7787 137.975 41.5474 139.127 41.4271C140.28 41.3259 141.433 41.2871 142.57 41.3679C143.706 41.4505 144.832 41.5844 145.919 41.8379C147.011 42.0637 148.079 42.4042 149.188 42.5807C149.741 42.6707 150.303 42.7207 150.866 42.7028C151.428 42.6837 151.976 42.5949 152.509 42.49C153.043 42.3857 153.564 42.2655 154.084 42.1748C154.606 42.1094 155.125 42.0261 155.645 42.015C156.688 41.9539 157.716 42.0841 158.713 42.2593C159.697 42.4943 160.667 42.762 161.554 43.1821C163.359 43.96 164.91 45.0951 166.199 46.3616C167.495 47.6299 168.485 49.0777 169.187 50.5749C169.541 51.3232 169.878 52.0918 170.426 52.7278C170.974 53.3645 171.68 53.8068 172.355 54.2102C173.037 54.61 173.692 54.9955 174.258 55.4625C174.829 55.9246 175.325 56.439 175.746 56.9813C176.59 58.0676 177.131 59.2607 177.406 60.4192C177.692 61.5808 177.656 62.7023 177.618 63.7282C177.581 64.7553 177.545 65.7047 177.676 66.5517C177.787 67.3999 178.089 68.1253 178.452 68.6836C178.822 69.2401 179.2 69.6608 179.472 70.0229C179.75 70.3807 179.933 70.6719 180.044 70.8736C180.156 71.0747 180.2 71.1845 180.209 71.1814Z" fill="#33535F"/>
<path d="M134.953 43.7298C134.972 43.7544 135.263 43.5502 135.836 43.2659C136.408 42.9858 137.281 42.6323 138.423 42.4793C139.554 42.3214 140.965 42.3757 142.368 42.9198C143.76 43.4608 145.129 44.4793 146.032 45.8926C146.291 46.2985 146.516 46.7315 146.663 47.1572C146.804 47.5804 146.836 48.0344 146.61 48.3508L146.329 48.7432L146.808 48.6019C148.123 48.2127 149.495 48.4175 150.517 48.9233C151.556 49.4267 152.228 50.2342 152.605 50.9646C152.986 51.7018 153.092 52.3668 153.125 52.8159C153.155 53.2681 153.124 53.5179 153.151 53.521C153.162 53.5222 153.178 53.4611 153.201 53.3421C153.225 53.2236 153.244 53.0447 153.247 52.8128C153.251 52.3514 153.178 51.6574 152.808 50.8739C152.445 50.1003 151.756 49.225 150.659 48.6692C149.582 48.1133 148.126 47.8752 146.703 48.2855L146.901 48.5359C147.221 48.0844 147.156 47.5181 147.005 47.0572C146.843 46.5847 146.614 46.1467 146.34 45.7161C145.393 44.2344 143.954 43.1776 142.492 42.6286C141.016 42.0746 139.544 42.0475 138.383 42.2412C137.209 42.4306 136.329 42.8291 135.768 43.1499C135.487 43.3127 135.278 43.4522 135.146 43.5583C135.011 43.6619 134.945 43.7205 134.953 43.7298Z" fill="#33535F"/>
<path d="M115.929 57.217C115.915 57.2324 116.061 57.378 116.358 57.6106C116.657 57.84 117.109 58.1608 117.736 58.4643C118.361 58.7629 119.176 59.0516 120.141 59.08C121.088 59.1096 122.207 58.8764 123.085 58.154L122.819 58.1226C122.937 58.2713 123.059 58.4236 123.183 58.5785C123.315 58.7265 123.462 58.8665 123.603 59.0134C124.508 59.8511 125.594 60.4118 126.641 60.695C127.688 60.988 128.684 61.0417 129.499 60.9596C130.318 60.8782 130.952 60.6715 131.371 60.505C131.783 60.3181 131.996 60.1916 131.986 60.1731C131.958 60.1034 131.072 60.6129 129.478 60.719C128.689 60.7678 127.735 60.6913 126.738 60.3946C125.741 60.1077 124.714 59.5642 123.858 58.7715C123.724 58.6327 123.585 58.5007 123.459 58.3607C123.342 58.2151 123.226 58.072 123.114 57.9326L122.992 57.7814L122.848 57.9011C122.065 58.5544 121.038 58.79 120.147 58.7802C119.246 58.7728 118.457 58.5236 117.839 58.2614C116.603 57.7099 115.966 57.1664 115.929 57.217Z" fill="#33535F"/>
<path d="M109.914 67.8713C109.902 67.8744 109.914 67.9447 109.949 68.0786C109.994 68.2081 110.068 68.4037 110.231 68.619C110.538 69.0545 111.206 69.577 112.192 69.7812C113.183 69.9977 114.395 69.7793 115.596 69.342C116.199 69.1205 116.825 68.8978 117.463 68.5894C118.084 68.2809 118.757 67.8429 119.073 67.123C119.097 67.0601 119.121 66.9972 119.143 66.9392L118.863 67.0274C120.039 67.8491 121.246 68.5591 122.467 68.9508C123.68 69.3586 124.888 69.3969 125.834 69.1921C126.788 68.9965 127.481 68.5931 127.877 68.2488C128.079 68.0798 128.216 67.9281 128.297 67.8189C128.38 67.7097 128.418 67.6498 128.408 67.643C128.383 67.6227 128.201 67.8454 127.789 68.1471C127.38 68.4493 126.701 68.8003 125.784 68.9576C124.872 69.1223 123.737 69.0631 122.576 68.6554C121.411 68.2636 120.241 67.5672 119.077 66.7529L118.882 66.6166L118.797 66.8411C118.779 66.8898 118.76 66.9423 118.739 66.9947C118.481 67.5906 117.891 67.9965 117.298 68.2939C116.698 68.59 116.065 68.8238 115.478 69.0483C114.307 69.4931 113.166 69.7164 112.242 69.5449C111.314 69.3827 110.666 68.9262 110.343 68.5394C110.009 68.1501 109.95 67.8583 109.914 67.8713Z" fill="#33535F"/>
<path d="M150.546 104.174C150.832 103.99 152.017 105.86 154.549 106.234C157.081 106.614 159.058 105.212 159.239 105.466C159.34 105.567 158.998 106.094 158.122 106.62C157.266 107.141 155.823 107.595 154.274 107.367C152.726 107.136 151.597 106.298 151.045 105.568C150.476 104.828 150.404 104.239 150.546 104.174Z" fill="#17282F"/>
<path d="M171.565 102.258C171.565 102.921 170.997 103.459 170.297 103.459C169.596 103.459 169.028 102.921 169.028 102.258C169.028 101.595 169.596 101.058 170.297 101.058C170.997 101.058 171.565 101.595 171.565 102.258Z" fill="#F57F62"/>
<path d="M171.085 102.258C171.085 102.67 170.733 103.003 170.297 103.003C169.862 103.003 169.51 102.67 169.51 102.258C169.51 101.847 169.862 101.513 170.297 101.513C170.733 101.513 171.085 101.847 171.085 102.258Z" fill="#F2575D"/>
<path d="M137.609 97.85C137.609 98.5125 137.041 99.0498 136.341 99.0498C135.64 99.0498 135.072 98.5125 135.072 97.85C135.072 97.1868 135.64 96.6495 136.341 96.6495C137.041 96.6495 137.609 97.1868 137.609 97.85Z" fill="#F57F62"/>
<path d="M137.128 97.85C137.128 98.2615 136.775 98.5952 136.34 98.5952C135.905 98.5952 135.552 98.2615 135.552 97.85C135.552 97.4379 135.905 97.1042 136.34 97.1042C136.775 97.1042 137.128 97.4379 137.128 97.85Z" fill="#F2575D"/>
<path d="M168.077 105.559C168.077 105.962 167.733 106.288 167.307 106.288C166.882 106.288 166.537 105.962 166.537 105.559C166.537 105.156 166.882 104.83 167.307 104.83C167.733 104.83 168.077 105.156 168.077 105.559Z" fill="#F57F62"/>
<path d="M167.785 105.559C167.785 105.809 167.572 106.011 167.307 106.011C167.043 106.011 166.829 105.809 166.829 105.559C166.829 105.309 167.043 105.107 167.307 105.107C167.572 105.107 167.785 105.309 167.785 105.559Z" fill="#F2575D"/>
<path d="M157.773 75.1788C157.773 75.5816 157.428 75.908 157.003 75.908C156.577 75.908 156.232 75.5816 156.232 75.1788C156.232 74.7766 156.577 74.4503 157.003 74.4503C157.428 74.4503 157.773 74.7766 157.773 75.1788Z" fill="#F57F62"/>
<path d="M157.481 75.1786C157.481 75.4284 157.267 75.6313 157.003 75.6313C156.738 75.6313 156.524 75.4284 156.524 75.1786C156.524 74.9287 156.738 74.7258 157.003 74.7258C157.267 74.7258 157.481 74.9287 157.481 75.1786Z" fill="#F2575D"/>
<path d="M117.734 161.649L98.0082 161.273C96.0831 161.236 94.553 159.693 94.5905 157.826L95.3807 118.912C95.4189 117.045 97.01 115.562 98.9358 115.598L118.662 115.975C120.587 116.012 122.117 117.555 122.08 119.422L121.289 158.336C121.251 160.202 119.66 161.686 117.734 161.649Z" fill="white"/>
<path d="M117.734 161.65C117.727 161.616 118.251 161.704 119.125 161.362C119.55 161.181 120.057 160.875 120.479 160.355C120.91 159.846 121.224 159.106 121.226 158.248C121.285 154.76 121.369 149.736 121.473 143.532C121.589 137.316 121.727 129.92 121.88 121.709C121.89 121.195 121.9 120.679 121.91 120.159C121.914 119.634 121.964 119.119 121.837 118.634C121.616 117.651 120.871 116.784 119.893 116.386C119.399 116.181 118.883 116.119 118.318 116.123C117.758 116.113 117.195 116.102 116.63 116.092C115.499 116.071 114.357 116.049 113.204 116.028C108.595 115.941 103.823 115.851 98.9356 115.759C97.7688 115.735 96.616 116.341 96.0301 117.308C95.7235 117.782 95.572 118.337 95.5479 118.888C95.5351 119.469 95.523 120.048 95.5103 120.625C95.4626 122.933 95.4162 125.208 95.3697 127.443C95.2756 131.913 95.1846 136.224 95.0981 140.332C95.0096 144.439 94.925 148.342 94.8461 151.995C94.806 153.821 94.7666 155.584 94.7297 157.28C94.7221 157.709 94.6953 158.118 94.7761 158.51C94.8506 158.905 95.0071 159.278 95.2196 159.611C95.6458 160.28 96.3132 160.772 97.0487 161.004C97.4189 161.127 97.7968 161.157 98.1856 161.165C98.5762 161.174 98.9617 161.183 99.3428 161.191C100.104 161.207 100.847 161.223 101.568 161.239C103.011 161.271 104.371 161.301 105.644 161.329C108.185 161.388 110.376 161.439 112.171 161.481C113.953 161.528 115.34 161.565 116.296 161.59C116.759 161.606 117.115 161.618 117.369 161.626C117.611 161.636 117.734 161.65 117.734 161.65C117.734 161.65 117.61 161.658 117.368 161.659C117.114 161.658 116.758 161.656 116.295 161.655C115.339 161.644 113.951 161.627 112.169 161.606C110.373 161.579 108.182 161.547 105.641 161.508C104.368 161.488 103.007 161.466 101.564 161.443C100.842 161.431 100.101 161.419 99.3384 161.407C98.9573 161.4 98.5717 161.394 98.1805 161.388C97.7898 161.381 97.3687 161.35 96.9774 161.22C96.1891 160.976 95.4715 160.452 95.0115 159.737C94.7819 159.38 94.612 158.979 94.5306 158.556C94.4409 158.13 94.4689 157.692 94.4739 157.275C94.5051 155.58 94.5376 153.816 94.5713 151.989C94.6413 148.336 94.7151 144.433 94.7933 140.326C94.8735 136.218 94.9575 131.906 95.0453 127.437C95.0898 125.202 95.135 122.927 95.1808 120.619C95.1929 120.041 95.2056 119.461 95.2177 118.88C95.2431 118.273 95.4111 117.662 95.7476 117.142C96.3908 116.078 97.6594 115.41 98.942 115.438C103.83 115.532 108.601 115.624 113.211 115.714C114.363 115.736 115.505 115.759 116.636 115.781C117.202 115.792 117.764 115.803 118.325 115.814C118.877 115.808 119.489 115.878 120.017 116.104C121.088 116.542 121.899 117.49 122.14 118.567C122.278 119.11 122.222 119.655 122.218 120.165C122.207 120.685 122.197 121.201 122.186 121.714C122.005 129.925 121.843 137.321 121.707 143.537C121.558 149.739 121.439 154.763 121.355 158.25C121.343 159.135 121.006 159.9 120.556 160.415C120.114 160.944 119.587 161.247 119.151 161.421C118.708 161.595 118.341 161.631 118.101 161.654C117.858 161.658 117.734 161.65 117.734 161.65Z" fill="#17282F"/>
<path d="M99.2839 122.242C99.2439 124.204 100.851 125.825 102.874 125.864C104.897 125.902 106.568 124.344 106.609 122.382C106.648 120.421 105.041 118.8 103.018 118.761C100.995 118.722 99.3234 120.281 99.2839 122.242Z" fill="#FAFAF9"/>
<path d="M99.2842 122.242C99.2727 122.242 99.267 122.164 99.267 122.014C99.2638 121.864 99.2855 121.64 99.3535 121.361C99.4827 120.811 99.8536 119.991 100.719 119.355C101.554 118.719 102.956 118.359 104.317 118.863C104.986 119.104 105.623 119.557 106.071 120.179C106.531 120.793 106.784 121.581 106.774 122.385C106.751 123.189 106.467 123.967 105.982 124.563C105.509 125.168 104.855 125.596 104.175 125.811C102.795 126.263 101.409 125.849 100.6 125.181C99.7613 124.514 99.4241 123.68 99.3179 123.126C99.2613 122.844 99.2486 122.62 99.2575 122.47C99.2638 122.32 99.2727 122.242 99.2842 122.242C99.3179 122.241 99.302 122.559 99.4439 123.097C99.5838 123.626 99.9407 124.4 100.746 125.004C101.524 125.609 102.814 125.962 104.077 125.531C105.328 125.138 106.427 123.876 106.443 122.379C106.487 120.882 105.441 119.579 104.207 119.139C102.963 118.661 101.659 118.964 100.857 119.539C100.028 120.112 99.6398 120.872 99.4782 121.394C99.3147 121.927 99.3179 122.245 99.2842 122.242Z" fill="#17282F"/>
<path d="M105.365 122.358C105.338 123.654 104.234 124.683 102.898 124.658C101.562 124.632 100.5 123.561 100.527 122.266C100.553 120.97 101.657 119.941 102.993 119.967C104.329 119.992 105.391 121.063 105.365 122.358Z" fill="#DADBD8"/>
<path d="M99.0642 133.044C99.0241 135.005 100.632 136.626 102.654 136.665C104.677 136.704 106.349 135.145 106.389 133.184C106.428 131.223 104.821 129.602 102.799 129.563C100.776 129.524 99.1037 131.083 99.0642 133.044Z" fill="#FAFAF9"/>
<path d="M99.0639 133.044C99.0524 133.044 99.0467 132.966 99.0467 132.815C99.0442 132.665 99.0658 132.442 99.1339 132.163C99.2624 131.612 99.6333 130.792 100.499 130.158C101.334 129.521 102.736 129.16 104.096 129.665C104.766 129.906 105.403 130.359 105.85 130.981C106.311 131.595 106.563 132.382 106.554 133.187C106.531 133.991 106.247 134.768 105.762 135.365C105.289 135.969 104.634 136.397 103.955 136.613C102.575 137.065 101.189 136.651 100.38 135.983C99.541 135.315 99.2039 134.483 99.0976 133.927C99.041 133.645 99.0289 133.422 99.0378 133.272C99.0435 133.122 99.0524 133.044 99.0639 133.044C99.0982 133.043 99.0817 133.361 99.2236 133.899C99.3635 134.428 99.7204 135.201 100.526 135.805C101.303 136.41 102.594 136.763 103.856 136.333C105.108 135.94 106.207 134.678 106.222 133.18C106.267 131.684 105.221 130.382 103.986 129.94C102.742 129.462 101.438 129.766 100.637 130.341C99.8076 130.913 99.4195 131.673 99.2579 132.196C99.0944 132.728 99.0982 133.046 99.0639 133.044Z" fill="#17282F"/>
<path d="M105.145 133.16C105.119 134.455 104.014 135.485 102.678 135.46C101.342 135.434 100.281 134.363 100.307 133.068C100.333 131.772 101.438 130.743 102.774 130.768C104.11 130.793 105.172 131.864 105.145 133.16Z" fill="#DADBD8"/>
<path d="M110.502 133.262C110.462 135.224 112.069 136.845 114.092 136.884C116.114 136.922 117.786 135.364 117.826 133.402C117.866 131.441 116.259 129.82 114.236 129.781C112.213 129.742 110.541 131.301 110.502 133.262Z" fill="#FAFAF9"/>
<path d="M110.502 133.262C110.49 133.262 110.484 133.184 110.484 133.033C110.482 132.884 110.503 132.66 110.572 132.381C110.7 131.83 111.071 131.011 111.936 130.376C112.772 129.739 114.174 129.378 115.534 129.883C116.204 130.124 116.841 130.576 117.288 131.199C117.749 131.813 118.001 132.6 117.992 133.405C117.969 134.209 117.684 134.986 117.2 135.583C116.727 136.188 116.072 136.616 115.393 136.832C114.013 137.283 112.627 136.869 111.817 136.201C110.979 135.534 110.642 134.7 110.535 134.146C110.479 133.864 110.466 133.64 110.476 133.491C110.481 133.34 110.49 133.262 110.502 133.262C110.536 133.261 110.519 133.579 110.661 134.117C110.801 134.645 111.158 135.42 111.963 136.023C112.741 136.629 114.032 136.981 115.294 136.551C116.546 136.158 117.644 134.896 117.66 133.399C117.705 131.902 116.659 130.599 115.424 130.159C114.18 129.681 112.876 129.984 112.074 130.559C111.245 131.132 110.857 131.892 110.696 132.414C110.532 132.946 110.536 133.265 110.502 133.262Z" fill="#17282F"/>
<path d="M116.583 133.378C116.556 134.674 115.452 135.704 114.116 135.678C112.78 135.652 111.718 134.582 111.745 133.287C111.771 131.991 112.875 130.962 114.211 130.987C115.547 131.012 116.609 132.083 116.583 133.378Z" fill="#DADBD8"/>
<path d="M98.8445 143.846C98.805 145.807 100.412 147.429 102.435 147.467C104.458 147.506 106.13 145.947 106.169 143.986C106.209 142.025 104.601 140.403 102.579 140.365C100.556 140.326 98.8845 141.885 98.8445 143.846Z" fill="#FAFAF9"/>
<path d="M98.8451 143.846C98.8337 143.846 98.828 143.767 98.8286 143.617C98.8254 143.467 98.847 143.244 98.9151 142.965C99.0436 142.414 99.4145 141.595 100.28 140.959C101.116 140.323 102.517 139.962 103.878 140.466C104.547 140.708 105.184 141.16 105.632 141.782C106.092 142.397 106.345 143.184 106.335 143.988C106.312 144.793 106.029 145.57 105.543 146.166C105.07 146.771 104.416 147.199 103.736 147.415C102.357 147.867 100.971 147.453 100.161 146.785C99.3229 146.117 98.9857 145.284 98.8795 144.729C98.8222 144.448 98.8101 144.224 98.819 144.074C98.8248 143.923 98.8337 143.846 98.8451 143.846C98.8795 143.845 98.8636 144.163 99.0048 144.701C99.1448 145.229 99.5017 146.003 100.307 146.607C101.085 147.212 102.375 147.565 103.638 147.135C104.89 146.741 105.988 145.479 106.004 143.982C106.048 142.486 105.002 141.183 103.768 140.743C102.524 140.264 101.22 140.567 100.418 141.142C99.5889 141.715 99.2008 142.475 99.0398 142.997C98.8763 143.53 98.8795 143.848 98.8451 143.846Z" fill="#17282F"/>
<path d="M104.926 143.962C104.9 145.258 103.795 146.287 102.459 146.262C101.123 146.236 100.061 145.165 100.087 143.87C100.114 142.574 101.218 141.545 102.554 141.57C103.891 141.596 104.952 142.667 104.926 143.962Z" fill="#DADBD8"/>
<path d="M110.282 144.064C110.242 146.026 111.85 147.647 113.872 147.685C115.895 147.724 117.567 146.165 117.607 144.204C117.647 142.243 116.039 140.622 114.017 140.583C111.994 140.545 110.322 142.103 110.282 144.064Z" fill="#FAFAF9"/>
<path d="M110.283 144.064C110.271 144.064 110.265 143.986 110.266 143.835C110.263 143.685 110.285 143.462 110.353 143.183C110.481 142.632 110.852 141.813 111.717 141.178C112.553 140.541 113.955 140.181 115.315 140.685C115.985 140.926 116.622 141.379 117.07 142C117.53 142.615 117.782 143.402 117.773 144.206C117.75 145.011 117.465 145.789 116.981 146.385C116.508 146.989 115.853 147.417 115.174 147.633C113.794 148.085 112.408 147.671 111.599 147.003C110.76 146.335 110.423 145.503 110.317 144.947C110.26 144.666 110.248 144.442 110.257 144.292C110.262 144.142 110.271 144.064 110.283 144.064C110.317 144.063 110.301 144.381 110.442 144.919C110.582 145.448 110.939 146.222 111.745 146.825C112.522 147.43 113.813 147.783 115.076 147.353C116.327 146.96 117.425 145.697 117.442 144.2C117.486 142.704 116.44 141.401 115.206 140.961C113.961 140.482 112.658 140.786 111.855 141.361C111.026 141.933 110.638 142.693 110.477 143.216C110.314 143.748 110.317 144.066 110.283 144.064Z" fill="#17282F"/>
<path d="M116.363 144.18C116.337 145.475 115.233 146.505 113.897 146.48C112.561 146.454 111.499 145.384 111.525 144.088C111.551 142.793 112.655 141.763 113.991 141.788C115.327 141.814 116.389 142.885 116.363 144.18Z" fill="#DADBD8"/>
<path d="M98.6247 154.648C98.5853 156.609 100.192 158.23 102.215 158.268C104.238 158.307 105.91 156.748 105.949 154.787C105.989 152.826 104.382 151.205 102.359 151.166C100.337 151.128 98.6648 152.686 98.6247 154.648Z" fill="#FAFAF9"/>
<path d="M98.6253 154.648C98.6139 154.647 98.6088 154.57 98.6088 154.419C98.6056 154.269 98.6273 154.046 98.6953 153.766C98.8245 153.216 99.1947 152.396 100.06 151.761C100.896 151.124 102.298 150.764 103.658 151.268C104.328 151.51 104.964 151.962 105.412 152.585C105.873 153.198 106.126 153.985 106.116 154.79C106.093 155.595 105.809 156.372 105.324 156.968C104.851 157.573 104.196 158.001 103.517 158.217C102.137 158.669 100.751 158.255 99.9417 157.587C99.1031 156.919 98.7659 156.086 98.6597 155.531C98.6031 155.249 98.5904 155.026 98.5993 154.876C98.6056 154.725 98.6139 154.647 98.6253 154.648C98.6597 154.647 98.6438 154.964 98.7857 155.503C98.9256 156.031 99.2819 156.805 100.087 157.409C100.865 158.014 102.156 158.367 103.419 157.937C104.67 157.544 105.769 156.281 105.785 154.784C105.829 153.288 104.783 151.985 103.548 151.544C102.305 151.066 101 151.37 100.199 151.944C99.3697 152.517 98.9816 153.277 98.82 153.799C98.6565 154.332 98.6597 154.65 98.6253 154.648Z" fill="#17282F"/>
<path d="M104.706 154.764C104.68 156.06 103.575 157.089 102.239 157.063C100.903 157.038 99.8416 155.967 99.8677 154.672C99.8944 153.376 100.999 152.347 102.335 152.372C103.671 152.398 104.733 153.469 104.706 154.764Z" fill="#DADBD8"/>
<path d="M110.063 154.866C110.024 156.827 111.631 158.449 113.654 158.487C115.676 158.526 117.348 156.967 117.388 155.006C117.428 153.045 115.82 151.423 113.798 151.385C111.775 151.346 110.103 152.905 110.063 154.866Z" fill="#FAFAF9"/>
<path d="M110.063 154.866C110.051 154.866 110.046 154.788 110.046 154.637C110.043 154.487 110.065 154.264 110.133 153.985C110.261 153.434 110.632 152.615 111.497 151.979C112.333 151.343 113.736 150.982 115.095 151.486C115.765 151.728 116.402 152.18 116.85 152.802C117.31 153.417 117.562 154.204 117.554 155.008C117.531 155.813 117.246 156.59 116.761 157.186C116.288 157.792 115.633 158.219 114.955 158.435C113.575 158.887 112.188 158.473 111.379 157.805C110.541 157.137 110.203 156.304 110.097 155.749C110.041 155.468 110.028 155.244 110.037 155.094C110.043 154.943 110.051 154.866 110.063 154.866C110.097 154.865 110.081 155.183 110.223 155.721C110.363 156.249 110.719 157.024 111.525 157.627C112.303 158.232 113.593 158.585 114.856 158.155C116.107 157.762 117.206 156.499 117.222 155.002C117.266 153.506 116.22 152.203 114.986 151.763C113.741 151.285 112.438 151.588 111.636 152.162C110.807 152.735 110.419 153.495 110.258 154.017C110.094 154.55 110.097 154.868 110.063 154.866Z" fill="#17282F"/>
<path d="M116.144 154.982C116.118 156.278 115.014 157.307 113.678 157.282C112.342 157.256 111.28 156.185 111.306 154.89C111.333 153.594 112.437 152.565 113.773 152.59C115.109 152.616 116.171 153.687 116.144 154.982Z" fill="#DADBD8"/>
<path d="M105.674 149.573L102.244 142.797L96.4518 137.69C96.4518 137.69 94.2887 135.613 93.141 135.191C91.9933 134.77 80.8782 138.197 80.8782 138.197C77.7684 138.263 76.6894 140.857 76.6894 140.857C72.5935 143.617 74.756 147.656 74.756 147.656L75.0264 152.845L76.8103 170.721L75.4074 179.224C75.4074 179.224 82.6443 175.175 86.1199 173.333C89.5948 171.491 91.8769 165.649 91.8769 165.649C95.4841 162.965 96.7502 156.054 96.7502 156.054C99.2556 154.371 98.5659 151.881 98.5659 151.881C99.8612 151.084 99.5749 148.625 99.5749 148.625C101.304 150.85 103.771 150.831 105.116 150.611C105.615 150.53 105.898 150.014 105.674 149.573Z" fill="#F9A78D"/>
<path d="M80.5625 148.792C80.5625 148.778 80.7464 148.766 81.0956 148.757C81.4837 148.741 81.9908 148.72 82.6213 148.694C83.9452 148.631 85.8551 148.462 88.2122 148.195C88.5074 148.163 88.809 148.13 89.1175 148.096C89.4185 148.064 89.7557 148.013 90.0979 148.053C90.7774 148.116 91.4658 148.427 91.9665 148.957C92.8622 150.002 93.8172 151.116 94.8211 152.287C95.0699 152.583 95.3212 152.881 95.5655 153.199C95.6265 153.279 95.6876 153.36 95.7474 153.45C95.7741 153.484 95.8168 153.57 95.8371 153.622L95.8778 153.773C95.9389 153.974 95.9656 154.183 95.9847 154.392C96.0483 155.241 95.7665 156.072 95.3981 156.831C95.0222 157.595 94.5386 158.307 94.0558 159.023C93.8076 159.383 93.5379 159.759 93.1339 160.042C92.7331 160.333 92.1331 160.421 91.6585 160.194C91.2762 160.023 90.9931 159.7 90.8467 159.337C90.7074 158.972 90.6731 158.594 90.7201 158.225C90.82 157.484 91.1979 156.863 91.5402 156.286L91.5943 156.534C90.4364 155.715 89.4681 154.718 88.7199 153.64L88.982 153.689C87.7497 154.502 86.184 154.606 84.9421 154.121L85.1324 153.847C85.628 154.36 85.7488 155.12 85.4829 155.723C85.2132 156.326 84.6107 156.722 83.9846 156.772L84.0203 156.477C85.5395 156.975 86.7 157.917 87.4456 158.91C88.202 159.908 88.543 160.955 88.6792 161.809C88.8166 162.67 88.7549 163.354 88.6824 163.805C88.6436 164.031 88.6054 164.202 88.571 164.314C88.538 164.428 88.5176 164.485 88.51 164.483C88.4419 164.482 88.8039 163.523 88.5049 161.838C88.3465 161.009 87.9908 160.004 87.2439 159.055C86.5078 158.111 85.3773 157.223 83.9229 156.766L83.1951 156.536L83.9586 156.47C84.4643 156.426 84.9688 156.085 85.1775 155.598C85.3881 155.117 85.2787 154.481 84.8804 154.081L84.3225 153.52L85.0713 153.807C86.2082 154.243 87.6555 154.135 88.7683 153.389L88.9241 153.285L89.031 153.437C89.7607 154.476 90.7023 155.438 91.824 156.228L91.9665 156.328L91.878 156.476C91.537 157.05 91.1941 157.637 91.112 158.271C91.0236 158.89 91.2444 159.595 91.8252 159.846C92.1758 160.007 92.588 159.954 92.9061 159.729C93.2319 159.502 93.4883 159.161 93.7268 158.813C94.2097 158.099 94.6862 157.4 95.0482 156.669C95.4039 155.941 95.6622 155.17 95.6075 154.417C95.5903 154.23 95.5693 154.043 95.5152 153.866L95.4796 153.731C95.4611 153.694 95.4618 153.689 95.43 153.642C95.3816 153.567 95.3244 153.49 95.2658 153.413C95.0323 153.106 94.7823 152.805 94.538 152.51C93.5481 151.336 92.6065 150.219 91.7234 149.172C91.2838 148.696 90.6737 148.411 90.0655 148.348C89.7614 148.308 89.4636 148.349 89.1487 148.378C88.8395 148.408 88.5373 148.437 88.2415 148.465C85.8793 148.698 83.9566 148.826 82.6263 148.844C81.9615 148.857 81.4449 148.846 81.095 148.834C80.7457 148.819 80.5619 148.805 80.5625 148.792Z" fill="#F57F62"/>
<path d="M98.4632 152.402C98.4053 152.427 97.9435 151.397 97.3645 149.693C97.0585 148.85 96.7029 147.838 96.094 146.833C95.4903 145.841 94.6027 144.817 93.3456 144.3C92.0853 143.788 90.7143 143.882 89.5087 143.954C88.3126 144.028 87.2196 144.097 86.2627 144.157C85.3383 144.209 84.5895 144.244 84.0717 144.26C83.5532 144.276 83.2662 144.273 83.2637 144.246C83.2618 144.22 83.5449 144.173 84.0596 144.112C84.5736 144.05 85.3193 143.973 86.2411 143.886C87.1961 143.802 88.2878 143.706 89.4813 143.601C90.6895 143.513 92.1171 143.39 93.4996 143.946C94.8738 144.513 95.8001 145.617 96.4096 146.656C97.0261 147.713 97.3569 148.752 97.6311 149.609C97.8741 150.405 98.0815 151.084 98.2527 151.647C98.4028 152.126 98.49 152.391 98.4632 152.402Z" fill="#F57F62"/>
<path d="M99.642 149.411C99.5689 149.425 99.399 148.105 98.6623 146.108C98.2952 145.112 97.7659 143.955 97.0349 142.751C96.6639 142.157 96.2606 141.523 95.7733 140.949C95.2866 140.373 94.6446 139.923 93.8437 139.818C93.0535 139.698 92.2239 139.762 91.4375 139.769C90.6486 139.79 89.8884 139.823 89.165 139.865C87.7176 139.949 86.4166 140.067 85.3262 140.185C84.2357 140.302 83.3546 140.418 82.7457 140.495C82.1362 140.572 81.7971 140.61 81.792 140.582C81.7876 140.558 82.1165 140.47 82.7196 140.348C83.3227 140.225 84.1994 140.068 85.2905 139.916C86.3816 139.763 87.6865 139.616 89.1408 139.511C89.868 139.46 90.6321 139.42 91.4254 139.394C92.2175 139.383 93.0363 139.31 93.9098 139.439C94.3412 139.507 94.7732 139.65 95.1396 139.883C95.5073 140.112 95.8095 140.405 96.0704 140.708C96.5851 141.323 96.9782 141.959 97.3504 142.574C98.0782 143.81 98.5891 144.997 98.9269 146.02C99.273 147.041 99.4505 147.894 99.551 148.485C99.6509 149.076 99.6637 149.408 99.642 149.411Z" fill="#F57F62"/>
<path d="M76.8103 170.721C76.8103 170.721 71.2556 203.849 70.3522 213.281C69.1803 225.522 66.9969 233.877 70.5405 242.222C73.6045 249.438 81.6887 254.399 89.0897 251.368C96.4907 248.336 99.0902 228.091 99.0902 228.091L90.1343 169.107L76.8103 170.721Z" fill="#F9A78D"/>
<path d="M95.7922 226.607C95.7871 226.605 95.7941 226.555 95.8138 226.457C95.8387 226.341 95.8698 226.2 95.908 226.026C95.9812 225.646 96.1555 225.1 96.2706 224.374C96.5754 222.938 96.8509 220.824 96.8916 218.204C96.917 215.583 96.653 212.464 96.1377 209.03C95.6338 205.595 94.9295 201.834 94.3321 197.864C93.1093 189.933 91.8955 182.766 91.1594 177.557C90.7866 174.953 90.5136 172.842 90.3495 171.38C90.2744 170.67 90.2152 170.108 90.172 169.696C90.1573 169.519 90.1453 169.376 90.1351 169.257C90.1287 169.158 90.1281 169.107 90.1338 169.107C90.1395 169.106 90.1516 169.156 90.1688 169.253C90.1873 169.371 90.2102 169.514 90.2381 169.689C90.2967 170.099 90.3768 170.658 90.4774 171.365C90.6809 172.821 90.9889 174.926 91.3916 177.524C92.1862 182.722 93.4363 189.881 94.6598 197.817C95.2565 201.782 95.9513 205.542 96.4399 208.989C96.9399 212.433 97.1817 215.572 97.1257 218.207C97.0551 220.842 96.7421 222.965 96.3972 224.399C96.2617 225.124 96.0664 225.666 95.9723 226.043C95.9214 226.213 95.88 226.352 95.8463 226.466C95.8164 226.561 95.7979 226.609 95.7922 226.607Z" fill="#F57F62"/>
<path d="M206.823 134.241C206.823 134.241 227.665 174.672 232.793 187.6C237.919 200.527 236.175 208.203 233.173 212.094C230.171 215.986 215.795 211.037 215.172 210.707C212.431 209.257 206.77 197.707 206.77 197.707L192.757 137.816L206.823 134.241Z" fill="#F9A78D"/>
<path d="M208.345 198.388C208.339 198.39 208.316 198.341 208.275 198.242C208.229 198.124 208.172 197.979 208.101 197.799C207.947 197.383 207.734 196.812 207.465 196.086C206.896 194.603 206.195 192.417 205.331 189.717C203.635 184.305 201.565 176.753 199.499 168.363C197.428 159.971 195.728 152.335 194.55 146.799C193.959 144.031 193.501 141.787 193.194 140.234C193.05 139.476 192.936 138.879 192.852 138.445C192.82 138.255 192.794 138.101 192.773 137.977C192.757 137.872 192.752 137.817 192.757 137.816C192.763 137.815 192.779 137.867 192.806 137.971C192.836 138.093 192.873 138.244 192.918 138.432C193.016 138.863 193.151 139.457 193.321 140.209C193.671 141.78 194.168 144.009 194.779 146.752C196.016 152.275 197.751 159.9 199.822 168.288C201.886 176.675 203.918 184.23 205.555 189.652C206.39 192.358 207.057 194.552 207.587 196.046C207.831 196.779 208.024 197.358 208.164 197.777C208.222 197.961 208.269 198.11 208.307 198.23C208.337 198.333 208.35 198.387 208.345 198.388Z" fill="#F57F62"/>
<path d="M180.708 105.927C180.708 105.927 179.755 106.374 180.032 107.894C180.309 109.414 183.198 114.898 183.443 116.06C183.689 117.222 184.308 125.225 185.396 127.371C186.484 129.517 187.008 125.06 187.008 125.06L191.25 117.878L192.105 115.762C192.105 115.762 190.173 117.173 188.699 114.152C187.926 112.568 186.947 109.384 185.41 107.298C183.874 105.212 182.214 104.914 180.708 105.927Z" fill="#F9A78D"/>
<path d="M188.553 108.142C188.544 108.185 188.01 108.133 187.149 108.022C186.292 107.901 185.092 107.749 183.814 107.335C182.553 106.92 181.444 106.417 180.734 105.896C180.379 105.639 180.131 105.373 180.003 105.162C179.87 104.953 179.863 104.808 179.876 104.807C179.918 104.791 180.132 105.274 180.869 105.71C181.581 106.162 182.676 106.622 183.92 107.03C185.157 107.432 186.343 107.621 187.189 107.798C188.039 107.966 188.562 108.098 188.553 108.142Z" fill="#F57F62"/>
<path d="M177.441 102.338C177.441 104.096 178.911 105.521 180.724 105.521C182.537 105.521 184.006 104.096 184.006 102.338C184.006 100.581 182.537 99.1558 180.724 99.1558C178.911 99.1558 177.441 100.581 177.441 102.338Z" fill="#FAFAF9"/>
<path d="M177.441 102.339C177.43 102.339 177.422 102.269 177.418 102.134C177.412 101.999 177.426 101.798 177.481 101.546C177.584 101.049 177.901 100.305 178.667 99.718C179.405 99.1301 180.66 98.7803 181.894 99.2103C182.502 99.4157 183.083 99.8118 183.498 100.364C183.924 100.909 184.166 101.614 184.172 102.338C184.166 103.063 183.924 103.768 183.498 104.313C183.083 104.865 182.502 105.262 181.894 105.467C180.66 105.897 179.405 105.547 178.667 104.959C177.901 104.372 177.584 103.628 177.481 103.131C177.426 102.879 177.412 102.678 177.418 102.543C177.422 102.409 177.43 102.339 177.441 102.339C177.474 102.337 177.468 102.622 177.606 103.1C177.743 103.57 178.078 104.255 178.809 104.778C179.515 105.304 180.673 105.595 181.79 105.189C182.898 104.817 183.854 103.673 183.841 102.339C183.853 101.004 182.898 99.8611 181.79 99.4885C180.673 99.0826 179.515 99.3738 178.809 99.8988C178.078 100.423 177.743 101.107 177.606 101.577C177.468 102.055 177.474 102.34 177.441 102.339Z" fill="#17282F"/>
<path d="M182.892 102.339C182.892 103.5 181.921 104.441 180.723 104.441C179.526 104.441 178.555 103.5 178.555 102.339C178.555 101.178 179.526 100.236 180.723 100.236C181.921 100.236 182.892 101.178 182.892 102.339Z" fill="#DADBD8"/>
<path d="M178.687 104.484C178.687 104.484 178.885 103.234 180.075 102.994C181.265 102.753 192.521 103.859 193.81 104.052C195.099 104.243 198.124 104.484 198.124 104.484C198.124 104.484 202.19 103.907 203.579 107.754L204.868 110.59C204.868 110.59 208.487 110.782 208.636 114.1C208.785 117.417 209.083 119.341 209.083 119.341C209.083 119.341 213.365 120.614 213.167 122.778C212.969 124.941 211.165 128.668 211.165 128.668L207.824 134.607C207.824 134.607 205.445 140.049 198.597 139.956L194.786 139.958C194.786 139.958 185.754 130.179 185.088 125.844C184.422 121.508 190.173 118.871 190.173 118.871L195.248 113.829L195.362 109.517C195.362 109.517 184.517 108.318 182.234 107.395C179.951 106.473 178.564 105.908 178.687 104.484Z" fill="#F9A78D"/>
<path d="M206.232 124.425C205.92 125.773 206.049 127.213 206.598 128.486L206.232 124.425Z" fill="#F9A78D"/>
<path d="M206.599 128.486C206.525 128.527 206.029 127.676 205.927 126.498C205.817 125.32 206.153 124.398 206.232 124.426C206.328 124.447 206.151 125.355 206.258 126.47C206.352 127.585 206.69 128.449 206.599 128.486Z" fill="#F57F62"/>
<path d="M197.956 104.47C197.956 104.47 191.257 105.23 189.415 106.134C189.23 106.225 184.814 111.175 184.814 111.175C184.814 111.175 185.73 113.475 188.409 112.623C191.088 111.771 191.754 110.068 191.754 110.068L197.956 109.855L199.396 112.623" fill="#F9A78D"/>
<path d="M199.397 112.623C199.381 112.631 199.233 112.385 198.973 111.919C198.696 111.412 198.327 110.735 197.87 109.897L197.959 109.949C196.351 110.017 194.224 110.107 191.76 110.212L191.893 110.119C191.392 111.17 190.395 111.965 189.231 112.478C188.65 112.726 188.016 112.955 187.32 112.965C186.63 112.989 185.907 112.73 185.394 112.244C185.073 111.949 184.828 111.609 184.661 111.233L184.622 111.146L184.69 111.071C186.129 109.464 187.493 107.947 188.759 106.593C188.921 106.422 189.071 106.261 189.246 106.092C189.378 105.965 189.472 105.971 189.584 105.912C189.691 105.866 189.798 105.823 189.906 105.792C190.334 105.648 190.754 105.539 191.162 105.447C191.977 105.261 192.741 105.121 193.438 105.009C194.833 104.782 195.962 104.647 196.742 104.561C197.132 104.519 197.435 104.492 197.641 104.477C197.847 104.462 197.955 104.46 197.956 104.471C197.958 104.481 197.852 104.504 197.649 104.538C197.41 104.576 197.116 104.623 196.759 104.68C195.985 104.802 194.862 104.971 193.478 105.225C192.786 105.351 192.029 105.503 191.226 105.698C190.824 105.794 190.412 105.907 190.001 106.05C189.896 106.082 189.796 106.124 189.698 106.168C189.612 106.211 189.462 106.25 189.443 106.3C189.296 106.446 189.135 106.62 188.98 106.786C187.732 108.147 186.375 109.673 184.94 111.28L184.969 111.118C185.107 111.426 185.338 111.755 185.622 112.01C186.08 112.442 186.699 112.663 187.316 112.646C187.935 112.641 188.537 112.43 189.098 112.194C190.209 111.718 191.166 110.937 191.616 110.017L191.66 109.926L191.749 109.924C194.215 109.86 196.343 109.804 197.952 109.762L198.016 109.76L198.042 109.813C198.466 110.667 198.808 111.357 199.065 111.874C199.296 112.354 199.413 112.615 199.397 112.623Z" fill="#F57F62"/>
<path d="M205.062 110.834L197.06 110.403C196.113 110.352 195.185 110.681 194.494 111.312L190.174 115.263C190.174 115.263 190.525 117.563 192.985 117.052C195.444 116.541 197.618 114.88 197.618 114.88C197.618 114.88 201.9 115.732 202.032 115.732C202.164 115.732 202.955 118.415 202.955 118.415" fill="#F9A78D"/>
<path d="M202.955 118.415C202.941 118.419 202.877 118.251 202.767 117.933C202.643 117.576 202.484 117.117 202.289 116.554C202.233 116.406 202.176 116.251 202.114 116.09C202.083 116.011 202.048 115.927 202.01 115.855C202.005 115.845 201.982 115.805 201.991 115.819C201.999 115.83 202.025 115.831 202.031 115.823L201.995 115.816L201.852 115.791C201.464 115.721 201.046 115.646 200.603 115.566C199.7 115.4 198.69 115.214 197.591 115.011L197.704 114.985C196.663 115.75 195.42 116.459 193.966 116.949C193.598 117.061 193.23 117.174 192.827 117.233C192.43 117.309 191.996 117.299 191.583 117.176C191.169 117.054 190.795 116.79 190.53 116.452C190.27 116.106 190.096 115.721 190.01 115.287L189.994 115.207L190.06 115.146C190.098 115.112 190.14 115.074 190.182 115.035C191.016 114.274 191.83 113.531 192.617 112.813C193.011 112.454 193.398 112.103 193.777 111.758C194.159 111.425 194.505 111.047 194.958 110.781C195.399 110.515 195.887 110.354 196.373 110.291C196.867 110.222 197.331 110.29 197.766 110.308C198.643 110.362 199.463 110.413 200.217 110.46C201.678 110.559 202.879 110.641 203.765 110.702C204.152 110.735 204.47 110.762 204.728 110.784C204.948 110.807 205.063 110.823 205.063 110.834C205.062 110.846 204.946 110.85 204.724 110.849C204.466 110.843 204.146 110.836 203.757 110.827C202.87 110.792 201.668 110.744 200.204 110.686C199.449 110.652 198.629 110.614 197.751 110.574C197.305 110.561 196.854 110.503 196.413 110.571C195.967 110.633 195.521 110.786 195.119 111.032C194.719 111.269 194.381 111.638 193.995 111.981C193.617 112.328 193.232 112.681 192.84 113.042C192.054 113.762 191.242 114.507 190.409 115.269C190.368 115.307 190.326 115.345 190.287 115.38L190.338 115.24C190.479 115.972 190.969 116.676 191.682 116.874C192.391 117.095 193.163 116.865 193.866 116.658C195.275 116.194 196.515 115.502 197.533 114.775L197.587 114.737L197.646 114.749C198.731 114.968 199.727 115.169 200.617 115.349C201.056 115.439 201.469 115.525 201.854 115.604L201.996 115.633L202.031 115.641C202.055 115.646 202.098 115.665 202.123 115.691C202.165 115.739 202.155 115.744 202.174 115.773C202.219 115.864 202.249 115.947 202.28 116.03C202.336 116.195 202.389 116.354 202.44 116.505C202.63 117.108 202.761 117.584 202.847 117.91C202.931 118.236 202.968 118.411 202.955 118.415Z" fill="#F57F62"/>
<path d="M211.241 120.311C211.241 120.311 207.256 118.372 206.599 118.415C205.941 118.457 198.979 120.918 198.979 120.918C198.979 120.918 200.363 123.653 202.383 123.398C204.404 123.142 206.066 122.546 206.066 122.546L208.928 125.271" fill="#F9A78D"/>
<path d="M208.928 125.271C208.911 125.288 208.622 125.044 208.114 124.587C207.567 124.085 206.849 123.426 205.982 122.629L206.108 122.655C205.08 123.015 203.845 123.346 202.441 123.539C202.073 123.577 201.673 123.558 201.307 123.42C200.943 123.286 200.606 123.081 200.303 122.835C199.706 122.33 199.221 121.703 198.831 120.989L198.744 120.83L198.923 120.767C199.039 120.726 199.165 120.682 199.291 120.638C200.942 120.058 202.519 119.52 203.962 119.049C204.684 118.814 205.37 118.595 206.025 118.412C206.195 118.372 206.344 118.322 206.532 118.296C206.727 118.274 206.904 118.335 207.054 118.375C207.361 118.471 207.641 118.582 207.908 118.69C208.97 119.133 209.799 119.543 210.372 119.829C210.943 120.117 211.251 120.291 211.241 120.311C211.231 120.331 210.903 120.195 210.316 119.942C209.728 119.691 208.883 119.312 207.82 118.901C207.554 118.8 207.273 118.697 206.98 118.613C206.83 118.576 206.691 118.532 206.562 118.552C206.426 118.573 206.259 118.626 206.102 118.668C205.461 118.86 204.777 119.087 204.06 119.329C202.623 119.826 201.052 120.37 199.403 120.94C199.277 120.984 199.153 121.028 199.036 121.069L199.128 120.847C199.491 121.513 199.964 122.129 200.513 122.597C200.793 122.825 201.097 123.011 201.417 123.133C201.739 123.257 202.073 123.273 202.401 123.246C203.778 123.071 205.012 122.764 206.024 122.436L206.099 122.412L206.15 122.463C206.987 123.289 207.68 123.974 208.207 124.495C208.687 124.98 208.944 125.255 208.928 125.271Z" fill="#F57F62"/>
<path d="M192.039 118.348C192.034 118.377 191.872 118.319 191.629 118.418C191.388 118.515 191.11 118.803 190.892 119.226C190.476 120.101 189.942 121.355 189.461 122.763C188.978 124.174 188.645 125.483 188.429 126.435C188.214 127.389 188.101 127.985 188.052 127.979C188.01 127.974 188.041 127.365 188.199 126.393C188.357 125.422 188.658 124.089 189.147 122.662C189.636 121.234 190.203 119.993 190.687 119.117C190.946 118.68 191.284 118.377 191.586 118.299C191.894 118.225 192.05 118.339 192.039 118.348Z" fill="#F57F62"/>
<path d="M187.26 108.451C187.249 108.495 186.731 108.41 185.891 108.28C185.052 108.143 183.891 107.968 182.618 107.674C181.34 107.385 180.224 106.888 179.548 106.351C178.864 105.817 178.621 105.329 178.651 105.316C178.697 105.281 179.001 105.707 179.688 106.169C180.37 106.635 181.443 107.077 182.696 107.362C183.95 107.652 185.108 107.863 185.937 108.057C186.768 108.245 187.272 108.409 187.26 108.451Z" fill="#F57F62"/>
</svg>
